<svg xmlns="http://www.w3.org/2000/svg" xmlns:xlink="http://www.w3.org/1999/xlink" width="665.931" height="330.641" viewBox="0 0 665.931 330.641">
  <defs>
    <linearGradient id="linear-gradient" x1="0.5" y1="1" x2="0.5" gradientUnits="objectBoundingBox">
      <stop offset="0" stop-color="gray" stop-opacity="0.251"/>
      <stop offset="0.535" stop-color="gray" stop-opacity="0.122"/>
      <stop offset="1" stop-color="gray" stop-opacity="0.102"/>
    </linearGradient>
  </defs>
  <g id="undraw_Savings_dwkw_1_" data-name="undraw_Savings_dwkw (1)" transform="translate(-138 -222.65)">
    <ellipse id="Ellipse_236" data-name="Ellipse 236" cx="332.966" cy="40.472" rx="332.966" ry="40.472" transform="translate(138 472.348)" fill="#ffba00" opacity="0.1"/>
    <path id="Path_1065" data-name="Path 1065" d="M997.486,762.22s17.366-22.1,15.961-44.022a42.582,42.582,0,0,1,6.7-26.088,71.633,71.633,0,0,1,8.16-10.245" transform="translate(-289.76 -229.562)" fill="none" stroke="#535461" stroke-miterlimit="10" stroke-width="2"/>
    <path id="Path_1066" data-name="Path 1066" d="M1047.621,656.1c-1.224,3.069.781,14.185.781,14.185s9.107-6.682,10.332-9.751a5.982,5.982,0,1,0-11.113-4.434Z" transform="translate(-309.872 -217.622)" fill="#ffba00"/>
    <path id="Path_1067" data-name="Path 1067" d="M1021,676.2c.64,3.241,8.365,11.482,8.365,11.482s4.013-10.559,3.373-13.8A5.983,5.983,0,1,0,1021,676.2Z" transform="translate(-299.223 -224.382)" fill="#ffba00"/>
    <path id="Path_1068" data-name="Path 1068" d="M1001.271,723.33c2.189,2.475,13.018,5.689,13.018,5.689s-1.866-11.141-4.055-13.615a5.982,5.982,0,1,0-8.963,7.926Z" transform="translate(-290.683 -242.307)" fill="#ffba00"/>
    <path id="Path_1069" data-name="Path 1069" d="M995.828,764.186c1.739,2.809,11.869,7.807,11.869,7.807s.043-11.3-1.7-14.1a5.982,5.982,0,1,0-10.173,6.3Z" transform="translate(-288.727 -259.156)" fill="#ffba00"/>
    <path id="Path_1070" data-name="Path 1070" d="M1044.675,701.319c-3.054,1.26-14.193-.616-14.193-.616s6.576-9.184,9.63-10.444a5.982,5.982,0,0,1,4.563,11.061Z" transform="translate(-303.102 -232.773)" fill="#ffba00"/>
    <path id="Path_1071" data-name="Path 1071" d="M1037.792,748.076c-3.292.288-13.358-4.835-13.358-4.835s9.023-6.8,12.314-7.084a5.982,5.982,0,0,1,1.045,11.919Z" transform="translate(-300.656 -251.506)" fill="#ffba00"/>
    <path id="Path_1072" data-name="Path 1072" d="M1023.857,792.927c-3.2.841-13.983-2.508-13.983-2.508s7.744-8.223,10.94-9.063a5.982,5.982,0,0,1,3.044,11.571Z" transform="translate(-294.769 -269.712)" fill="#ffba00"/>
    <path id="Path_1073" data-name="Path 1073" d="M1047.621,656.1c-1.224,3.069.781,14.185.781,14.185s9.107-6.682,10.332-9.751a5.982,5.982,0,1,0-11.113-4.434Z" transform="translate(-309.872 -217.622)" opacity="0.25"/>
    <path id="Path_1074" data-name="Path 1074" d="M1021,676.2c.64,3.241,8.365,11.482,8.365,11.482s4.013-10.559,3.373-13.8A5.983,5.983,0,1,0,1021,676.2Z" transform="translate(-299.223 -224.382)" opacity="0.25"/>
    <path id="Path_1075" data-name="Path 1075" d="M1001.271,723.33c2.189,2.475,13.018,5.689,13.018,5.689s-1.866-11.141-4.055-13.615a5.982,5.982,0,1,0-8.963,7.926Z" transform="translate(-290.683 -242.307)" opacity="0.25"/>
    <path id="Path_1076" data-name="Path 1076" d="M995.828,764.186c1.739,2.809,11.869,7.807,11.869,7.807s.043-11.3-1.7-14.1a5.982,5.982,0,1,0-10.173,6.3Z" transform="translate(-288.727 -259.156)" opacity="0.25"/>
    <path id="Path_1077" data-name="Path 1077" d="M1044.675,701.319c-3.054,1.26-14.193-.616-14.193-.616s6.576-9.184,9.63-10.444a5.982,5.982,0,0,1,4.563,11.061Z" transform="translate(-303.102 -232.773)" opacity="0.25"/>
    <path id="Path_1078" data-name="Path 1078" d="M1037.792,748.076c-3.292.288-13.358-4.835-13.358-4.835s9.023-6.8,12.314-7.084a5.982,5.982,0,0,1,1.045,11.919Z" transform="translate(-300.656 -251.506)" opacity="0.25"/>
    <path id="Path_1079" data-name="Path 1079" d="M1023.857,792.927c-3.2.841-13.983-2.508-13.983-2.508s7.744-8.223,10.94-9.063a5.982,5.982,0,0,1,3.044,11.571Z" transform="translate(-294.769 -269.712)" opacity="0.25"/>
    <path id="Path_1080" data-name="Path 1080" d="M997.733,773.833s24.83-13.165,32.431-33.778a42.582,42.582,0,0,1,16.7-21.135,71.622,71.622,0,0,1,11.611-6.059" transform="translate(-289.86 -242.096)" fill="none" stroke="#535461" stroke-miterlimit="10" stroke-width="2"/>
    <path id="Path_1081" data-name="Path 1081" d="M1104.463,689.944c-2.363,2.309-5.034,13.285-5.034,13.285s11.034-2.418,13.4-4.728a5.982,5.982,0,0,0-8.363-8.557Z" transform="translate(-330.981 -232.14)" fill="#ffba00"/>
    <path id="Path_1082" data-name="Path 1082" d="M1074.236,697.537c-.728,3.223,2.995,13.887,2.995,13.887s7.948-8.027,8.676-11.25a5.983,5.983,0,0,0-11.671-2.637Z" transform="translate(-320.756 -234.013)" fill="#ffba00"/>
    <path id="Path_1083" data-name="Path 1083" d="M1037.069,732.633c1,3.15,9.6,10.476,9.6,10.476s2.808-10.941,1.81-14.091a5.983,5.983,0,0,0-11.406,3.615Z" transform="translate(-305.652 -246.94)" fill="#ffba00"/>
    <path id="Path_1084" data-name="Path 1084" d="M1015.531,767.777c.452,3.273,7.687,11.947,7.687,11.947s4.617-10.309,4.165-13.582a5.983,5.983,0,0,0-11.853,1.635Z" transform="translate(-297.034 -261.552)" fill="#ffba00"/>
    <path id="Path_1085" data-name="Path 1085" d="M1084.661,731.732c-3.3-.086-12.726-6.315-12.726-6.315s9.733-5.732,13.036-5.646a5.982,5.982,0,0,1-.311,11.961Z" transform="translate(-319.864 -244.889)" fill="#ffba00"/>
    <path id="Path_1086" data-name="Path 1086" d="M1060.47,771.983c-3.126-1.07-10.253-9.833-10.253-9.833s11-2.557,14.128-1.487a5.982,5.982,0,0,1-3.875,11.32Z" transform="translate(-311.082 -261.319)" fill="#ffba00"/>
    <path id="Path_1087" data-name="Path 1087" d="M1028.951,807.217c-3.262-.527-11.767-7.959-11.767-7.959s10.412-4.379,13.674-3.853a5.982,5.982,0,1,1-1.906,11.812Z" transform="translate(-297.725 -275.455)" fill="#ffba00"/>
    <ellipse id="Ellipse_237" data-name="Ellipse 237" cx="22.371" cy="23.746" rx="22.371" ry="23.746" transform="translate(438.804 447.176)" fill="#fbd56f"/>
    <ellipse id="Ellipse_238" data-name="Ellipse 238" cx="22.371" cy="23.746" rx="22.371" ry="23.746" transform="translate(438.804 447.176)" opacity="0.1"/>
    <ellipse id="Ellipse_239" data-name="Ellipse 239" cx="22.371" cy="23.217" rx="22.371" ry="23.217" transform="translate(442.665 448.234)" fill="#fbd56f"/>
    <path id="Path_1089" data-name="Path 1089" d="M603.132,748.094l-2.327-1.3a28.187,28.187,0,0,0-.733,7.779,1.613,1.613,0,0,0,1.212,1.393c5.353,1.329,30.867,6.993,48.411-.984a1.61,1.61,0,0,0,.932-1.294,24.1,24.1,0,0,0-.851-6.894C649.122,745.077,603.132,748.094,603.132,748.094Z" transform="translate(-129.035 -255.604)" fill="#fbd56f"/>
    <path id="Path_1090" data-name="Path 1090" d="M603.132,748.094l-2.327-1.3a28.187,28.187,0,0,0-.733,7.779,1.613,1.613,0,0,0,1.212,1.393c5.353,1.329,30.867,6.993,48.411-.984a1.61,1.61,0,0,0,.932-1.294,24.1,24.1,0,0,0-.851-6.894C649.122,745.077,603.132,748.094,603.132,748.094Z" transform="translate(-129.035 -255.604)" opacity="0.1"/>
    <ellipse id="Ellipse_240" data-name="Ellipse 240" cx="24.486" cy="5.519" rx="24.486" ry="5.519" transform="translate(471.769 485.675)" fill="#fbd56f"/>
    <path id="Path_1091" data-name="Path 1091" d="M618.836,734.422l-2.327-1.3a28.19,28.19,0,0,0-.733,7.779,1.612,1.612,0,0,0,1.212,1.393c5.353,1.329,30.867,6.993,48.411-.984a1.61,1.61,0,0,0,.932-1.294,24.105,24.105,0,0,0-.851-6.894C664.827,731.406,618.836,734.422,618.836,734.422Z" transform="translate(-135.385 -250.076)" fill="#fbd56f"/>
    <path id="Path_1092" data-name="Path 1092" d="M618.836,734.422l-2.327-1.3a28.19,28.19,0,0,0-.733,7.779,1.612,1.612,0,0,0,1.212,1.393c5.353,1.329,30.867,6.993,48.411-.984a1.61,1.61,0,0,0,.932-1.294,24.105,24.105,0,0,0-.851-6.894C664.827,731.406,618.836,734.422,618.836,734.422Z" transform="translate(-135.385 -250.076)" opacity="0.1"/>
    <ellipse id="Ellipse_241" data-name="Ellipse 241" cx="24.486" cy="5.519" rx="24.486" ry="5.519" transform="translate(481.125 477.532)" fill="#fbd56f"/>
    <path id="Path_1093" data-name="Path 1093" d="M632.722,716.454l-2.327-1.3a28.186,28.186,0,0,0-.733,7.779,1.612,1.612,0,0,0,1.212,1.393c5.353,1.329,30.867,6.993,48.411-.984a1.61,1.61,0,0,0,.932-1.294,24.1,24.1,0,0,0-.851-6.894C678.712,713.437,632.722,716.454,632.722,716.454Z" transform="translate(-141 -242.81)" fill="#fbd56f"/>
    <path id="Path_1094" data-name="Path 1094" d="M632.722,716.454l-2.327-1.3a28.186,28.186,0,0,0-.733,7.779,1.612,1.612,0,0,0,1.212,1.393c5.353,1.329,30.867,6.993,48.411-.984a1.61,1.61,0,0,0,.932-1.294,24.1,24.1,0,0,0-.851-6.894C678.712,713.437,632.722,716.454,632.722,716.454Z" transform="translate(-141 -242.81)" opacity="0.1"/>
    <ellipse id="Ellipse_242" data-name="Ellipse 242" cx="24.486" cy="5.519" rx="24.486" ry="5.519" transform="translate(489.395 466.829)" fill="#fbd56f"/>
    <path id="Path_1095" data-name="Path 1095" d="M617.345,697.748l-2.327-1.3a28.186,28.186,0,0,0-.733,7.779,1.612,1.612,0,0,0,1.212,1.393c5.353,1.329,30.867,6.993,48.411-.984a1.61,1.61,0,0,0,.932-1.294,24.1,24.1,0,0,0-.851-6.894C663.336,694.731,617.345,697.748,617.345,697.748Z" transform="translate(-134.782 -235.246)" fill="#fbd56f"/>
    <path id="Path_1096" data-name="Path 1096" d="M617.345,697.748l-2.327-1.3a28.186,28.186,0,0,0-.733,7.779,1.612,1.612,0,0,0,1.212,1.393c5.353,1.329,30.867,6.993,48.411-.984a1.61,1.61,0,0,0,.932-1.294,24.1,24.1,0,0,0-.851-6.894C663.336,694.731,617.345,697.748,617.345,697.748Z" transform="translate(-134.782 -235.246)" opacity="0.1"/>
    <ellipse id="Ellipse_243" data-name="Ellipse 243" cx="24.486" cy="5.519" rx="24.486" ry="5.519" transform="translate(480.236 455.687)" fill="#fbd56f"/>
    <path id="Path_1097" data-name="Path 1097" d="M651.937,682.737l-2.327-1.3a28.186,28.186,0,0,0-.733,7.779,1.612,1.612,0,0,0,1.212,1.393c5.353,1.329,30.867,6.993,48.411-.984a1.61,1.61,0,0,0,.932-1.294,24.1,24.1,0,0,0-.851-6.894C697.927,679.72,651.937,682.737,651.937,682.737Z" transform="translate(-148.769 -229.176)" fill="#fbd56f"/>
    <path id="Path_1098" data-name="Path 1098" d="M651.937,682.737l-2.327-1.3a28.186,28.186,0,0,0-.733,7.779,1.612,1.612,0,0,0,1.212,1.393c5.353,1.329,30.867,6.993,48.411-.984a1.61,1.61,0,0,0,.932-1.294,24.1,24.1,0,0,0-.851-6.894C697.927,679.72,651.937,682.737,651.937,682.737Z" transform="translate(-148.769 -229.176)" opacity="0.1"/>
    <ellipse id="Ellipse_244" data-name="Ellipse 244" cx="24.486" cy="5.519" rx="24.486" ry="5.519" transform="translate(500.84 446.745)" fill="#fbd56f"/>
    <path id="Path_1099" data-name="Path 1099" d="M628.565,672.647l-2.327-1.3a28.188,28.188,0,0,0-.733,7.779,1.612,1.612,0,0,0,1.212,1.393c5.353,1.329,30.867,6.993,48.411-.984a1.61,1.61,0,0,0,.932-1.294,24.1,24.1,0,0,0-.851-6.894C674.555,669.631,628.565,672.647,628.565,672.647Z" transform="translate(-139.319 -225.097)" fill="#fbd56f"/>
    <path id="Path_1100" data-name="Path 1100" d="M628.565,672.647l-2.327-1.3a28.188,28.188,0,0,0-.733,7.779,1.612,1.612,0,0,0,1.212,1.393c5.353,1.329,30.867,6.993,48.411-.984a1.61,1.61,0,0,0,.932-1.294,24.1,24.1,0,0,0-.851-6.894C674.555,669.631,628.565,672.647,628.565,672.647Z" transform="translate(-139.319 -225.097)" opacity="0.1"/>
    <ellipse id="Ellipse_245" data-name="Ellipse 245" cx="24.486" cy="5.519" rx="24.486" ry="5.519" transform="translate(486.919 440.736)" fill="#fbd56f"/>
    <path id="Path_1101" data-name="Path 1101" d="M644.169,653.169l-2.327-1.3a28.19,28.19,0,0,0-.733,7.779,1.612,1.612,0,0,0,1.212,1.393c5.353,1.329,30.867,6.993,48.411-.984a1.61,1.61,0,0,0,.932-1.294,24.1,24.1,0,0,0-.851-6.894C690.159,650.153,644.169,653.169,644.169,653.169Z" transform="translate(-145.628 -217.221)" fill="#fbd56f"/>
    <path id="Path_1102" data-name="Path 1102" d="M644.169,653.169l-2.327-1.3a28.19,28.19,0,0,0-.733,7.779,1.612,1.612,0,0,0,1.212,1.393c5.353,1.329,30.867,6.993,48.411-.984a1.61,1.61,0,0,0,.932-1.294,24.1,24.1,0,0,0-.851-6.894C690.159,650.153,644.169,653.169,644.169,653.169Z" transform="translate(-145.628 -217.221)" opacity="0.1"/>
    <ellipse id="Ellipse_246" data-name="Ellipse 246" cx="24.486" cy="5.519" rx="24.486" ry="5.519" transform="translate(496.213 429.134)" fill="#fbd56f"/>
    <path id="Path_1103" data-name="Path 1103" d="M651.865,630.049l-2.327-1.3a28.191,28.191,0,0,0-.733,7.779,1.613,1.613,0,0,0,1.212,1.393c5.353,1.329,30.867,6.993,48.411-.984a1.61,1.61,0,0,0,.932-1.294,24.1,24.1,0,0,0-.851-6.894C697.856,627.033,651.865,630.049,651.865,630.049Z" transform="translate(-148.741 -207.872)" fill="#fbd56f"/>
    <path id="Path_1104" data-name="Path 1104" d="M651.865,630.049l-2.327-1.3a28.191,28.191,0,0,0-.733,7.779,1.613,1.613,0,0,0,1.212,1.393c5.353,1.329,30.867,6.993,48.411-.984a1.61,1.61,0,0,0,.932-1.294,24.1,24.1,0,0,0-.851-6.894C697.856,627.033,651.865,630.049,651.865,630.049Z" transform="translate(-148.741 -207.872)" opacity="0.1"/>
    <ellipse id="Ellipse_247" data-name="Ellipse 247" cx="24.486" cy="5.519" rx="24.486" ry="5.519" transform="translate(500.798 415.362)" fill="#fbd56f"/>
    <path id="Path_1105" data-name="Path 1105" d="M721.26,753.456l-2.327-1.3a28.185,28.185,0,0,0-.733,7.779,1.612,1.612,0,0,0,1.212,1.393c5.353,1.329,30.867,6.993,48.411-.984a1.61,1.61,0,0,0,.932-1.294,24.1,24.1,0,0,0-.851-6.894C767.251,750.439,721.26,753.456,721.26,753.456Z" transform="translate(-176.801 -257.772)" fill="#fbd56f"/>
    <path id="Path_1106" data-name="Path 1106" d="M721.26,753.456l-2.327-1.3a28.185,28.185,0,0,0-.733,7.779,1.612,1.612,0,0,0,1.212,1.393c5.353,1.329,30.867,6.993,48.411-.984a1.61,1.61,0,0,0,.932-1.294,24.1,24.1,0,0,0-.851-6.894C767.251,750.439,721.26,753.456,721.26,753.456Z" transform="translate(-176.801 -257.772)" opacity="0.1"/>
    <ellipse id="Ellipse_248" data-name="Ellipse 248" cx="24.486" cy="5.519" rx="24.486" ry="5.519" transform="translate(542.132 488.869)" fill="#fbd56f"/>
    <path id="Path_1107" data-name="Path 1107" d="M735.145,735.487l-2.327-1.3a28.187,28.187,0,0,0-.733,7.779,1.612,1.612,0,0,0,1.212,1.393c5.353,1.329,30.867,6.993,48.411-.984a1.61,1.61,0,0,0,.933-1.294,24.106,24.106,0,0,0-.851-6.894C781.135,732.471,735.145,735.487,735.145,735.487Z" transform="translate(-182.415 -250.506)" fill="#fbd56f"/>
    <path id="Path_1108" data-name="Path 1108" d="M735.145,735.487l-2.327-1.3a28.187,28.187,0,0,0-.733,7.779,1.612,1.612,0,0,0,1.212,1.393c5.353,1.329,30.867,6.993,48.411-.984a1.61,1.61,0,0,0,.933-1.294,24.106,24.106,0,0,0-.851-6.894C781.135,732.471,735.145,735.487,735.145,735.487Z" transform="translate(-182.415 -250.506)" opacity="0.1"/>
    <ellipse id="Ellipse_249" data-name="Ellipse 249" cx="24.486" cy="5.519" rx="24.486" ry="5.519" transform="translate(550.403 478.166)" fill="#fbd56f"/>
    <path id="Path_1109" data-name="Path 1109" d="M719.769,716.782l-2.327-1.3a28.187,28.187,0,0,0-.733,7.779,1.612,1.612,0,0,0,1.212,1.393c5.353,1.329,30.867,6.993,48.411-.984a1.61,1.61,0,0,0,.932-1.294,24.1,24.1,0,0,0-.851-6.894C765.759,713.765,719.769,716.782,719.769,716.782Z" transform="translate(-176.197 -242.943)" fill="#fbd56f"/>
    <path id="Path_1110" data-name="Path 1110" d="M719.769,716.782l-2.327-1.3a28.187,28.187,0,0,0-.733,7.779,1.612,1.612,0,0,0,1.212,1.393c5.353,1.329,30.867,6.993,48.411-.984a1.61,1.61,0,0,0,.932-1.294,24.1,24.1,0,0,0-.851-6.894C765.759,713.765,719.769,716.782,719.769,716.782Z" transform="translate(-176.197 -242.943)" opacity="0.1"/>
    <ellipse id="Ellipse_250" data-name="Ellipse 250" cx="24.486" cy="5.519" rx="24.486" ry="5.519" transform="translate(541.244 467.025)" fill="#fbd56f"/>
    <path id="Path_1111" data-name="Path 1111" d="M754.359,701.771l-2.327-1.3a28.188,28.188,0,0,0-.733,7.779,1.612,1.612,0,0,0,1.212,1.393c5.353,1.329,30.867,6.993,48.411-.984a1.61,1.61,0,0,0,.932-1.294,24.107,24.107,0,0,0-.851-6.894C800.35,698.754,754.359,701.771,754.359,701.771Z" transform="translate(-190.185 -236.873)" fill="#fbd56f"/>
    <path id="Path_1112" data-name="Path 1112" d="M754.359,701.771l-2.327-1.3a28.188,28.188,0,0,0-.733,7.779,1.612,1.612,0,0,0,1.212,1.393c5.353,1.329,30.867,6.993,48.411-.984a1.61,1.61,0,0,0,.932-1.294,24.107,24.107,0,0,0-.851-6.894C800.35,698.754,754.359,701.771,754.359,701.771Z" transform="translate(-190.185 -236.873)" opacity="0.1"/>
    <ellipse id="Ellipse_251" data-name="Ellipse 251" cx="24.486" cy="5.519" rx="24.486" ry="5.519" transform="translate(561.848 458.083)" fill="#fbd56f"/>
    <path id="Path_1113" data-name="Path 1113" d="M730.989,691.681l-2.327-1.3a28.189,28.189,0,0,0-.733,7.779,1.613,1.613,0,0,0,1.212,1.393c5.353,1.329,30.867,6.993,48.411-.984a1.61,1.61,0,0,0,.932-1.294,24.1,24.1,0,0,0-.851-6.894C776.979,688.665,730.989,691.681,730.989,691.681Z" transform="translate(-180.734 -232.793)" fill="#fbd56f"/>
    <path id="Path_1114" data-name="Path 1114" d="M730.989,691.681l-2.327-1.3a28.189,28.189,0,0,0-.733,7.779,1.613,1.613,0,0,0,1.212,1.393c5.353,1.329,30.867,6.993,48.411-.984a1.61,1.61,0,0,0,.932-1.294,24.1,24.1,0,0,0-.851-6.894C776.979,688.665,730.989,691.681,730.989,691.681Z" transform="translate(-180.734 -232.793)" opacity="0.1"/>
    <ellipse id="Ellipse_252" data-name="Ellipse 252" cx="24.486" cy="5.519" rx="24.486" ry="5.519" transform="translate(547.927 452.073)" fill="#fbd56f"/>
    <path id="Path_1115" data-name="Path 1115" d="M746.592,672.2l-2.327-1.3a28.19,28.19,0,0,0-.733,7.779,1.612,1.612,0,0,0,1.212,1.393c5.353,1.329,30.867,6.993,48.411-.984a1.61,1.61,0,0,0,.933-1.294,24.105,24.105,0,0,0-.851-6.894C792.583,669.186,746.592,672.2,746.592,672.2Z" transform="translate(-187.044 -224.917)" fill="#fbd56f"/>
    <path id="Path_1116" data-name="Path 1116" d="M746.592,672.2l-2.327-1.3a28.19,28.19,0,0,0-.733,7.779,1.612,1.612,0,0,0,1.212,1.393c5.353,1.329,30.867,6.993,48.411-.984a1.61,1.61,0,0,0,.933-1.294,24.105,24.105,0,0,0-.851-6.894C792.583,669.186,746.592,672.2,746.592,672.2Z" transform="translate(-187.044 -224.917)" opacity="0.1"/>
    <ellipse id="Ellipse_253" data-name="Ellipse 253" cx="24.486" cy="5.519" rx="24.486" ry="5.519" transform="translate(557.221 440.471)" fill="#fbd56f"/>
    <path id="Path_1117" data-name="Path 1117" d="M754.289,649.083l-2.327-1.3a28.187,28.187,0,0,0-.733,7.779,1.612,1.612,0,0,0,1.212,1.393c5.353,1.329,30.867,6.993,48.411-.984a1.61,1.61,0,0,0,.932-1.294,24.1,24.1,0,0,0-.851-6.894C800.279,646.066,754.289,649.083,754.289,649.083Z" transform="translate(-190.156 -215.568)" fill="#fbd56f"/>
    <path id="Path_1118" data-name="Path 1118" d="M754.289,649.083l-2.327-1.3a28.187,28.187,0,0,0-.733,7.779,1.612,1.612,0,0,0,1.212,1.393c5.353,1.329,30.867,6.993,48.411-.984a1.61,1.61,0,0,0,.932-1.294,24.1,24.1,0,0,0-.851-6.894C800.279,646.066,754.289,649.083,754.289,649.083Z" transform="translate(-190.156 -215.568)" opacity="0.1"/>
    <ellipse id="Ellipse_254" data-name="Ellipse 254" cx="24.486" cy="5.519" rx="24.486" ry="5.519" transform="translate(561.806 426.7)" fill="#fbd56f"/>
    <path id="Path_1119" data-name="Path 1119" d="M897.269,614.077c-3.408-.12-3.53-1.441-7.912-3.724-2.474-1.288-6.23-5.028-9.03-8.038q-.336-.362-.651-.706c.74-.016,1.16-.024,1.16-.024s-1.1-9.609-.122-11.892.244-15.856.244-15.856.609-10.33-.487-12.733.365-17.778.365-17.778.974-9.129,1.217-27.747-10.712-19.219-10.712-19.219-1.461-.113-3.679-.324l-.665-.064c1.436-3.007,2.274-5.257,2.274-5.257s-1.826-17.417-2.313-20.42-3.408-15.375-3.408-15.375-2.069-5.285-3.287-9.009-4.869-8.048-4.869-8.048-6.573-12.973-8.4-14.895c-.847-.891-2.035-2.016-3.065-2.965-.186-.171-.363-.334-.536-.491a21.759,21.759,0,0,0,.436-4.112s-6.817-6.727-7.3-8.408-6.938-7.928-6.938-7.928-3.652-6.727-7.791-6.847a33.761,33.761,0,0,0-5.862.178c.85-3.146,1.855-6.442,2.758-9.271.1-.315.2-.622.3-.925a20.847,20.847,0,0,0,7.478-9.045c.086-.2.164-.392.243-.589.044,0,.087.008.131.008a3.266,3.266,0,0,0,.512-.046c1.362-.234,2.516-1.773,1.888-2.987a.445.445,0,0,0,.4.218c.454-.015,1.008-.672,1.115-1.25.018-.1.028-.2.044-.3.019-.125.04-.251.055-.377s.023-.237.033-.356.02-.245.026-.368.009-.23.011-.345c0-.132,0-.265,0-.4,0-.106,0-.212-.008-.318-.008-.161-.021-.322-.036-.482-.006-.066-.007-.132-.015-.2v.009a10.779,10.779,0,0,0-.392-1.937c-.673-2.233-2.084-4.447-1.54-6.714.006-.024.017-.047.023-.071v0c.453-1.759,1.975-3.037,2.907-4.609.089-.15.167-.3.244-.46.014-.028.031-.056.045-.084.056-.117.1-.237.153-.356.032-.077.067-.152.1-.23.039-.1.072-.211.106-.318s.064-.193.091-.291.047-.189.07-.285c.027-.115.054-.229.076-.345.016-.083.028-.167.041-.25.021-.131.039-.263.053-.395.008-.072.013-.143.019-.215.012-.147.02-.295.024-.443,0-.059,0-.119,0-.178q0-.243-.012-.486c0-.049-.005-.1-.009-.146-.012-.173-.03-.344-.053-.516,0-.025,0-.05-.008-.075v.007a8.657,8.657,0,0,0-1.744-4.14,10.669,10.669,0,0,0-8.762-3.79,14.684,14.684,0,0,1-2.755.051,9.1,9.1,0,0,1-4.039-2.133l-10.2-7.854a12.583,12.583,0,0,0-3.854-2.291,4.3,4.3,0,0,0-4.235.764c-1.909,1.884-.7,5.126-1.462,7.681-.664,2.213-2.8,3.712-5.013,4.459s-4.58.911-6.853,1.452a3.782,3.782,0,0,0-1.834.843,3.547,3.547,0,0,0-.8,2.554,13.77,13.77,0,0,0,1.583,6.5c.43.816.951,1.64,1.408,2.476.038.069.074.138.111.207.051.1.1.192.151.288q.119.234.226.47c.031.068.059.136.088.2q.072.167.136.334c.027.071.054.142.079.214.046.131.087.263.124.4a4.4,4.4,0,0,1,.066,2.4,8.891,8.891,0,0,1-2.247,3.295,6.409,6.409,0,0,0-1.5,2.784l0,.023a2.239,2.239,0,0,0-.028.734c0,.03.008.061.014.091a1.287,1.287,0,0,0,.045.161,1.1,1.1,0,0,0,.048.112,1.055,1.055,0,0,0,.063.124.954.954,0,0,0,.155.183,1.011,1.011,0,0,0,.085.063,1.034,1.034,0,0,0,.156.1c.034.016.067.032.1.046a1.44,1.44,0,0,0,.249.068c.024,0,.044.012.069.015a2.291,2.291,0,0,0,.392.017c.038,0,.079-.006.118-.009a3.717,3.717,0,0,0,.374-.047c.045-.008.09-.015.137-.025a5.916,5.916,0,0,0,.575-.147,12.877,12.877,0,0,0,1.989-.786c0,.073-.006.145-.006.219,0,.126,0,.258.012.384a20.241,20.241,0,0,0,1.315,6.89,20.808,20.808,0,0,0,6.348,8.771q-.053.311-.116.625c-.587,2.88-1.814,5.771-2.571,5.547a10.324,10.324,0,0,0-2.257-.247c-.23-.007-.453-.01-.664-.011h0a9,9,0,0,0-2.069,0,2.243,2.243,0,0,1-.906-.125,12.347,12.347,0,0,0-6.082-.341c-4.209.862-10.612,2.441-12.368,4.329-2.678,2.883-6.573,5.646-10.955,17.657,0,0-2.191,7.327-3.9,8.288a11.387,11.387,0,0,1,1.156-.52,3.084,3.084,0,0,1-.913,1,13.437,13.437,0,0,1,1.917-.8c-1.33,7.826.639,30.212.639,30.212s-1.582,3.86.487,6.142a11.566,11.566,0,0,1,2.24,4.968l-.3.466v0c-1.1,1.7-2.561,3.913-3.523,5.134-1.7,2.162-1.217,9.009-1.217,9.009s-.365,3.243-1.582,4.444-.974,5.646-.974,5.646L746.571,494.2s-2.922,2.643-2.922,3.844-2.313,4.565-2.313,4.565-3.53,5.766,0,4.925a11.073,11.073,0,0,0,3.564-1.792l0,.086q-.008.317-.013.644c-.1,6.28.584,15.116,5.215,15.116,7.182,0,25.685,8.528,25.685,8.528,3.774,2.883,8.886,1.922,8.886,1.922s-9.008,9.009-8.765,12.732-5.113,9.85-5.113,9.85L754.239,586.93a24.789,24.789,0,0,0,1.187,6.623c-.079.069-.16.134-.237.2-6.361,5.811-6.914,17.316-6.914,17.316l-1.461,5.886,22.154,9.73s28.728.6,33.719-.721,3.9-6.847-2.678-7.928-8.156-3.964-10.347-5.285c-1.478-.891-6.727-6.652-9.984-10.3l-.144-.161.755-4.189c1.461-.721,3.652-7.928,3.652-7.928s0-2.883,1.461-3.724,4.5-9.489,4.5-9.489,6.573-10.931,6.208-12.372,4.747-8.769,4.747-8.769,8.643-8.408,8.278-9.91,6.938-9.189,6.938-9.189a24.376,24.376,0,0,0,6.464-7.443c.657-.106,1.363-.219,2.108-.344,9.558-1.566,25.441-4.4,27.216-5.187,2.435-1.081,1.948,3.724.974,7.808s-1.7,23.663-.609,26.186.609,6.607.609,6.607l-1.461,21.982.974,4.685s-3.287,2.643-1.948,4.2.122,8.288.122,8.288c.115-.043.251-.084.4-.125-.117.264-.229.535-.329.819-1.887,5.379-.806,14.2-.806,14.2v6.967s33.719.6,41.144.6,17.651-3.6,18.259-6.486S900.676,614.2,897.269,614.077Zm-95.9-125.049-2.209.186a18.341,18.341,0,0,1,2.209-.186Zm13.466-92.2c.309-1.39.685-2.884,1.1-4.417ZM819,492.4a8.936,8.936,0,0,1-6.559.007l-.015-.007s.122-8.408,1.1-11.892,2.313-9.85,2.313-9.85a128.945,128.945,0,0,1,2.191-12.733c1.1-3.964,5.356-26.066,7.547-27.507s3.408,1.081,3.408,1.081.327-.007.876-.067q.154.346.349.735c2.6,5.249,10.218,16.029,10.218,16.029a17.553,17.553,0,0,1,5.6,5.525c2.069,3.483,2.678,11.651,2.678,11.651s4.626,18.138,6.817,20.66c1.1,1.261.609,2.013-.151,2.448a10.786,10.786,0,0,0-3.842,3.548c-.312.495-.642,1.038-.977,1.617-.838-.194-1.587-.4-2.212-.606-5.965-2-26.05-2.083-29.337-.642Z" transform="translate(-185.55 -85.908)" fill="url(#linear-gradient)"/>
    <path id="Path_1120" data-name="Path 1120" d="M922.943,802.937v6.909s32.994.6,40.26.6,17.271-3.573,17.867-6.432-8.338-5.241-11.673-5.36-3.454-1.429-7.742-3.693c-2.42-1.277-6.1-4.986-8.836-7.971-2.113-2.3-3.671-4.178-3.671-4.178s-17.748-.357-22.87,2.5a6.2,6.2,0,0,0-2.547,3.547C921.886,794.189,922.943,802.937,922.943,802.937Z" transform="translate(-259.496 -270.373)" fill="#434175"/>
    <path id="Path_1121" data-name="Path 1121" d="M924.472,788.855c3.721-1.294,25.507-1.8,29.087-1.87-2.113-2.3-3.671-4.178-3.671-4.178s-17.748-.357-22.87,2.5A6.2,6.2,0,0,0,924.472,788.855Z" transform="translate(-260.236 -270.373)" opacity="0.1"/>
    <path id="Path_1122" data-name="Path 1122" d="M763.77,604.806s.688.417,1.925,1.162c.224.133.464.281.722.436.784.474,1.725,1.039,2.8,1.687,14.97,9.021,55.807,33.478,58.041,33.282.586-.05,2.347-.314,4.776-.71.643-.1,1.334-.217,2.063-.341,9.353-1.553,24.895-4.362,26.631-5.143,2.382-1.072,1.906,3.693.953,7.742s-1.668,23.465-.6,25.967.6,6.551.6,6.551l-1.429,21.8.953,4.645s-3.216,2.621-1.906,4.169.119,8.219.119,8.219c3.812-1.429,29.659-1.906,29.659-1.906s-1.072-9.529-.119-11.792.238-15.723.238-15.723.6-10.244-.476-12.626.357-17.629.357-17.629.953-9.053,1.191-27.515-10.482-19.058-10.482-19.058-1.429-.112-3.6-.322a159.623,159.623,0,0,1-16.047-2.213,26.752,26.752,0,0,1-2.866-.76c-5.837-1.987-25.49-2.065-28.706-.636a8.637,8.637,0,0,1-6.418.007l-.014-.007-2.5-4.05-23.892,2.037-2.532.217L769.69,604.3l-1.617.138Z" transform="translate(-195.256 -196.476)" fill="#565387"/>
    <path id="Path_1123" data-name="Path 1123" d="M922.132,626.775c6.939,3.383,13.562-8.61,16.65-15.377a159.7,159.7,0,0,1-16.047-2.213C919.627,614.4,915.479,623.532,922.132,626.775Z" transform="translate(-257.852 -200.173)" opacity="0.1"/>
    <path id="Path_1124" data-name="Path 1124" d="M889.552,494.73a7.271,7.271,0,0,0,.841,2.33c2.542,5.205,10,15.894,10,15.894a17.269,17.269,0,0,1,5.479,5.479c2.025,3.454,2.62,11.554,2.62,11.554s4.526,17.986,6.67,20.487c1.072,1.251.6,2-.148,2.428a10.609,10.609,0,0,0-3.759,3.519c-3.123,5.022-8.109,14.982-1.1,18.4,9.529,4.645,18.463-19.7,18.463-19.7s-1.787-17.271-2.263-20.249-3.335-15.247-3.335-15.247-2.025-5.241-3.216-8.933-4.765-7.981-4.765-7.981-6.432-12.864-8.219-14.77c-.829-.884-1.992-2-3-2.94-1.165-1.089-2.123-1.944-2.123-1.944S889.433,491.871,889.552,494.73Z" transform="translate(-246.116 -149.173)" fill="#ee8e9e"/>
    <path id="Path_1125" data-name="Path 1125" d="M753.971,796.335l21.678,9.648s28.111.6,32.994-.715,3.812-6.789-2.62-7.861-7.981-3.931-10.125-5.241c-1.446-.884-6.582-6.6-9.77-10.217-1.534-1.744-2.618-3-2.618-3s-4.169-11.078-15.723-8.576a11.839,11.839,0,0,0-5.622,2.959C755.941,779.09,755.4,790.5,755.4,790.5Z" transform="translate(-191.294 -265.2)" fill="#434175"/>
    <path id="Path_1126" data-name="Path 1126" d="M768.213,606.081c.784.474,1.725,1.039,2.8,1.687,14.97,9.022,55.807,33.478,58.041,33.282.586-.05,2.346-.314,4.776-.71.643-.1,1.334-.217,2.063-.341.029-.045.055-.091.081-.136a27.375,27.375,0,0,0,2.728-6.675c2.5-9.529-9.886-16.795-9.886-16.795l-2.62-2.037c-2.978-5.015-24.418-9.755-24.418-9.755l-2.763-1.856-1.475-.991-.388-.26-3.354-2.254L777,600.433l-4.988,3.206-.527.338-1.851,1.191Z" transform="translate(-197.052 -196.153)" opacity="0.1"/>
    <path id="Path_1127" data-name="Path 1127" d="M767.729,773.328c4.56,15.771,23.608,10.62,23.608,10.62l.355-2c-1.534-1.744-2.618-3-2.618-3s-4.169-11.078-15.723-8.576a11.84,11.84,0,0,0-5.622,2.959Z" transform="translate(-196.856 -265.201)" opacity="0.1"/>
    <path id="Path_1128" data-name="Path 1128" d="M755.9,633.035c7.028,0,25.133,8.457,25.133,8.457,3.693,2.859,8.7,1.906,8.7,1.906s-8.814,8.933-8.576,12.626-5,9.767-5,9.767l-16.2,32.041c1.191,22.751,24.537,16.438,24.537,16.438l.953-5.36c1.429-.715,3.573-7.861,3.573-7.861s0-2.859,1.429-3.693,4.407-9.41,4.407-9.41,6.432-10.839,6.075-12.269,4.645-8.7,4.645-8.7,8.457-8.338,8.1-9.827,6.789-9.112,6.789-9.112a24.053,24.053,0,0,0,6.325-7.38,27.384,27.384,0,0,0,2.728-6.675c2.015-7.673-5.627-13.881-8.679-16-.739-.515-1.208-.791-1.208-.791l-2.62-2.037c-1.353-2.282-6.527-4.5-11.766-6.251-3.778-1.26-7.592-2.273-10.029-2.88-1.613-.4-2.623-.624-2.623-.624l-2.763-1.856-.972-.653-.891-.6-3.354-2.254-7.473.529-9.322.663-4.988,3.206-2.377,1.529-9.31,5.984s-.245,2.292-.324,5.367c0,.238-.01.479-.014.727C750.7,624.274,751.37,633.035,755.9,633.035Z" transform="translate(-190.007 -196.476)" fill="#565387"/>
    <path id="Path_1129" data-name="Path 1129" d="M819.562,423.607l2.5,8.934s4.407,15.366,4.884,16.438,12.03,11.911,12.507,12.15,6.768,3.812,6.768,3.812.5-19.654.021-25.371a16.323,16.323,0,0,1,.31-3.745,140.859,140.859,0,0,1,4.276-16.111c1.334-4.24,2.442-7.421,2.442-7.421s-27.872-1.191-26.92,1.548a9.786,9.786,0,0,1-.1,4.5c-.574,2.856-1.775,5.722-2.516,5.5a9.971,9.971,0,0,0-2.208-.245C820.494,423.569,819.562,423.607,819.562,423.607Z" transform="translate(-217.815 -120.455)" fill="#ee8e9e"/>
    <path id="Path_1130" data-name="Path 1130" d="M830.785,418.345a20.615,20.615,0,0,0,24.582,1.367c1.334-4.24,2.442-7.421,2.442-7.421s-27.872-1.191-26.919,1.548A9.786,9.786,0,0,1,830.785,418.345Z" transform="translate(-222.354 -120.455)" opacity="0.1"/>
    <path id="Path_1131" data-name="Path 1131" d="M859.58,380.888a20.526,20.526,0,0,1-1.03,6.433,16.844,16.844,0,0,1-.6,1.578,20.608,20.608,0,0,1-38.288-.8,20.311,20.311,0,0,1-1.286-6.832c-.012-.125-.012-.256-.012-.381a20.606,20.606,0,0,1,41.213,0Z" transform="translate(-217.332 -99.529)" fill="#ee8e9e"/>
    <path id="Path_1132" data-name="Path 1132" d="M819.562,431.451l2.5,8.933s4.407,15.366,4.884,16.438,12.03,11.911,12.507,12.149,6.768,3.812,6.768,3.812.5-19.654.021-25.371a16.323,16.323,0,0,1,.31-3.745l-1.62,6.6.119,13.222.953.715-2.144,3.216v-2.382s-7.623-7.385-8.814-10.482-5.479-8.7-5.479-8.7-4.884-8.209-5-9.639c-.093-1.115-2.144-3.692-3.042-4.772C820.494,431.413,819.562,431.451,819.562,431.451Z" transform="translate(-217.815 -128.298)" opacity="0.1"/>
    <path id="Path_1133" data-name="Path 1133" d="M889.552,494.73a7.271,7.271,0,0,0,.841,2.33c2.6-.267,11.478-1.922,13.431-12.059-1.165-1.089-2.123-1.944-2.123-1.944S889.433,491.871,889.552,494.73Z" transform="translate(-246.116 -149.173)" opacity="0.1"/>
    <path id="Path_1134" data-name="Path 1134" d="M750.8,618.046c2.4-1.7,4.691-4.021,6.056-4.664a26.311,26.311,0,0,0,5.122-4.05s.786-.534,1.992-1.241c2.211-1.3,5.834-3.173,8.609-3.4,2.487-.207,10.749-.736,17.248-1.141,4.7-.3,8.481-.527,8.481-.527s7.742-2.74,11.078-.953a35,35,0,0,0,7.5,2.74s0-.26.014-.708l-.014-.007-2.5-4.05-26.424,2.254-3.354-2.254-16.795,1.191-4.988,3.206-4.3.367s.688.417,1.925,1.163l-9.31,5.985S750.857,614.613,750.8,618.046Z" transform="translate(-190.013 -196.476)" opacity="0.1"/>
    <path id="Path_1135" data-name="Path 1135" d="M743.93,550.453a10.783,10.783,0,0,0,3.488-1.777v0c2.4-1.7,4.679-4.012,6.041-4.653a26.307,26.307,0,0,0,5.122-4.05s6.313-4.288,10.6-4.645c1.17-.1,3.614-.267,6.551-.457,3.006-.2,6.525-.424,9.724-.622,1.844-.117,3.581-.226,5.048-.317l4.4-.272s7.742-2.74,11.078-.953a35,35,0,0,0,7.5,2.74s.119-8.338,1.072-11.792,2.263-9.767,2.263-9.767,1.072-8.7,2.144-12.626,5.241-25.848,7.385-27.277,3.335,1.072,3.335,1.072,14.294-.238,14.532-15.961c0,0-6.67-6.67-7.147-8.338s-6.789-7.862-6.789-7.862-3.573-6.67-7.623-6.789a32.578,32.578,0,0,0-5.737.176l-3.435,14,.119,13.222.953.715-2.144,3.216v-2.382s-7.623-7.385-8.814-10.482-5.479-8.7-5.479-8.7-4.884-8.209-5-9.639-3.454-5.26-3.454-5.26a8.7,8.7,0,0,0-2.025,0,2.166,2.166,0,0,1-.886-.124,11.929,11.929,0,0,0-5.951-.338c-4.119.855-10.384,2.42-12.1,4.293-2.62,2.859-6.432,5.6-10.72,17.51l23.108,8.338-1.977,3.759-18.391,34.953s-.61.993-1.437,2.292v0c-1.072,1.684-2.506,3.881-3.447,5.091-1.668,2.144-1.191,8.934-1.191,8.934s-.357,3.216-1.548,4.407-.953,5.6-.953,5.6l-3.1,11.554s-2.859,2.621-2.859,3.812-2.263,4.526-2.263,4.526S740.476,551.287,743.93,550.453Z" transform="translate(-186.613 -127.83)" fill="#434175"/>
    <path id="Path_1136" data-name="Path 1136" d="M943.115,646.435s-7.5,2.5-9.529,6.075S943.115,646.435,943.115,646.435Z" transform="translate(-263.825 -215.236)" opacity="0.1"/>
    <path id="Path_1137" data-name="Path 1137" d="M936.777,633.237c-.238.357-10.278,10.432-9.648,12.864S936.777,633.237,936.777,633.237Z" transform="translate(-261.299 -209.899)" opacity="0.1"/>
    <path id="Path_1138" data-name="Path 1138" d="M842.477,645.235s-11.2,5.28-12.149,7.583S842.477,645.235,842.477,645.235Z" transform="translate(-222.149 -214.751)" opacity="0.1"/>
    <path id="Path_1139" data-name="Path 1139" d="M841.691,656.634s-10.1,4.288-11.484,5.36S841.691,656.634,841.691,656.634Z" transform="translate(-222.078 -219.36)" opacity="0.1"/>
    <path id="Path_1140" data-name="Path 1140" d="M836.766,671.578s-4.475,3.335-6.943.715S836.766,671.578,836.766,671.578Z" transform="translate(-221.798 -225.132)" opacity="0.1"/>
    <path id="Path_1141" data-name="Path 1141" d="M856.713,526.051c-.24.357-15.129,27.158-19.06,29.183S856.713,526.051,856.713,526.051Z" transform="translate(-224.948 -166.558)" opacity="0.1"/>
    <path id="Path_1142" data-name="Path 1142" d="M857.136,543.049c0,.6-14.532,31.684-16.914,32.041S857.136,543.049,857.136,543.049Z" transform="translate(-226.087 -173.431)" opacity="0.1"/>
    <path id="Path_1143" data-name="Path 1143" d="M769.07,576.644s-7.018,14.987-9.767,15.842S769.07,576.644,769.07,576.644Z" transform="translate(-193.29 -187.016)" opacity="0.1"/>
    <path id="Path_1144" data-name="Path 1144" d="M771.155,565.446s-2.419,5.241-3.89,5.241S771.155,565.446,771.155,565.446Z" transform="translate(-196.566 -182.488)" opacity="0.1"/>
    <path id="Path_1145" data-name="Path 1145" d="M859.58,380.888a20.526,20.526,0,0,1-1.03,6.433,16.844,16.844,0,0,1-.6,1.578,6.059,6.059,0,0,1-2.889-1.269,7.152,7.152,0,0,1-2.162-2.311,28.968,28.968,0,0,1-1.054-3.008,7,7,0,0,0-5.653-4.283c.685,1.167-.405,2.77-1.745,2.978a4.262,4.262,0,0,1-3.568-1.59c-.923-.995-1.59-2.2-2.508-3.2a4.262,4.262,0,0,0-3.568-1.59c-1.185.179-2.1,1.084-3.1,1.757s-2.377,1.126-3.336.405c-.536-.4-.8-1.078-1.31-1.513-1.316-1.1-3.365.036-4.336,1.459-1.5,2.2-2.406,3.538-4.348,4.533-.012-.125-.012-.256-.012-.381a20.606,20.606,0,1,1,41.213,0Z" transform="translate(-217.332 -99.529)" opacity="0.1"/>
    <path id="Path_1146" data-name="Path 1146" d="M819.56,364.225c.969-1.425,3.017-2.564,4.337-1.456.512.43.774,1.11,1.308,1.512.957.721,2.347.269,3.337-.407a8.111,8.111,0,0,1,3.095-1.757,4.251,4.251,0,0,1,3.567,1.591c.92,1,1.588,2.2,2.509,3.2a4.249,4.249,0,0,0,3.568,1.588c1.34-.205,2.433-1.809,1.744-2.977a7,7,0,0,1,5.651,4.282,29.011,29.011,0,0,0,1.055,3.008,7.135,7.135,0,0,0,2.165,2.309,5.126,5.126,0,0,0,3.753,1.245c1.335-.232,2.465-1.762,1.845-2.967.427.648,1.343-.255,1.481-1.018a10.9,10.9,0,0,0-.275-5.027c-.658-2.214-2.039-4.41-1.507-6.657.421-1.78,1.942-3.057,2.865-4.636a8.38,8.38,0,0,0-.788-9.127,10.377,10.377,0,0,0-8.574-3.758,14.176,14.176,0,0,1-2.7.05,8.867,8.867,0,0,1-3.952-2.115l-9.977-7.788a12.278,12.278,0,0,0-3.771-2.272,4.169,4.169,0,0,0-4.144.757c-1.868,1.868-.681,5.083-1.431,7.616-.649,2.194-2.741,3.681-4.905,4.422s-4.481.9-6.706,1.44a3.679,3.679,0,0,0-1.794.836,3.549,3.549,0,0,0-.78,2.532,13.8,13.8,0,0,0,1.549,6.441c1.155,2.222,2.987,4.506,2.338,6.925a8.823,8.823,0,0,1-2.2,3.267c-1.885,2.168-2.522,5.373,1.026,4.253C816.672,368.458,817.631,367.061,819.56,364.225Z" transform="translate(-214.163 -87.614)" fill="#434175"/>
    <g id="Group_69" data-name="Group 69" transform="translate(596.38 260.098)" opacity="0.1">
      <path id="Path_1147" data-name="Path 1147" d="M859.1,389.662c-.139.763-1.055,1.666-1.481,1.018.62,1.2-.51,2.735-1.845,2.967a5.125,5.125,0,0,1-3.753-1.244,7.133,7.133,0,0,1-2.165-2.309,29,29,0,0,1-1.055-3.008,7,7,0,0,0-5.651-4.282c.689,1.168-.4,2.772-1.744,2.977a4.248,4.248,0,0,1-3.568-1.588c-.921-1-1.588-2.2-2.509-3.2a4.251,4.251,0,0,0-3.567-1.591,8.112,8.112,0,0,0-3.1,1.757c-.99.676-2.38,1.128-3.337.407-.534-.4-.8-1.082-1.308-1.512-1.32-1.107-3.368.032-4.337,1.456-1.929,2.835-2.887,4.232-6.3,5.31-1.122.354-1.823.274-2.2-.067-.75,1.722-.408,3.239,2.2,2.416,3.418-1.078,4.376-2.476,6.3-5.31.969-1.425,3.017-2.564,4.337-1.456.512.43.774,1.109,1.308,1.512.957.721,2.347.269,3.337-.407a8.11,8.11,0,0,1,3.1-1.757,4.251,4.251,0,0,1,3.567,1.591c.921,1,1.588,2.2,2.509,3.2a4.248,4.248,0,0,0,3.568,1.588c1.34-.205,2.433-1.809,1.744-2.977a7,7,0,0,1,5.651,4.282,29,29,0,0,0,1.055,3.008,7.134,7.134,0,0,0,2.165,2.309A5.125,5.125,0,0,0,855.773,396c1.335-.232,2.465-1.762,1.845-2.967.427.648,1.343-.255,1.481-1.018a10.883,10.883,0,0,0,.107-3.116C859.179,389.151,859.145,389.407,859.1,389.662Z" transform="translate(-810.664 -367.345)"/>
      <path id="Path_1148" data-name="Path 1148" d="M814.41,371.227c.009-.031.022-.059.031-.09.648-2.419-1.183-4.7-2.339-6.925a13.806,13.806,0,0,1-1.48-5.031,6.68,6.68,0,0,0-.068.938,13.8,13.8,0,0,0,1.549,6.441A24.273,24.273,0,0,1,814.41,371.227Z" transform="translate(-810.553 -359.181)"/>
      <path id="Path_1149" data-name="Path 1149" d="M891.66,367.428c-.923,1.579-2.444,2.856-2.865,4.636a5.173,5.173,0,0,0,.021,2.282c.443-1.744,1.933-3.012,2.844-4.57a7.828,7.828,0,0,0,.917-5.029,7.37,7.37,0,0,1-.917,2.68Z" transform="translate(-842.143 -361.432)"/>
    </g>
    <path id="Path_1150" data-name="Path 1150" d="M770.757,524.813v0a18.194,18.194,0,0,1,.365,1.994s9.41,22.036,10.6,23.346c.367.4,1.749,2.385,3.485,4.936.629.922,1.3,1.92,1.994,2.945,3.6,5.346,7.623,11.416,7.623,11.416l8.814,7.742s19.175,1.534,25.269-4.688c-.739-.515-1.208-.791-1.208-.791l-2.62-2.037c-1.353-2.282-6.527-4.5-11.766-6.251-4.826.036-8.774.427-8.774.427l-1.255-3.307-1.31-3.45-6.663-17.543s-4.3-22.155-5.727-23.227-1.072-4.407-1.072-4.407,2.62-9.41,1.668-10.72,1.548-10.958,1.548-10.958a10,10,0,0,0-1.143-2.673l-18.391,34.952S771.584,523.514,770.757,524.813Z" transform="translate(-198.081 -150.998)" opacity="0.1"/>
    <path id="Path_1151" data-name="Path 1151" d="M789.623,483.99s-2.5,9.648-1.549,10.958-1.667,10.72-1.667,10.72-.357,3.335,1.072,4.407,5.727,23.227,5.727,23.227l9.229,24.3s28.878-2.859,25.9,6.194-26.8,7.147-26.8,7.147L792.72,563.2s-11.911-17.986-13.1-19.3-10.6-23.346-10.6-23.346-.477-4.407-2.5-6.67-.476-6.091-.476-6.091-2.5-28.809.119-32.263S786.883,473.627,789.623,483.99Z" transform="translate(-195.738 -145.461)" fill="#ee8e9e"/>
    <path id="Path_1152" data-name="Path 1152" d="M773.886,459.346l-7.5,4.526s-2.144,7.266-3.812,8.219c0,0,15.008-8.338,26.324,10.839,0,0-.357-2.5,1.191-3.692s1.191-6.313,1.191-6.313a20.629,20.629,0,0,0,1.072-2.5C793.42,467.8,787.822,452.8,773.886,459.346Z" transform="translate(-194.771 -138.922)" opacity="0.1"/>
    <path id="Path_1153" data-name="Path 1153" d="M773.486,458.546l-7.5,4.526s-2.144,7.266-3.812,8.219c0,0,15.008-8.338,26.324,10.839,0,0-.357-2.5,1.191-3.693s1.191-6.313,1.191-6.313a20.636,20.636,0,0,0,1.072-2.5C793.021,467,787.422,452,773.486,458.546Z" transform="translate(-194.609 -138.599)" fill="#434175"/>
    <ellipse id="Ellipse_255" data-name="Ellipse 255" cx="22.371" cy="23.746" rx="22.371" ry="23.746" transform="translate(489.622 481.055)" fill="#fbd56f"/>
    <ellipse id="Ellipse_256" data-name="Ellipse 256" cx="22.371" cy="23.746" rx="22.371" ry="23.746" transform="translate(489.622 481.055)" opacity="0.1"/>
    <ellipse id="Ellipse_257" data-name="Ellipse 257" cx="22.371" cy="23.217" rx="22.371" ry="23.217" transform="translate(493.483 482.112)" fill="#fbd56f"/>
    <ellipse id="Ellipse_258" data-name="Ellipse 258" cx="27.629" cy="4.671" rx="27.629" ry="4.671" transform="translate(164.064 508.508)" fill="#ffba00"/>
    <path id="Path_1154" data-name="Path 1154" d="M132.965,762.6a8.021,8.021,0,0,0,2.634-3.975,3.534,3.534,0,0,0-1.841-4.049c-1.691-.647-3.5.525-4.867,1.708s-2.939,2.534-4.732,2.283a7.2,7.2,0,0,0,2.228-6.742,2.816,2.816,0,0,0-.62-1.369c-.938-1-2.64-.573-3.763.218-3.573,2.513-4.57,7.367-4.59,11.736a22.2,22.2,0,0,1-.066-4.835c-.009-1.616-.452-3.408-1.816-4.277a5.47,5.47,0,0,0-2.769-.651c-1.606-.059-3.4.1-4.492,1.277-1.363,1.46-1.009,3.909.176,5.516s2.989,2.614,4.65,3.724a10.309,10.309,0,0,1,3.323,3.169,3.139,3.139,0,0,1,.246.566h10.07a28.065,28.065,0,0,0,6.227-4.3Z" transform="translate(70.153 -257.06)" fill="#ffba00"/>
    <path id="Path_1155" data-name="Path 1155" d="M532.076,730.1a24.087,24.087,0,0,1,2.995,5.468c.2.5.4,1.031.581,1.586,2.977,8.9-1.74,19.564-3.088,18.413s-5.55-3.286-6.363-.285-3.814,6.067-3.814,6.067c-5.468,5.5-10.418-.442-13.667-6.582a59.473,59.473,0,0,1-2.827-6.246c-.721-1.886-1.136-3.189-1.136-3.189l22.776-19.405A13.481,13.481,0,0,1,532.076,730.1Z" transform="translate(-90.523 -247.379)" fill="#ffba00"/>
    <path id="Path_1156" data-name="Path 1156" d="M471.812,750.933a24.084,24.084,0,0,1,2.995,5.468c.2.5.4,1.031.581,1.585,2.977,8.9-1.74,19.564-3.088,18.413s-5.55-3.286-6.363-.286-3.814,6.067-3.814,6.067c-5.468,5.5-10.418-.443-13.667-6.582a59.469,59.469,0,0,1-2.826-6.245c-.721-1.885-1.136-3.189-1.136-3.189L467.27,746.76A13.48,13.48,0,0,1,471.812,750.933Z" transform="translate(-66.155 -255.803)" fill="#ffba00"/>
    <path id="Path_1157" data-name="Path 1157" d="M345.973,778.4a24.086,24.086,0,0,1-1.184,6.121c-.167.515-.353,1.047-.564,1.592-3.386,8.748-13.825,13.951-14.129,12.2s-2.176-6.072-4.716-4.281-6.808,2.237-6.808,2.237c-7.72.745-7.738-6.989-6.321-13.789a59.466,59.466,0,0,1,1.81-6.612c.648-1.912,1.161-3.18,1.161-3.18l29.919-.4A13.484,13.484,0,0,1,345.973,778.4Z" transform="translate(-12.391 -266.124)" fill="#ffba00"/>
    <path id="Path_1158" data-name="Path 1158" d="M281.074,762.029a24.084,24.084,0,0,1-1.184,6.121c-.167.515-.353,1.046-.564,1.591-3.386,8.749-13.825,13.951-14.129,12.205s-2.176-6.072-4.716-4.281-6.808,2.237-6.808,2.237c-7.72.745-7.738-6.989-6.321-13.789a59.468,59.468,0,0,1,1.81-6.612c.648-1.912,1.161-3.18,1.161-3.18l29.919-.4A13.48,13.48,0,0,1,281.074,762.029Z" transform="translate(13.851 -259.506)" fill="#ffba00"/>
    <path id="Path_1159" data-name="Path 1159" d="M532.076,730.1a24.087,24.087,0,0,1,2.995,5.468c.2.5.4,1.031.581,1.586,2.977,8.9-1.74,19.564-3.088,18.413s-5.55-3.286-6.363-.285-3.814,6.067-3.814,6.067c-5.468,5.5-10.418-.442-13.667-6.582a59.473,59.473,0,0,1-2.827-6.246c-.721-1.886-1.136-3.189-1.136-3.189l22.776-19.405A13.481,13.481,0,0,1,532.076,730.1Z" transform="translate(-90.523 -247.379)" opacity="0.2"/>
    <path id="Path_1160" data-name="Path 1160" d="M471.812,750.933a24.084,24.084,0,0,1,2.995,5.468c.2.5.4,1.031.581,1.585,2.977,8.9-1.74,19.564-3.088,18.413s-5.55-3.286-6.363-.286-3.814,6.067-3.814,6.067c-5.468,5.5-10.418-.443-13.667-6.582a59.469,59.469,0,0,1-2.826-6.245c-.721-1.885-1.136-3.189-1.136-3.189L467.27,746.76A13.48,13.48,0,0,1,471.812,750.933Z" transform="translate(-66.155 -255.803)" opacity="0.2"/>
    <path id="Path_1161" data-name="Path 1161" d="M345.973,778.4a24.086,24.086,0,0,1-1.184,6.121c-.167.515-.353,1.047-.564,1.592-3.386,8.748-13.825,13.951-14.129,12.2s-2.176-6.072-4.716-4.281-6.808,2.237-6.808,2.237c-7.72.745-7.738-6.989-6.321-13.789a59.466,59.466,0,0,1,1.81-6.612c.648-1.912,1.161-3.18,1.161-3.18l29.919-.4A13.484,13.484,0,0,1,345.973,778.4Z" transform="translate(-12.391 -266.124)" opacity="0.2"/>
    <path id="Path_1162" data-name="Path 1162" d="M281.074,762.029a24.084,24.084,0,0,1-1.184,6.121c-.167.515-.353,1.046-.564,1.591-3.386,8.749-13.825,13.951-14.129,12.205s-2.176-6.072-4.716-4.281-6.808,2.237-6.808,2.237c-7.72.745-7.738-6.989-6.321-13.789a59.468,59.468,0,0,1,1.81-6.612c.648-1.912,1.161-3.18,1.161-3.18l29.919-.4A13.48,13.48,0,0,1,281.074,762.029Z" transform="translate(13.851 -259.506)" opacity="0.2"/>
    <path id="Path_1163" data-name="Path 1163" d="M446.512,447.82c0,79.911-27.033,144.692-151.782,144.692-83.827,0-148.68-20.829-151.782-144.692-2-79.886,67.955-144.692,151.782-144.692S446.512,367.909,446.512,447.82Z" transform="translate(55.794 -76.418)" fill="#ffba00"/>
    <path id="Path_1164" data-name="Path 1164" d="M349.994,307.369h.018a.034.034,0,0,1-.013,0Z" transform="translate(-27.943 -78.133)" opacity="0.2"/>
    <path id="Path_1165" data-name="Path 1165" d="M350.348,307.116c.386-.062,1.148-.168,2.256-.253l-2.468.293q.053-.013.133-.027Z" transform="translate(-28 -77.928)" opacity="0.2"/>
    <path id="Path_1166" data-name="Path 1166" d="M464.191,364.908,453.112,368.9a247.471,247.471,0,0,0-18.2-21.7,177.8,177.8,0,0,0-23.049-20.647c-28.367-21.024-50.307-21.56-57.553-21.019l16.654-1.959a135.4,135.4,0,0,1,44.71,16.162,147.705,147.705,0,0,1,26.869,19.849C457.042,353.044,464.191,364.908,464.191,364.908Z" transform="translate(-29.688 -76.599)" opacity="0.2"/>
    <path id="Path_1167" data-name="Path 1167" d="M365.746,376.767s-14.624-48.748-2.216-62.042c0,0,19.5-6.647,34.123,31.021Z" transform="translate(-31.397 -80.924)" opacity="0.2"/>
    <path id="Path_1168" data-name="Path 1168" d="M494.962,323.975s38.782-32.957,55.939-26.926c0,0,13.913,15.193-14.721,43.7Z" transform="translate(-86.562 -73.662)" fill="#ffba00"/>
    <path id="Path_1169" data-name="Path 1169" d="M494.962,323.975s38.782-32.957,55.939-26.926c0,0,13.913,15.193-14.721,43.7Z" transform="translate(-86.562 -73.662)" opacity="0.2"/>
    <path id="Path_1170" data-name="Path 1170" d="M626.7,554.908c0,42.954-30.824,76.888-59.827,76.888s-45.2-33.935-45.2-76.888,23.56-76.1,52.515-77.775C620.054,474.474,626.7,511.954,626.7,554.908Z" transform="translate(-97.362 -146.724)" fill="#ffba00"/>
    <path id="Path_1171" data-name="Path 1171" d="M626.7,554.908c0,42.954-30.824,76.888-59.827,76.888s-45.2-33.935-45.2-76.888,23.56-76.1,52.515-77.775C620.054,474.474,626.7,511.954,626.7,554.908Z" transform="translate(-97.362 -146.724)" opacity="0.2"/>
    <ellipse id="Ellipse_259" data-name="Ellipse 259" cx="9.75" cy="12.408" rx="9.75" ry="12.408" transform="translate(457.99 402.201)" fill="#ffba00"/>
    <ellipse id="Ellipse_260" data-name="Ellipse 260" cx="9.75" cy="12.408" rx="9.75" ry="12.408" transform="translate(492.556 391.565)" fill="#ffba00"/>
    <path id="Path_1172" data-name="Path 1172" d="M483.5,338.868a17.691,17.691,0,0,1-1.892,8,17.006,17.006,0,0,1-7.631,7.613,177.8,177.8,0,0,0-23.049-20.647,17.369,17.369,0,0,1,3.811-6.816,16.338,16.338,0,0,1,12.116-5.429C476.05,321.594,483.5,329.327,483.5,338.868Z" transform="translate(-68.758 -83.885)" fill="#fad46f"/>
  </g>
</svg>
