<?xml version="1.0" encoding="UTF-8" standalone="no"?>
<!-- Created with Inkscape (http://www.inkscape.org/) -->

<svg
   xmlns:dc="http://purl.org/dc/elements/1.1/"
   xmlns:cc="http://creativecommons.org/ns#"
   xmlns:rdf="http://www.w3.org/1999/02/22-rdf-syntax-ns#"
   xmlns:svg="http://www.w3.org/2000/svg"
   xmlns="http://www.w3.org/2000/svg"
   xmlns:sodipodi="http://sodipodi.sourceforge.net/DTD/sodipodi-0.dtd"
   xmlns:inkscape="http://www.inkscape.org/namespaces/inkscape"
   width="80.062294mm"
   height="9.8030195mm"
   viewBox="0 0 80.062294 9.8030195"
   version="1.1"
   id="svg8"
   inkscape:version="0.92.2 (5c3e80d, 2017-08-06)"
   sodipodi:docname="logo.svg">
  <defs
     id="defs2" />
  <sodipodi:namedview
     id="base"
     pagecolor="#ffffff"
     bordercolor="#666666"
     borderopacity="1.0"
     inkscape:pageopacity="0.0"
     inkscape:pageshadow="2"
     inkscape:zoom="1.4"
     inkscape:cx="84.411952"
     inkscape:cy="9.1377773"
     inkscape:document-units="mm"
     inkscape:current-layer="layer1"
     showgrid="false"
     inkscape:pagecheckerboard="true"
     fit-margin-top="0"
     fit-margin-left="0"
     fit-margin-right="0"
     fit-margin-bottom="0"
     inkscape:window-width="1440"
     inkscape:window-height="837"
     inkscape:window-x="1432"
     inkscape:window-y="-8"
     inkscape:window-maximized="1" />
  <metadata
     id="metadata5">
    <rdf:RDF>
      <cc:Work
         rdf:about="">
        <dc:format>image/svg+xml</dc:format>
        <dc:type
           rdf:resource="http://purl.org/dc/dcmitype/StillImage" />
        <dc:title />
      </cc:Work>
    </rdf:RDF>
  </metadata>
  <g
     inkscape:label="Calque 1"
     inkscape:groupmode="layer"
     id="layer1"
     transform="translate(-5.0384521,-20.462549)">
    <g
       aria-label="TogetherProject"
       transform="scale(0.26458333)"
       style="font-style:normal;font-variant:normal;font-weight:bold;font-stretch:normal;font-size:40px;line-height:1.25;font-family:Arial;-inkscape-font-specification:'Arial Bold';letter-spacing:0px;word-spacing:0px;fill:#fffff1;fill-opacity:1;stroke:none"
       id="flowRoot815">
      <path
         d="M 27.539062,105.97158 V 82.182521 h -8.496093 v -4.84375 h 22.753906 v 4.84375 h -8.476563 v 23.789059 z"
         style="font-style:normal;font-variant:normal;font-weight:bold;font-stretch:normal;font-family:Arial;-inkscape-font-specification:'Arial Bold';fill:#fffff1;fill-opacity:1"
         id="path819" />
      <path
         d="m 41.269531,95.307521 q 0,-2.734375 1.347656,-5.292969 1.347657,-2.558594 3.808594,-3.90625 2.480469,-1.347656 5.527344,-1.347656 4.707031,0 7.714844,3.066406 3.007812,3.046875 3.007812,7.714844 0,4.707034 -3.046875,7.812504 -3.027344,3.08593 -7.636719,3.08593 -2.851562,0 -5.449218,-1.28906 -2.578125,-1.28906 -3.925782,-3.76953 -1.347656,-2.500001 -1.347656,-6.074219 z m 5.625,0.292968 q 0,3.085938 1.464844,4.726561 1.464844,1.64063 3.613281,1.64063 2.148438,0 3.59375,-1.64063 1.464844,-1.640623 1.464844,-4.765623 0,-3.046875 -1.464844,-4.6875 -1.445312,-1.640625 -3.59375,-1.640625 -2.148437,0 -3.613281,1.640625 -1.464844,1.640625 -1.464844,4.726562 z"
         style="font-style:normal;font-variant:normal;font-weight:bold;font-stretch:normal;font-family:Arial;-inkscape-font-specification:'Arial Bold';fill:#fffff1;fill-opacity:1"
         id="path821" />
      <path
         d="m 66.484375,107.33877 6.269531,0.76172 q 0.15625,1.09375 0.722656,1.50391 0.78125,0.58593 2.460938,0.58593 2.148437,0 3.222656,-0.64453 0.722656,-0.42969 1.09375,-1.38672 0.253906,-0.68359 0.253906,-2.51953 v -3.02734 q -2.460937,3.35937 -6.210937,3.35937 -4.179688,0 -6.621094,-3.53515 -1.914062,-2.792972 -1.914062,-6.953128 0,-5.214844 2.5,-7.96875 2.519531,-2.753906 6.25,-2.753906 3.847656,0 6.347656,3.378906 v -2.910156 h 5.136719 v 18.613284 q 0,3.67187 -0.605469,5.48828 -0.605469,1.8164 -1.699219,2.85156 -1.09375,1.03516 -2.929687,1.62109 -1.816407,0.58594 -4.609375,0.58594 -5.273438,0 -7.480469,-1.8164 -2.207031,-1.79688 -2.207031,-4.57032 0,-0.27343 0.01953,-0.66406 z m 4.902344,-12.167968 q 0,3.300781 1.269531,4.843748 1.289062,1.52344 3.164062,1.52344 2.011719,0 3.398438,-1.562501 1.386719,-1.582031 1.386719,-4.667968 0,-3.222657 -1.328125,-4.785157 -1.328125,-1.5625 -3.359375,-1.5625 -1.972657,0 -3.261719,1.542969 -1.269531,1.523438 -1.269531,4.667969 z"
         style="font-style:normal;font-variant:normal;font-weight:bold;font-stretch:normal;font-family:Arial;-inkscape-font-specification:'Arial Bold';fill:#fffff1;fill-opacity:1"
         id="path823" />
      <path
         d="m 103.45703,99.370021 5.46875,0.917969 q -1.05469,3.00781 -3.33984,4.58984 -2.26563,1.5625 -5.683596,1.5625 -5.410157,0 -8.007813,-3.53515 -2.050781,-2.83203 -2.050781,-7.148441 0,-5.15625 2.695312,-8.066406 2.695313,-2.929687 6.816407,-2.929687 4.628911,0 7.304691,3.066406 2.67578,3.046875 2.55859,9.355469 h -13.75 q 0.05859,2.441406 1.328125,3.808589 1.269531,1.34766 3.164062,1.34766 1.289063,0 2.167973,-0.70312 0.8789,-0.70313 1.32812,-2.265629 z m 0.3125,-5.546875 q -0.0586,-2.382813 -1.23047,-3.613282 -1.17187,-1.25 -2.85156,-1.25 -1.796875,0 -2.96875,1.308594 -1.171875,1.308594 -1.152344,3.554688 z"
         style="font-style:normal;font-variant:normal;font-weight:bold;font-stretch:normal;font-family:Arial;-inkscape-font-specification:'Arial Bold';fill:#fffff1;fill-opacity:1"
         id="path825" />
      <path
         d="m 123.22266,85.229396 v 4.375 h -3.75 v 8.359375 q 0,2.539059 0.0977,2.968749 0.11719,0.41016 0.48828,0.68359 0.39063,0.27344 0.9375,0.27344 0.76172,0 2.20704,-0.52734 l 0.46875,4.25781 q -1.91407,0.82031 -4.33594,0.82031 -1.48438,0 -2.67578,-0.48828 -1.19141,-0.50781 -1.75782,-1.28906 -0.54687,-0.80078 -0.76171,-2.14844 -0.17579,-0.95703 -0.17579,-3.867186 v -9.042968 h -2.51953 v -4.375 h 2.51953 v -4.121094 l 5.50782,-3.203125 v 7.324219 z"
         style="font-style:normal;font-variant:normal;font-weight:bold;font-stretch:normal;font-family:Arial;-inkscape-font-specification:'Arial Bold';fill:#fffff1;fill-opacity:1"
         id="path827" />
      <path
         d="m 132.53906,77.338771 v 10.527343 q 2.65625,-3.105468 6.34766,-3.105468 1.89453,0 3.41797,0.703125 1.52343,0.703125 2.28515,1.796875 0.78125,1.09375 1.05469,2.421875 0.29297,1.328125 0.29297,4.121093 v 12.167966 h -5.48828 V 95.014552 q 0,-3.261719 -0.3125,-4.140625 -0.3125,-0.878906 -1.11328,-1.386719 -0.78125,-0.527344 -1.97266,-0.527344 -1.36719,0 -2.44141,0.664063 -1.07421,0.664062 -1.58203,2.011719 -0.48828,1.328125 -0.48828,3.945312 v 10.390622 h -5.48828 V 77.338771 Z"
         style="font-style:normal;font-variant:normal;font-weight:bold;font-stretch:normal;font-family:Arial;-inkscape-font-specification:'Arial Bold';fill:#fffff1;fill-opacity:1"
         id="path829" />
      <path
         d="m 163.53516,99.370021 5.46875,0.917969 q -1.05469,3.00781 -3.33985,4.58984 -2.26562,1.5625 -5.68359,1.5625 -5.41016,0 -8.00781,-3.53515 -2.05079,-2.83203 -2.05079,-7.148441 0,-5.15625 2.69532,-8.066406 2.69531,-2.929687 6.8164,-2.929687 4.62891,0 7.30469,3.066406 2.67578,3.046875 2.55859,9.355469 h -13.75 q 0.0586,2.441406 1.32813,3.808589 1.26953,1.34766 3.16406,1.34766 1.28906,0 2.16797,-0.70312 0.87891,-0.70313 1.32813,-2.265629 z m 0.3125,-5.546875 q -0.0586,-2.382813 -1.23047,-3.613282 -1.17188,-1.25 -2.85157,-1.25 -1.79687,0 -2.96875,1.308594 -1.17187,1.308594 -1.15234,3.554688 z"
         style="font-style:normal;font-variant:normal;font-weight:bold;font-stretch:normal;font-family:Arial;-inkscape-font-specification:'Arial Bold';fill:#fffff1;fill-opacity:1"
         id="path831" />
      <path
         d="m 179.04297,105.97158 h -5.48828 V 85.229396 h 5.09765 v 2.949218 q 1.3086,-2.089843 2.34375,-2.753906 1.05469,-0.664062 2.38282,-0.664062 1.875,0 3.61328,1.035156 l -1.69922,4.785156 q -1.38672,-0.898437 -2.57813,-0.898437 -1.15234,0 -1.95312,0.644531 -0.80078,0.625 -1.26953,2.285156 -0.44922,1.660156 -0.44922,6.953125 z"
         style="font-style:normal;font-variant:normal;font-weight:bold;font-stretch:normal;font-family:Arial;-inkscape-font-specification:'Arial Bold';fill:#fffff1;fill-opacity:1"
         id="path833" />
      <path
         d="M 189.375,105.97158 V 77.338771 h 9.27734 q 5.27344,0 6.875,0.429687 2.46094,0.644531 4.1211,2.8125 1.66015,2.148438 1.66015,5.566406 0,2.636719 -0.95703,4.433594 -0.95703,1.796875 -2.4414,2.832031 -1.46485,1.015625 -2.98829,1.347657 -2.07031,0.410156 -5.99609,0.410156 h -3.76953 v 10.800778 z m 5.78125,-23.789059 v 8.125 h 3.16406 q 3.41797,0 4.57031,-0.449219 1.15235,-0.449219 1.79688,-1.40625 0.66406,-0.957031 0.66406,-2.226563 0,-1.5625 -0.91797,-2.578125 -0.91797,-1.015625 -2.32422,-1.269531 -1.03515,-0.195312 -4.16015,-0.195312 z"
         style="font-style:normal;font-variant:normal;font-weight:bold;font-stretch:normal;font-family:Arial;-inkscape-font-specification:'Arial Bold';fill:#fffff1;fill-opacity:1"
         id="path835" />
      <path
         d="m 221.30859,105.97158 h -5.48828 V 85.229396 h 5.09766 v 2.949218 q 1.30859,-2.089843 2.34375,-2.753906 1.05469,-0.664062 2.38281,-0.664062 1.875,0 3.61328,1.035156 l -1.69922,4.785156 q -1.38672,-0.898437 -2.57812,-0.898437 -1.15235,0 -1.95313,0.644531 -0.80078,0.625 -1.26953,2.285156 -0.44922,1.660156 -0.44922,6.953125 z"
         style="font-style:normal;font-variant:normal;font-weight:bold;font-stretch:normal;font-family:Arial;-inkscape-font-specification:'Arial Bold';fill:#fffff1;fill-opacity:1"
         id="path837" />
      <path
         d="m 230.33203,95.307521 q 0,-2.734375 1.34766,-5.292969 1.34765,-2.558594 3.80859,-3.90625 2.48047,-1.347656 5.52734,-1.347656 4.70704,0 7.71485,3.066406 3.00781,3.046875 3.00781,7.714844 0,4.707034 -3.04687,7.812504 -3.02735,3.08593 -7.63672,3.08593 -2.85157,0 -5.44922,-1.28906 -2.57813,-1.28906 -3.92578,-3.76953 -1.34766,-2.500001 -1.34766,-6.074219 z m 5.625,0.292968 q 0,3.085938 1.46484,4.726561 1.46485,1.64063 3.61329,1.64063 2.14843,0 3.59375,-1.64063 1.46484,-1.640623 1.46484,-4.765623 0,-3.046875 -1.46484,-4.6875 -1.44532,-1.640625 -3.59375,-1.640625 -2.14844,0 -3.61329,1.640625 -1.46484,1.640625 -1.46484,4.726562 z"
         style="font-style:normal;font-variant:normal;font-weight:bold;font-stretch:normal;font-family:Arial;-inkscape-font-specification:'Arial Bold';fill:#fffff1;fill-opacity:1"
         id="path839" />
      <path
         d="m 255.9375,82.416896 v -5.078125 h 5.48828 v 5.078125 z m 5.48828,2.8125 v 20.097654 q 0,3.96485 -0.52734,5.58594 -0.50782,1.64062 -1.99219,2.55859 -1.46484,0.91797 -3.75,0.91797 -0.82031,0 -1.77734,-0.15625 -0.9375,-0.13672 -2.03125,-0.42969 l 0.95703,-4.6875 q 0.39062,0.0781 0.74218,0.11719 0.33204,0.0586 0.625,0.0586 0.83985,0 1.36719,-0.3711 0.54688,-0.35156 0.72266,-0.85937 0.17578,-0.50782 0.17578,-3.04688 V 85.229396 Z"
         style="font-style:normal;font-variant:normal;font-weight:bold;font-stretch:normal;font-family:Arial;-inkscape-font-specification:'Arial Bold';fill:#fffff1;fill-opacity:1"
         id="path841" />
      <path
         d="m 279.16016,99.370021 5.46875,0.917969 q -1.05469,3.00781 -3.33985,4.58984 -2.26562,1.5625 -5.68359,1.5625 -5.41016,0 -8.00781,-3.53515 -2.05079,-2.83203 -2.05079,-7.148441 0,-5.15625 2.69532,-8.066406 2.69531,-2.929687 6.8164,-2.929687 4.62891,0 7.30469,3.066406 2.67578,3.046875 2.55859,9.355469 h -13.75 q 0.0586,2.441406 1.32813,3.808589 1.26953,1.34766 3.16406,1.34766 1.28906,0 2.16797,-0.70312 0.87891,-0.70313 1.32813,-2.265629 z m 0.3125,-5.546875 q -0.0586,-2.382813 -1.23047,-3.613282 -1.17188,-1.25 -2.85157,-1.25 -1.79687,0 -2.96875,1.308594 -1.17187,1.308594 -1.15234,3.554688 z"
         style="font-style:normal;font-variant:normal;font-weight:bold;font-stretch:normal;font-family:Arial;-inkscape-font-specification:'Arial Bold';fill:#fffff1;fill-opacity:1"
         id="path843" />
      <path
         d="m 307.5,91.362208 -5.41016,0.976563 q -0.27343,-1.621094 -1.25,-2.441407 -0.95703,-0.820312 -2.5,-0.820312 -2.05078,0 -3.28125,1.425781 -1.21093,1.40625 -1.21093,4.726563 0,3.691406 1.23046,5.214844 1.25,1.52344 3.33985,1.52344 1.5625,0 2.55859,-0.87891 0.9961,-0.89844 1.40625,-3.066406 l 5.39063,0.917969 q -0.83985,3.710937 -3.22266,5.605467 -2.38281,1.89453 -6.38672,1.89453 -4.55078,0 -7.26562,-2.87109 -2.69532,-2.87109 -2.69532,-7.949219 0,-5.136719 2.71485,-7.988282 2.71484,-2.871093 7.34375,-2.871093 3.78906,0 6.01562,1.640625 2.2461,1.621093 3.22266,4.960937 z"
         style="font-style:normal;font-variant:normal;font-weight:bold;font-stretch:normal;font-family:Arial;-inkscape-font-specification:'Arial Bold';fill:#fffff1;fill-opacity:1"
         id="path845" />
      <path
         d="m 321.19141,85.229396 v 4.375 h -3.75 v 8.359375 q 0,2.539059 0.0976,2.968749 0.11719,0.41016 0.48828,0.68359 0.39063,0.27344 0.9375,0.27344 0.76172,0 2.20703,-0.52734 l 0.46875,4.25781 q -1.91406,0.82031 -4.33593,0.82031 -1.48438,0 -2.67578,-0.48828 -1.19141,-0.50781 -1.75782,-1.28906 -0.54687,-0.80078 -0.76172,-2.14844 -0.17578,-0.95703 -0.17578,-3.867186 v -9.042968 h -2.51953 v -4.375 h 2.51953 v -4.121094 l 5.50782,-3.203125 v 7.324219 z"
         style="font-style:normal;font-variant:normal;font-weight:bold;font-stretch:normal;font-family:Arial;-inkscape-font-specification:'Arial Bold';fill:#fffff1;fill-opacity:1"
         id="path847" />
    </g>
  </g>
</svg>
