<?xml version="1.0" encoding="UTF-8" standalone="no"?>
<!-- Generator: Adobe Illustrator 19.0.0, SVG Export Plug-In . SVG Version: 6.00 Build 0)  -->

<svg
   xmlns:dc="http://purl.org/dc/elements/1.1/"
   xmlns:cc="http://creativecommons.org/ns#"
   xmlns:rdf="http://www.w3.org/1999/02/22-rdf-syntax-ns#"
   xmlns:svg="http://www.w3.org/2000/svg"
   xmlns="http://www.w3.org/2000/svg"
   xmlns:sodipodi="http://sodipodi.sourceforge.net/DTD/sodipodi-0.dtd"
   xmlns:inkscape="http://www.inkscape.org/namespaces/inkscape"
   version="1.1"
   id="Layer_1"
   x="0px"
   y="0px"
   viewBox="0 0 455.00739 101.79968"
   xml:space="preserve"
   sodipodi:docname="logo-dashboard.svg"
   inkscape:version="0.92.2 (5c3e80d, 2017-08-06)"
   width="455.00739"
   height="101.79968"><metadata
     id="metadata49"><rdf:RDF><cc:Work
         rdf:about=""><dc:format>image/svg+xml</dc:format><dc:type
           rdf:resource="http://purl.org/dc/dcmitype/StillImage" /><dc:title></dc:title></cc:Work></rdf:RDF></metadata><defs
     id="defs47" /><sodipodi:namedview
     pagecolor="#ffffff"
     bordercolor="#666666"
     borderopacity="1"
     objecttolerance="10"
     gridtolerance="10"
     guidetolerance="10"
     inkscape:pageopacity="0"
     inkscape:pageshadow="2"
     inkscape:window-width="1440"
     inkscape:window-height="837"
     id="namedview45"
     showgrid="false"
     inkscape:zoom="1.0327273"
     inkscape:cx="243.51487"
     inkscape:cy="41.523371"
     inkscape:window-x="1432"
     inkscape:window-y="-8"
     inkscape:window-maximized="1"
     inkscape:current-layer="XMLID_5_"
     fit-margin-top="0"
     fit-margin-left="0"
     fit-margin-right="0"
     fit-margin-bottom="0" /><style
     type="text/css"
     id="style2">
	.st0{fill:#0375B4;}
	.st1{fill:#FFBA00;}
	.st2{fill:none;stroke:#FFFFFF;stroke-width:6;stroke-linecap:round;stroke-linejoin:round;stroke-miterlimit:10;}
	.st3{fill:#FFFFFF;}
</style><path
     id="XMLID_58_"
     class="st2"
     d="M -358.6474,-222.60016"
     inkscape:connector-curvature="0"
     style="fill:none;stroke:#ffffff;stroke-width:6;stroke-linecap:round;stroke-linejoin:round;stroke-miterlimit:10" /><g
     id="g4680"
     transform="translate(-48.647404,-143.23819)"><g
       transform="translate(10.496131,10.376007)"
       id="XMLID_32_"><g
         id="XMLID_3_-7"
         transform="translate(549.45514,-1.2381389)"><g
           id="XMLID_6_-3"><path
             style="fill:#ffba00"
             d="m -483.1,152.9 c 0.2,0.6 0.5,1.3 0.7,1.9 0.2,0.7 0.5,1.3 0.7,2 0.3,0.9 0.6,1.7 0.9,2.6 1.7,-0.7 3.4,-1.2 5.2,-1.6 0,-1.6 0,-3.2 0,-4.8 0,-0.8 0,-1.5 0,-2.3 -2.6,0.5 -5.1,1.2 -7.5,2.2 z"
             class="st1"
             id="XMLID_7_-4"
             inkscape:connector-curvature="0" /><path
             style="fill:#ffba00"
             d="m -466.9,156.9 c 0,-0.1 0,-0.1 0,0 -0.1,-2.4 -0.1,-4.7 -0.1,-6.9 -0.2,0 -0.3,0 -0.5,0 -1.8,0 -3.5,0.1 -5.2,0.3 0,0.9 0,1.9 0,2.8 0,1.4 0,2.8 0,4.2 1.7,-0.3 3.5,-0.4 5.3,-0.4 0.1,-0.1 0.3,-0.1 0.5,0 z"
             class="st1"
             id="XMLID_12_-5"
             inkscape:connector-curvature="0" /><path
             style="fill:#ffba00"
             d="m -484.4,157.7 c -0.2,-0.7 -0.5,-1.3 -0.7,-2 -0.2,-0.6 -0.4,-1.2 -0.6,-1.8 -1.5,0.7 -3,1.5 -4.5,2.4 0,0.1 0.1,0.1 0.1,0.2 0.3,0.7 0.6,1.4 0.8,2.1 0.3,0.9 0.6,1.7 0.8,2.6 0.1,0.5 0.3,0.9 0.4,1.4 0.1,0.2 0.1,0.4 0.2,0.6 1.4,-1 2.9,-1.9 4.5,-2.6 -0.4,-1 -0.7,-2 -1,-2.9 z"
             class="st1"
             id="XMLID_13_-1"
             inkscape:connector-curvature="0" /><path
             style="fill:#ffba00"
             d="m -504.1,174.5 c 1.1,1.2 2.2,2.5 3.5,4 0.6,-1.4 1.3,-2.8 2.1,-4.1 -0.7,-0.7 -1.4,-1.3 -2,-2 -0.5,-0.5 -1,-1 -1.4,-1.4 -0.5,-0.5 -1,-1.1 -1.6,-1.6 -0.7,1.1 -1.4,2.3 -2.1,3.5 0,0 0.1,0.1 0.1,0.1 0.5,0.5 1,1 1.4,1.5 z"
             class="st1"
             id="XMLID_14_-5"
             inkscape:connector-curvature="0" /><path
             style="fill:#ffba00"
             d="m -424.6,189.1 c -0.1,0 -0.1,0.1 -0.2,0.1 l -0.9,0.6 c -1.5,0.9 -3,1.9 -4.5,2.9 -0.4,0.3 -0.8,0.6 -1.2,0.8 -0.1,3 -0.5,6 -1.2,8.8 0.4,-0.3 0.7,-0.5 1.1,-0.8 0.9,-0.6 1.7,-1.3 2.6,-2 0.8,-0.6 1.6,-1.3 2.4,-2 0.6,-0.5 1.3,-1.1 1.9,-1.6 0.1,-0.1 0.1,-0.1 0.2,-0.2 0.1,-0.9 0.1,-1.9 0.1,-2.8 -0.2,-1.2 -0.2,-2.5 -0.3,-3.8 z"
             class="st1"
             id="XMLID_15_-9"
             inkscape:connector-curvature="0" /><path
             style="fill:#ffba00"
             d="m -427.2,201.8 c -0.9,0.7 -1.8,1.4 -2.6,2 -1.1,0.8 -2.3,1.7 -3.3,2.6 -0.4,0.4 -0.9,0.8 -1.3,1.2 -5.6,12.6 -18.3,21.4 -33,21.4 -19.9,0 -36.1,-16.2 -36.1,-36.1 0,-4 0.6,-7.8 1.8,-11.4 -0.2,-0.3 -0.5,-0.5 -0.7,-0.8 -1.4,-1.6 -2.6,-3 -3.8,-4.3 -0.2,-0.3 -0.5,-0.5 -0.7,-0.8 -2.3,5.3 -3.6,11.1 -3.6,17.3 0,23.7 19.3,43 43,43 21.3,0 39.1,-15.6 42.5,-36 -0.7,0.7 -1.5,1.3 -2.2,1.9 z"
             class="st1"
             id="XMLID_16_-1"
             inkscape:connector-curvature="0" /><path
             style="fill:#ffba00"
             d="m -499.9,169 c 0.5,0.5 0.9,0.9 1.4,1.4 0.5,0.5 1.1,1.1 1.6,1.6 1.9,-2.6 4.1,-4.9 6.5,-7 0,-0.1 -0.1,-0.2 -0.1,-0.4 -0.1,-0.4 -0.2,-0.8 -0.4,-1.2 -0.1,-0.5 -0.3,-0.9 -0.4,-1.4 -0.3,-0.8 -0.5,-1.6 -0.8,-2.4 -0.2,-0.5 -0.4,-1.1 -0.6,-1.6 -3.5,2.5 -6.6,5.6 -9.2,9 0.7,0.7 1.4,1.4 2,2 z"
             class="st1"
             id="XMLID_17_-2"
             inkscape:connector-curvature="0" /><path
             style="fill:#ffba00"
             d="m -447.8,157.6 c -0.1,1.3 -0.2,2.6 -0.4,3.9 0,0.3 -0.1,0.6 -0.1,0.8 9.4,5.9 15.9,16.1 16.8,27.8 1.4,-1 2.8,-1.9 4.2,-2.8 l 0.9,-0.6 c 0.4,-0.3 0.9,-0.5 1.4,-0.8 -2.2,-13.6 -10.7,-25.1 -22.5,-31.2 -0.1,1.1 -0.2,2 -0.3,2.9 z"
             class="st1"
             id="XMLID_18_-5"
             inkscape:connector-curvature="0" /><path
             style="fill:#ffba00"
             d="m -464.2,150 c 0,2.2 0.1,4.4 0.1,6.6 0,0.1 0,0.2 0,0.3 1.5,0.1 2.9,0.4 4.3,0.7 0.2,-0.8 0.4,-1.5 0.6,-2.3 v 0 c 0.2,-1 0.5,-1.9 0.6,-2.8 0.1,-0.5 0.2,-1.1 0.3,-1.6 -1.8,-0.4 -3.8,-0.7 -5.9,-0.9 z"
             class="st1"
             id="XMLID_19_-3"
             inkscape:connector-curvature="0" /><path
             style="fill:#ffba00"
             d="m -450.6,157.3 c 0.1,-1 0.2,-1.9 0.3,-2.9 0,-0.3 0.1,-0.6 0.1,-0.9 -1.7,-0.7 -3.4,-1.4 -5.2,-1.9 -0.1,0.5 -0.2,1 -0.2,1.5 -0.2,1 -0.4,2 -0.7,3 v 0 c -0.2,0.7 -0.4,1.5 -0.6,2.3 2.1,0.6 4.1,1.5 6,2.4 0.1,-1.1 0.2,-2.3 0.3,-3.5 z"
             class="st1"
             id="XMLID_20_-7"
             inkscape:connector-curvature="0" /></g><path
           style="fill:#ffba00"
           d="m -412.5,188.6 c -0.3,-0.5 -0.8,-1.1 -1.3,-1.4 -1.3,-0.8 -2.7,-1.1 -4.2,-1.3 -0.6,-0.1 -1.2,0.2 -1.8,0.2 -2.1,0.1 -4,0.8 -5.8,2 -1.8,1.2 -3.7,2.3 -5.5,3.6 -1.7,1.2 -3.5,2.3 -5.4,3.3 -1.7,0.8 -3.5,1.3 -5.4,1.3 -2.4,0 -4.3,-1 -5.8,-2.8 -1.5,-1.7 -2.3,-3.8 -2.9,-5.9 -0.4,-1.6 -0.7,-3.4 -0.9,-5.1 -0.2,-1.5 -0.4,-3.1 -0.3,-4.6 0.1,-2.3 0.5,-4.6 0.8,-7 0.1,-1.2 0.3,-2.4 0.4,-3.6 0.3,-2 0.7,-4 0.9,-6 0.3,-2.3 0.4,-4.5 0.7,-6.8 0.1,-1.3 0.4,-2.6 0.5,-3.9 0.2,-2 0.2,-4 0.3,-6 0,-1.2 -0.2,-2.4 -0.8,-3.5 -0.9,-1.8 -3,-2.3 -4.7,-0.9 -0.9,0.9 -1.4,2 -1.7,3.2 -0.4,1.6 -0.8,3.3 -1.1,4.9 -0.3,1.5 -0.5,3 -0.7,4.5 -0.2,1 -0.4,2 -0.7,2.9 -0.4,1.6 -0.8,3.2 -1.3,4.9 -0.5,1.7 -1,3.3 -1.4,5 -0.4,1.5 -0.8,2.9 -1.3,4.4 -0.4,1.1 -0.8,2.2 -1.2,3.3 -0.1,0.4 -0.4,0.7 -0.8,0.7 -0.5,-0.1 -0.6,-0.5 -0.6,-1 -0.2,-2.6 -0.3,-5.2 -0.5,-7.8 -0.2,-2.8 -0.4,-5.6 -0.5,-8.4 -0.1,-4.9 -0.2,-9.8 -0.3,-14.7 0,-2.2 -0.3,-4.3 -1.2,-6.3 -0.7,-1.5 -3.2,-2.2 -4.6,-1.3 -1.5,0.9 -2.4,2.4 -2.5,4 -0.2,2.5 0,5 -0.1,7.5 0,5.2 -0.1,10.4 -0.1,15.6 0,3.1 0,6.3 0,9.4 0,0.8 -0.3,1.6 -0.4,2.4 -0.1,0.5 -0.4,0.4 -0.7,0.2 -0.3,-0.2 -0.5,-0.4 -0.7,-0.6 -0.6,-1.1 -1.3,-2.2 -1.9,-3.3 -0.7,-1.5 -1.4,-2.9 -2,-4.4 -0.7,-1.5 -1.3,-3.1 -1.9,-4.6 -0.7,-1.8 -1.3,-3.6 -1.9,-5.4 -0.7,-1.9 -1.3,-3.7 -2,-5.6 -0.5,-1.4 -1,-2.8 -1.5,-4.2 -0.2,-0.5 -0.5,-1 -0.9,-1.4 -0.8,-0.9 -3,-1.2 -4,-0.6 -0.1,0 -0.1,0.1 -0.2,0.2 -1,0.8 -1.4,1.9 -1.5,3.2 -0.1,1.9 0.2,3.8 0.8,5.6 0.3,1 0.6,2 0.9,2.9 0.5,1.3 1,2.5 1.5,3.8 0.5,1.3 0.8,2.6 1.2,3.9 0.5,1.5 0.9,3.1 1.5,4.6 0.5,1.2 1,2.4 1.5,3.6 0.6,1.6 1.3,3.1 1.7,4.7 0.4,1.4 0.5,3 0.7,4.4 0.1,0.4 -0.1,0.7 -0.6,0.9 -0.5,0.3 -0.8,0 -1.1,-0.1 -0.7,-0.1 -1.4,-0.2 -2,-0.5 -1.1,-0.5 -2.1,-1 -3.1,-1.6 -1.1,-0.7 -2.1,-1.5 -3.1,-2.3 -0.8,-0.6 -1.5,-1.4 -2.2,-2.1 -1.1,-1.1 -2.3,-2.2 -3.4,-3.3 -1.2,-1.2 -2.4,-2.4 -3.6,-3.6 -1,-1 -2.1,-2 -3.2,-2.9 -0.7,-0.5 -1.5,-0.9 -2.2,-1.2 -0.8,-0.3 -1.6,-0.1 -2,0.6 -0.7,0.9 -0.9,2 -0.5,3.1 0.4,1.2 0.9,2.3 1.6,3.2 0.5,0.7 1,1.4 1.6,2 0.9,1 1.8,1.9 2.7,2.8 1.3,1.4 2.5,2.9 3.8,4.3 1,1.2 2,2.4 2.9,3.6 0.6,0.7 1.1,1.5 1.6,2.2 0.8,1.1 1.6,2.2 2.3,3.4 0.6,0.9 1,2 1.6,2.9 0.9,1.5 1.7,3 2.1,4.7 0.5,1.9 0.9,3.8 1.3,5.7 0.3,1.5 0.5,3 0.7,4.5 0.3,1.6 0.7,3.2 1.4,4.7 0.7,1.6 1.4,3.3 2,4.9 0.7,1.9 1.4,3.7 1.9,5.6 0.5,2.3 0.9,4.6 1,6.9 0,0.8 0.1,1.5 0.1,2.3 4.5,-0.5 9.2,-0.7 13.9,-0.5 5.8,0 11.5,0.4 17,1.3 0,-0.3 0,-0.5 0,-0.8 0.1,-2.2 0.5,-4.5 0.7,-6.7 0.1,-1.5 1,-2.5 1.8,-3.6 1.2,-1.4 2.3,-2.8 3.5,-4.3 1,-1.2 1.9,-2.4 2.9,-3.5 1.1,-1.1 2.3,-2 3.4,-3.1 1.7,-1.6 3.4,-3.2 5.1,-4.7 1.9,-1.6 4,-3.1 6,-4.7 1.5,-1.2 2.8,-2.5 4.3,-3.7 1.1,-0.9 2.3,-2 3.5,-2.7 1.4,-0.8 2.9,-1.4 4.4,-2.1 0.9,-0.5 1.9,-1 2.8,-1.5 0.8,-0.3 1.1,-1.3 0.7,-1.9 z m -39.2,14.7 c -1,2.2 -2.5,4.2 -4.1,6.1 -3.4,4 -7.1,7.6 -11,11 0,0 -0.1,0.1 -0.2,0.1 -2.9,-2.5 -5.6,-5.1 -8.2,-7.9 -2.1,-2.2 -4.1,-4.6 -5.7,-7.1 -1.1,-1.7 -2,-3.4 -2.4,-5.3 -0.4,-1.9 -0.4,-3.9 0.4,-5.7 1.1,-2.6 3.3,-4 6,-4.6 1.9,-0.4 3.7,-0.3 5.4,0.5 0.9,0.4 1.6,1.1 2.3,1.8 0.8,0.9 1.5,1.9 2.1,2.9 0.1,0.1 0.1,0.2 0.2,0.4 0.1,-0.2 0.2,-0.3 0.2,-0.4 0.6,-0.9 1.2,-1.8 1.9,-2.7 1.5,-1.9 3.6,-2.7 6,-2.7 2,-0.1 3.8,0.5 5.5,1.6 2,1.4 3,3.4 3.2,5.8 0.1,2.2 -0.7,4.2 -1.6,6.2 z"
           class="st1"
           id="XMLID_11_-6"
           inkscape:connector-curvature="0" /></g></g><g
       transform="translate(9.654792,12.588028)"
       id="XMLID_5_"><g
         id="XMLID_79_"
         style="fill:#0375b4;fill-opacity:1"><path
           style="fill:#0375b4;fill-opacity:1"
           inkscape:connector-curvature="0"
           d="m 147.2,165 h 11.5 l 10.2,33.9 10.2,-33.9 h 11.5 l -12.9,39.7 c -1.2,3.8 -4.8,6.4 -8.8,6.4 v 0 c -4,0 -7.6,-2.6 -8.8,-6.4 z"
           class="st3"
           id="XMLID_80_" /><path
           style="fill:#0375b4;fill-opacity:1"
           inkscape:connector-curvature="0"
           d="m 188.7,194.7 c 0,-9.8 7.8,-17.4 17.5,-17.4 9.7,0 17.5,7.6 17.5,17.4 0,9.8 -7.8,17.4 -17.5,17.4 -9.8,-0.1 -17.5,-7.6 -17.5,-17.4 z m 25,0 c 0,-4.7 -3.3,-7.8 -7.6,-7.8 -4.3,0 -7.6,3.1 -7.6,7.8 0,4.7 3.3,7.8 7.6,7.8 4.3,0 7.6,-3.2 7.6,-7.8 z"
           class="st3"
           id="XMLID_82_" /><path
           style="fill:#0375b4;fill-opacity:1"
           inkscape:connector-curvature="0"
           d="m 229.2,163 h 9.9 v 43.1 c 0,2.7 -2.2,4.9 -4.9,4.9 v 0 c -2.7,0 -4.9,-2.2 -4.9,-4.9 V 163 Z"
           class="st3"
           id="XMLID_85_" /><path
           style="fill:#0375b4;fill-opacity:1"
           inkscape:connector-curvature="0"
           d="m 244.7,194.7 c 0,-9.8 7.8,-17.4 17.5,-17.4 9.7,0 17.5,7.6 17.5,17.4 0,9.8 -7.8,17.4 -17.5,17.4 -9.8,-0.1 -17.5,-7.6 -17.5,-17.4 z m 25,0 c 0,-4.7 -3.3,-7.8 -7.6,-7.8 -4.3,0 -7.6,3.1 -7.6,7.8 0,4.7 3.3,7.8 7.6,7.8 4.3,-0.1 7.6,-3.2 7.6,-7.8 z"
           class="st3"
           id="XMLID_87_" /><path
           style="fill:#0375b4;fill-opacity:1"
           inkscape:connector-curvature="0"
           d="m 316.8,190.9 v 15.3 c 0,2.7 -2.2,4.9 -4.9,4.9 v 0 c -2.7,0 -4.9,-2.2 -4.9,-4.9 v -13.8 c 0,-4.1 -2.6,-6 -5.7,-6 -3.6,0 -6.1,2.1 -6.1,6.8 v 13 c 0,2.7 -2.2,4.9 -4.9,4.9 v 0 c -2.7,0 -4.9,-2.2 -4.9,-4.9 v -28 h 9.9 v 3.1 c 1.8,-2.4 5.1,-4 9.4,-4 6.4,0 12.1,4.7 12.1,13.6 z"
           class="st3"
           id="XMLID_90_" /><path
           style="fill:#0375b4;fill-opacity:1"
           inkscape:connector-curvature="0"
           d="m 336.1,187.7 v 11.7 c 0,2.8 2.4,3.1 6.8,2.8 v 9 c -12.9,1.3 -16.7,-2.6 -16.7,-11.8 v -11.7 h -5.3 v -9.5 h 5.3 v -6.3 l 9.9,-3 v 9.2 h 6.8 v 9.5 h -6.8 z"
           class="st3"
           id="XMLID_92_" /><path
           style="fill:#0375b4;fill-opacity:1"
           inkscape:connector-curvature="0"
           d="m 381.6,178.2 v 23.4 c 0,5.3 -4.3,9.6 -9.6,9.6 h -0.3 V 208 c -2.2,2.5 -5.4,4 -9.8,4 -8.6,0 -15.7,-7.6 -15.7,-17.4 0,-9.8 7.1,-17.4 15.7,-17.4 4.4,0 7.6,1.5 9.8,4 v -3.1 h 9.9 z m -9.9,16.5 c 0,-4.9 -3.3,-8 -7.8,-8 -4.5,0 -7.8,3.1 -7.8,8 0,4.9 3.3,8 7.8,8 4.5,0 7.8,-3.1 7.8,-8 z"
           class="st3"
           id="XMLID_94_" /><path
           style="fill:#0375b4;fill-opacity:1"
           inkscape:connector-curvature="0"
           d="m 408.6,177.5 v 11.2 c -4.1,-0.7 -9.9,1 -9.9,7.5 v 9.9 c 0,2.7 -2.2,4.9 -4.9,4.9 v 0 c -2.7,0 -4.9,-2.2 -4.9,-4.9 v -28 h 9.9 v 5.9 c 1.3,-4.4 5.7,-6.5 9.8,-6.5 z"
           class="st3"
           id="XMLID_97_" /><path
           style="fill:#0375b4;fill-opacity:1"
           inkscape:connector-curvature="0"
           d="m 412.2,169.4 c 0,-3.2 2.7,-5.9 5.9,-5.9 3.2,0 5.9,2.7 5.9,5.9 0,3.2 -2.7,5.9 -5.9,5.9 -3.2,0 -5.9,-2.7 -5.9,-5.9 z m 1,8.8 h 9.9 v 28 c 0,2.7 -2.2,4.9 -4.9,4.9 v 0 c -2.7,0 -4.9,-2.2 -4.9,-4.9 v -28 z"
           class="st3"
           id="XMLID_99_" /><path
           style="fill:#0375b4;fill-opacity:1"
           inkscape:connector-curvature="0"
           d="m 461.5,178.2 v 25.2 c 0,4.3 -3.5,7.8 -7.8,7.8 h -2.1 V 208 c -1.8,2.4 -5.1,4 -9.4,4 -6.7,0 -12.3,-4.7 -12.3,-13.6 v -20.2 h 9.9 V 197 c 0,4.1 2.6,6 5.7,6 3.6,0 6.1,-2.1 6.1,-6.8 v -18 z"
           class="st3"
           id="XMLID_102_" /><path
           style="fill:#0375b4;fill-opacity:1"
           inkscape:connector-curvature="0"
           d="m 494,201.2 c 0,7.6 -6.6,10.8 -13.7,10.8 -6.6,0 -11.6,-2.5 -14.2,-7.8 l 8.6,-4.9 c 0.9,2.5 2.7,3.9 5.6,3.9 2.4,0 3.6,-0.7 3.6,-2 0,-3.6 -16.2,-1.7 -16.2,-13.1 0,-7.2 6.1,-10.8 12.9,-10.8 5.3,0 10.1,2.4 12.8,7 l -8.4,4.5 c -0.9,-1.7 -2.2,-2.9 -4.4,-2.9 -1.7,0 -2.8,0.7 -2.8,1.8 0,3.9 16.2,1.4 16.2,13.5 z"
           class="st3"
           id="XMLID_104_" /></g><g
         id="XMLID_78_" /></g></g><path
     id="XMLID_123_"
     d="m -80.647404,-306.10016 c -0.3,0.2 -0.5,0.5 -0.7,0.5 -0.3,0 -0.6,-0.1 -0.9,-0.1 0,-0.2 0.1,-0.5 0.1,-0.5 0.5,0 0.9,0 1.5,0.1 z"
     inkscape:connector-curvature="0" /></svg>