<svg xmlns="http://www.w3.org/2000/svg" xmlns:xlink="http://www.w3.org/1999/xlink" width="562.726" height="619.416" viewBox="0 0 562.726 619.416">
  <defs>
    <linearGradient id="linear-gradient" x1="0.5" y1="1" x2="0.5" gradientUnits="objectBoundingBox">
      <stop offset="0" stop-color="gray" stop-opacity="0.251"/>
      <stop offset="0.54" stop-color="gray" stop-opacity="0.122"/>
      <stop offset="1" stop-color="gray" stop-opacity="0.102"/>
    </linearGradient>
  </defs>
  <g id="undraw_messaging_uok8_1_" data-name="undraw_messaging_uok8 (1)" transform="translate(-228 -42.885)">
    <path id="Path_964" data-name="Path 964" d="M792.3,198.694q-.727-.817-1.5-1.635c3.948-4.479,8.044-9.082,8-14.844-.041-7-6.253-12.376-8.575-18.989-3.155-8.992,1.226-18.654,3.024-28.021A52.544,52.544,0,0,0,781.85,91.979c-1.823-2.158-3.94-4.242-6.662-5.1-4.136-1.3-8.526.507-12.834,1.038-14.215,1.757-27.138-10.488-41.419-9.392a7.7,7.7,0,0,0-2.747.613c-1.847.883-2.853,2.836-3.989,4.512-4.439,6.539-11.885,9.809-19.291,13.12a10.087,10.087,0,0,0-2.632,1.21c-2.223,1.038-4.414,2.117-6.482,3.343-13.994,8.281-11.959,19.872-3.711,27.024-1.635,8.035-9.809,15.106-8.411,23.37,1.112,6.474,7.855,10.88,9.155,17.321.752,3.744-.433,7.308-2.084,10.847-15.654,3.621-33.343,10.3-34.724,22.07-2.4,20.485-9.629,77.067-9.629,77.067S628,324.34,659.809,302.875l-.409,1.21a263.706,263.706,0,0,0-11.681,53.435c-.319,2.706-.973,4.831-2.15,5.526-.425.253.417.654,2.256,1.153-.2.76-.433,1.52-.629,2.289a217.153,217.153,0,0,0-6.67,40.471,284.659,284.659,0,0,1-5,36.04c-7.537,37.912,0,86.549,0,86.549l16.447,77.426,2.812,13.234a19.668,19.668,0,0,0,6.662,4.806,103.2,103.2,0,0,1,2.289,14.411c.041.539.082,1.087.115,1.635a6.874,6.874,0,0,0-4.9,3.049c-5.861,8.24.818,14.836-21.768,31.324-5.845,4.259-8.656,8.133-9.376,11.444h0c-.768,3.539.9,6.409,3.883,8.346h0a14.135,14.135,0,0,0,1.586.883h0q.417.2.817.376h0q.433.18.891.335h.049l.875.278h.065l.94.245h.082l.883.188h.115l.973.164h.106l.883.106h.172l.989.074h2.346l.883-.049h.237l1-.1h.115l.891-.131.245-.041.989-.188h.1l.9-.221.253-.065c.327-.09.646-.18.973-.286h.057l.907-.319.245-.09c.319-.123.629-.245.94-.384,15.073-6.6,46.054-23.9,46.054-23.9v-3.27h0c-.09-7.1-.826-23.681-4.1-23.035-1.12.221-1.88,1.79-2.657,3.6l-.384-.736c-3.188-6.155-7.806-16.716-8.256-27.04a48.392,48.392,0,0,0,7.12-6.311s-1.684-7.087-3.114-14.567c-1.242-6.482-2.3-13.25-1.913-15.932.817-5.771-10.046-50.28-10.046-50.28s1.12-9.809,3.376-23.4c4.381-26.452,13.005-67.323,25.872-78.882.3-.262.6-.523.9-.752,0,0,9.212,1.635,16.749,53.574l2.183,23.125a134.213,134.213,0,0,0,3.27,19.005,100.177,100.177,0,0,1,2.1,30.4c-.956,13.635-1.365,29.681-1.537,40.945-.131,8.493-.131,14.272-.131,14.272a31.605,31.605,0,0,0,5.027,3.474v7.561a6.294,6.294,0,0,1-1.766,4.3h0a11.675,11.675,0,0,0-2.526,4.651c-1.463,2.632-2.7,6.907-3.213,13.782-1.635,22.258-2.51,19.782-2.51,19.782a29.346,29.346,0,0,0-1.9,7.5h0c-.049.482-.074.965-.09,1.455v1.218a4.341,4.341,0,0,0,.041.49,1.752,1.752,0,0,0,.057.441.672.672,0,0,0,.049.311,5.944,5.944,0,0,1,.123.589l.065.253c.057.2.115.4.18.6l.065.18a5.55,5.55,0,0,0,.221.523l.074.155a5.861,5.861,0,0,0,.327.58l.1.155a6.242,6.242,0,0,0,.4.539l.106.123a5.989,5.989,0,0,0,.507.515l.057.049a6.158,6.158,0,0,0,.58.45l.09.065a6.708,6.708,0,0,0,.687.392l.139.074a7.612,7.612,0,0,0,.817.319l.139.041a9.09,9.09,0,0,0,.932.253h0a9.734,9.734,0,0,0,1.03.155h.147c.36,0,.736.057,1.128.057h1.668a10.15,10.15,0,0,0,1.439-.155c17.583-2.452,25.961-4.087,25.12-14.011-.507-5.959-1.921-14.616-2.967-20.558a30.906,30.906,0,0,0-2.894-8.665q.066-.695.123-1.43c.3-4.087.286-8.992-.956-12.2l.384-7.218a23.011,23.011,0,0,0,11.313-6.776s.123-5.346.49-12.441c.556-10.954,1.635-26.068,3.695-32.068,3.351-9.891,0-44.509,0-44.509s-12.564-59.345-.817-84.9c10.34-22.536,10.25-45.089.3-67.029a3.389,3.389,0,0,0,.531-.523s-2.509-1.635-1.635-20.607c.638-14.468-3.6-29.427-5.64-35.672a87.282,87.282,0,0,0,9.809,3.531c19.218,5.73,20.893-15.735,20.893-15.735l4.185-32.149,4.97-47.877h0C800.128,219.089,801.951,209.688,792.3,198.694ZM707.17,166.937a14.6,14.6,0,0,1-.115,1.586,21.332,21.332,0,0,1-1.071,5,33.254,33.254,0,0,0,1.038-6.687Zm50.623,117.014c.294.548.58,1.071.817,1.635l-2.117-1.079a47.356,47.356,0,0,1,3.777-11.231,79.537,79.537,0,0,0,5.117-12.94,129.156,129.156,0,0,0,.744,15.408c1.708,13.152-8.338,8.207-8.338,8.207Z" transform="translate(-122.005 -35.57)" fill="url(#linear-gradient)"/>
    <path id="Path_965" data-name="Path 965" d="M697.246,109.342c-2.673,1.823-5.477,3.932-6.425,7.03-1.537,4.994,2.322,10.005,2.7,15.22.695,9.474-10.022,17.3-8.444,26.681,1.079,6.425,7.667,10.79,8.934,17.166,1.847,9.319-8.248,17.534-7.455,26.975.425,5.044,3.932,9.327,7.9,12.449a38.492,38.492,0,0,0,19.316,7.929c-.466-8.1-6.482-15.482-5.444-23.534.711-5.518,4.594-10.038,6.842-15.131,3.948-8.943,2.681-19.291.319-28.773s-5.787-18.858-5.959-28.61c-.106-5.885,2.657-14.526.629-20.109C707.7,99.844,701.832,106.211,697.246,109.342Z" transform="translate(-132.467 -40.165)" fill="#f78181"/>
    <path id="Path_966" data-name="Path 966" d="M697.246,109.342c-2.673,1.823-5.477,3.932-6.425,7.03-1.537,4.994,2.322,10.005,2.7,15.22.695,9.474-10.022,17.3-8.444,26.681,1.079,6.425,7.667,10.79,8.934,17.166,1.847,9.319-8.248,17.534-7.455,26.975.425,5.044,3.932,9.327,7.9,12.449a38.492,38.492,0,0,0,19.316,7.929c-.466-8.1-6.482-15.482-5.444-23.534.711-5.518,4.594-10.038,6.842-15.131,3.948-8.943,2.681-19.291.319-28.773s-5.787-18.858-5.959-28.61c-.106-5.885,2.657-14.526.629-20.109C707.7,99.844,701.832,106.211,697.246,109.342Z" transform="translate(-132.467 -40.165)" opacity="0.1"/>
    <path id="Path_967" data-name="Path 967" d="M701.922,770.436l-7.357,7.357s-26.158,13.9-22.888-4.9a67.652,67.652,0,0,0,.564-16.9,105.063,105.063,0,0,0-4.651-23.15l24.523-4.9c-4.087,12.817,2.64,28.953,6.834,37.168C700.622,768.409,701.922,770.436,701.922,770.436Z" transform="translate(-129.304 -154.148)" fill="#ffb9b9"/>
    <path id="Path_968" data-name="Path 968" d="M772.534,754.289a74.809,74.809,0,0,1-.932,7.512s-20.436,13.9-22.07-1.635c-1.063-10.12,1.341-14.714,3.155-16.643h0a6.294,6.294,0,0,0,1.717-4.259V720.93l17.983,5.722-.817,15.531C772.812,745.412,772.828,750.235,772.534,754.289Z" transform="translate(-144.217 -152.87)" fill="#ffb9b9"/>
    <path id="Path_969" data-name="Path 969" d="M702.772,776.686l-7.357,7.357s-26.158,13.9-22.888-4.9a67.657,67.657,0,0,0,.564-16.9c5.722-.817,12.515,5.46,12.515,5.46,9.58,13.52,12.163,8.4,14.19,3.654C701.472,774.658,702.772,776.686,702.772,776.686Z" transform="translate(-130.154 -160.398)" opacity="0.05"/>
    <path id="Path_970" data-name="Path 970" d="M677.924,769.692s-11.444-10.627-17.166-2.452.817,14.714-21.253,31.062,0,26.975,14.714,20.436,44.958-23.705,44.958-23.705,0-26.975-4.087-26.158S691.82,789.31,677.924,769.692Z" transform="translate(-122.471 -160.761)" fill="#8189a6"/>
    <path id="Path_971" data-name="Path 971" d="M772.534,759.116a74.81,74.81,0,0,1-.932,7.512s-20.436,13.9-22.07-1.635c-1.063-10.12,1.341-14.714,3.155-16.643a4.9,4.9,0,0,1,5.019-.523c3.27-1.455,6.866.973,9.809,4.087A28.9,28.9,0,0,1,772.534,759.116Z" transform="translate(-144.217 -157.697)" opacity="0.05"/>
    <path id="Path_972" data-name="Path 972" d="M756.234,749.826s-8.992-4.9-10.626,17.166-2.452,19.618-2.452,19.618-8.174,19.618,8.992,17.166,25.34-4.087,24.523-13.9c-.49-5.91-1.88-14.5-2.9-20.387a29.973,29.973,0,0,0-7.692-15.531C763.109,750.791,759.5,748.371,756.234,749.826Z" transform="translate(-142.745 -158.061)" fill="#8189a6"/>
    <path id="Path_973" data-name="Path 973" d="M766.383,583.312s3.27,34.332,0,44.141c-1.986,5.951-3.065,20.942-3.6,31.806-.36,7.03-.482,12.335-.482,12.335-15.531,16.349-33.514,0-33.514,0s0-5.722.131-14.158c.172-11.174.572-27.089,1.5-40.61a100.805,100.805,0,0,0-2.052-30.147,135.044,135.044,0,0,1-3.172-18.842L723.06,544.9c-7.357-51.5-16.348-53.133-16.348-53.133-.294.229-.58.482-.875.744-12.564,11.444-20.983,52-25.258,78.228-2.2,13.5-3.27,23.207-3.27,23.207s10.627,44.141,9.809,49.863c-.376,2.657.654,9.376,1.864,15.8,1.4,7.414,3.041,14.444,3.041,14.444-20.436,22.07-34.332,4.9-34.332,4.9l-2.747-13.128L638.89,589.042s-7.357-48.228,0-85.83a286.512,286.512,0,0,0,4.9-35.746,218.5,218.5,0,0,1,6.539-40.136q1.5-5.836,3.319-11.583s30.694-5.338,59.6-5.338c21.678,0,42.343,3,48.3,13.512q2.06,3.629,3.744,7.275c10.349,22.242,10.626,45.089.343,67.928C754.122,524.457,766.383,583.312,766.383,583.312Z" transform="translate(-123.467 -96.177)" fill="#4c4c78"/>
    <path id="Path_974" data-name="Path 974" d="M706.489,239.346s-43.324-44.141-10.627-40.871c7.414.744,12.433-.58,15.76-3.065,3.793-2.828,5.387-7.161,5.828-11.681.9-8.992-2.787-18.8-2.787-18.8s44.141-35.149,35.149,8.992a75.246,75.246,0,0,0-1.717,13.643c-.147,9.368,2.935,12.956,7.259,14.428,7.291,2.493,18.13-1,23.068,7.079C787.415,223.815,706.489,239.346,706.489,239.346Z" transform="translate(-132.236 -48.936)" fill="#ffb9b9"/>
    <path id="Path_975" data-name="Path 975" d="M756.739,173.956a75.252,75.252,0,0,0-1.717,13.643,33.367,33.367,0,0,1-3.589,1.022,35.214,35.214,0,0,1-27.057-4.9c.9-8.992-2.787-18.8-2.787-18.8S765.731,129.815,756.739,173.956Z" transform="translate(-139.163 -48.94)" opacity="0.05"/>
    <path id="Path_976" data-name="Path 976" d="M775.889,145.09a35.149,35.149,0,0,1-70.3,0c0-.654,0-1.308.057-1.954a35.149,35.149,0,0,1,70.241,1.954Z" transform="translate(-136.242 -41.328)" fill="#ffb9b9"/>
    <path id="Path_977" data-name="Path 977" d="M706.489,249.117s-43.324-44.141-10.627-40.871c7.414.744,12.433-.58,15.76-3.065-6.327,10.5-13.447,29.37,18.572,27.588,29.3-1.635,28.806-13.308,25.16-20.975,7.291,2.493,18.131-1,23.068,7.079C787.415,233.586,706.489,249.117,706.489,249.117Z" transform="translate(-132.236 -58.707)" opacity="0.05"/>
    <path id="Path_978" data-name="Path 978" d="M769.653,434.539c-7.438,9.67-102.26-3.008-116.123-7.218q1.5-5.836,3.319-11.583s30.694-5.338,59.6-5.338c21.678,0,42.343,3,48.3,13.512q2.06,3.629,3.744,7.275C769.016,434.114,769.653,434.539,769.653,434.539Z" transform="translate(-126.737 -96.175)" opacity="0.1"/>
    <path id="Path_979" data-name="Path 979" d="M707.4,199.93s-55.176,4.5-57.628,25.749c-2.346,20.321-9.4,76.429-9.4,76.429s-8.174,44.958,22.888,23.705l-.4,1.193A265.109,265.109,0,0,0,651.457,380c-.319,2.681-.948,4.79-2.1,5.485-4.087,2.452,109.535,18.8,117.709,8.174,0,0-2.452-1.635-1.635-20.436s-6.539-38.419-6.539-38.419-6.539-19.618,2.452-38.419,5.722-24.523,5.722-24.523l31.062-23.705s6.711-11.5-5.558-25.692a42.506,42.506,0,0,0-29.2-14.387l-21.417-1.553s23.476,25.258-20.665,27.711S707.4,199.93,707.4,199.93Z" transform="translate(-124.157 -57.748)" fill="#f9d048"/>
    <path id="Path_980" data-name="Path 980" d="M676.607,254.93s1.635,13.079-1.635,17.166-4.087,22.888,0,34.332" transform="translate(-130.146 -67.79)" opacity="0.05"/>
    <path id="Path_981" data-name="Path 981" d="M715.672,506.657c-12.564,11.444-20.983,52-25.258,78.228-5.951-36.514,18.8-96.955,18.8-96.955Z" transform="translate(-133.302 -110.33)" opacity="0.1"/>
    <path id="Path_982" data-name="Path 982" d="M696.308,729.7c-20.436,22.07-34.332,4.9-34.332,4.9l-2.747-13.128c7.725,4.013,20.779,7.128,34.038-6.221C694.665,722.674,696.308,729.7,696.308,729.7Z" transform="translate(-127.777 -151.835)" opacity="0.1"/>
    <path id="Path_983" data-name="Path 983" d="M783.587,714.433c-.36,7.03-.482,12.335-.482,12.335-15.531,16.349-33.514,0-33.514,0s0-5.722.131-14.158C756.465,716.893,768.587,721.61,783.587,714.433Z" transform="translate(-144.275 -151.351)" opacity="0.1"/>
    <rect id="Rectangle_139" data-name="Rectangle 139" width="55.585" height="22.888" rx="3.75" transform="translate(550.548 214.932)" fill="#cdd0db"/>
    <rect id="Rectangle_140" data-name="Rectangle 140" width="55.585" height="22.888" rx="3.75" transform="translate(550.548 214.932)" opacity="0.05"/>
    <rect id="Rectangle_141" data-name="Rectangle 141" width="55.585" height="22.888" rx="3.75" transform="translate(550.548 215.75)" fill="#cdd0db"/>
    <circle id="Ellipse_179" data-name="Ellipse 179" cx="2.452" cy="2.452" r="2.452" transform="translate(591.828 224.333)" fill="#9da7c0"/>
    <path id="Path_984" data-name="Path 984" d="M653.507,327.01a15.9,15.9,0,0,1,9.237-9.727,14.381,14.381,0,0,0,7.929-7.12c3.221-7.136,8.943-14.493,23.656-9.588s-4.087,8.174-4.087,8.174,33.514-4.9,20.436,4.9-29.427,15.531-29.427,15.531L673.2,337.71a12.044,12.044,0,0,1-17.983-.36C653.171,334.849,652.092,331.482,653.507,327.01Z" transform="translate(-126.615 -75.833)" opacity="0.05"/>
    <path id="Path_985" data-name="Path 985" d="M652.507,325.01a15.9,15.9,0,0,1,9.237-9.727,14.38,14.38,0,0,0,7.929-7.12c3.221-7.136,8.943-14.493,23.656-9.588s-4.087,8.174-4.087,8.174,33.514-4.9,20.436,4.9-29.427,15.531-29.427,15.531L672.2,335.71a12.044,12.044,0,0,1-17.983-.36C652.172,332.849,651.092,329.482,652.507,325.01Z" transform="translate(-126.433 -75.468)" fill="#ffb9b9"/>
    <path id="Path_986" data-name="Path 986" d="M781.053,342.948l-5.722,13.9-7.357-5.387-20.436-15.049-13.9-8.992c-19.618-14.714,0-17.166,0-17.166-7.357-3.27,0-6.539,0-6.539C759.8,297.99,754.9,319.243,754.9,319.243l16.569,8.591,5.5,2.853Z" transform="translate(-139.771 -76.518)" opacity="0.05"/>
    <path id="Path_987" data-name="Path 987" d="M783.053,340.948l-5.722,13.9-7.357-5.387-20.436-15.049-13.9-8.992c-19.618-14.714,0-17.166,0-17.166-7.357-3.27,0-6.539,0-6.539C761.8,295.99,756.9,317.243,756.9,317.243l16.569,8.591,5.5,2.853Z" transform="translate(-140.137 -76.153)" fill="#ffb9b9"/>
    <path id="Path_988" data-name="Path 988" d="M792.669,346.554l-5.722,13.9-7.357-5.387c6.629.237,14.46-2.967,3.458-23.624l5.5,2.853Z" transform="translate(-149.752 -81.759)" opacity="0.05"/>
    <path id="Path_989" data-name="Path 989" d="M821.818,248.93l1.578,6.433-4.847,47.517-4.087,31.88s-1.635,21.253-20.436,15.531-20.436-11.444-20.436-11.444,26.975,8.992,9.809-22.888c0,0,9.809,4.9,8.174-8.174s0-35.967,0-35.967Z" transform="translate(-148.657 -66.695)" fill="#f9d048"/>
    <path id="Path_990" data-name="Path 990" d="M775.892,145.091a35.15,35.15,0,0,1-27.379,34.284c-1.173-3.4-2.007-6.785-1.149-10.227,1.635-6.678,9.368-11.55,8.509-18.376a4.528,4.528,0,0,0-.817-2.142c-1.725-2.272-5.24-1.144-8.035-.58a15.29,15.29,0,0,1-17.1-10.545,23.893,23.893,0,0,1-24.31,5.632,35.149,35.149,0,0,1,70.241,1.954Z" transform="translate(-136.245 -41.328)" opacity="0.05"/>
    <path id="Path_991" data-name="Path 991" d="M727.45,130.684a15.267,15.267,0,0,0,17.092,10.537c2.8-.556,6.31-1.684,8.035.589a4.416,4.416,0,0,1,.777,2.133c.866,6.834-6.842,11.7-8.5,18.384-1.708,6.883,3.27,13.528,4.373,20.534.58,3.834,0,7.741,0,11.616s.916,8.043,3.793,10.626,8.174,2.632,10.112-.736c9.2,4.864,5.526,19.929,12.507,27.637,3.85,4.251,10.185,5.272,15.9,4.733a6.7,6.7,0,0,0,3.736-1.21,6.54,6.54,0,0,0,1.831-3.433,27.883,27.883,0,0,0-.711-16.536c-.916-2.542-2.232-5.109-1.888-7.782a11.494,11.494,0,0,1,2.836-5.559c4.39-5.444,10.381-10.708,10.34-17.705s-6.106-12.261-8.37-18.8c-3.082-8.934,1.193-18.506,2.951-27.792A52.716,52.716,0,0,0,791.144,95c-1.782-2.142-3.85-4.21-6.539-5.06-4.03-1.292-8.321.507-12.531,1.03-13.9,1.741-26.493-10.406-40.438-9.319a7.423,7.423,0,0,0-2.681.613c-1.807.875-2.779,2.812-3.9,4.479-6.155,9.2-18.253,11.82-27.735,17.526C669.666,120.924,706.27,151.07,727.45,130.684Z" transform="translate(-132.917 -36.142)" fill="#f78181"/>
    <path id="Path_992" data-name="Path 992" d="M654.22,821.635c-9.556,4.242-22.2,1.251-23.861-5.836-2,9.368,12.948,13.962,23.861,9.106,14.714-6.539,44.958-23.705,44.958-23.705s0-1.267-.041-3.27C698.255,798.453,668.713,815.153,654.22,821.635Z" transform="translate(-122.473 -166.928)" fill="#fff" opacity="0.3"/>
    <path id="Path_993" data-name="Path 993" d="M776.629,798.35c-.94,7.357-9.1,8.9-24.482,11.1-7.823,1.12-10.373-2.354-10.847-6.458-.515,5.256.981,11.133,10.847,9.727,17.166-2.452,25.34-4.087,24.523-13.9C776.654,798.669,776.638,798.505,776.629,798.35Z" transform="translate(-142.745 -167.005)" fill="#fff" opacity="0.3"/>
    <path id="Path_994" data-name="Path 994" d="M907.618,774.814s-11.836-59.991,12.531-101.066a92.614,92.614,0,0,0,12.776-57.171A155.757,155.757,0,0,0,927.2,588.67" transform="translate(-172.602 -128.723)" fill="none" stroke="#535461" stroke-miterlimit="10" stroke-width="2"/>
    <path id="Path_995" data-name="Path 995" d="M945.054,553.7c-.654,7.152-15.531,26.713-15.531,26.713s-11.052-21.94-10.389-29.1a13.012,13.012,0,1,1,25.915,2.379Z" transform="translate(-175.224 -119.742)" fill="#ffba00"/>
    <path id="Path_996" data-name="Path 996" d="M966.447,602.97c-4.438,5.648-27.547,13.994-27.547,13.994s2.648-24.425,7.087-30.073a13.013,13.013,0,1,1,20.436,16.079Z" transform="translate(-178.838 -127.409)" fill="#ffba00"/>
    <path id="Path_997" data-name="Path 997" d="M956.952,684.919c-6.687,2.632-30.841-1.831-30.841-1.831s14.615-19.749,21.3-22.381a13.013,13.013,0,1,1,9.54,24.214Z" transform="translate(-176.503 -141.709)" fill="#ffba00"/>
    <path id="Path_998" data-name="Path 998" d="M936.251,746.258c-6.147,3.727-30.711,3.409-30.711,3.409s11.076-21.923,17.215-25.659a13.013,13.013,0,1,1,13.5,22.252Z" transform="translate(-172.748 -153.087)" fill="#ffba00"/>
    <path id="Path_999" data-name="Path 999" d="M904.761,618.723c4.676,5.46,28.111,12.817,28.111,12.817s-3.678-24.294-8.346-29.746a13.013,13.013,0,1,0-19.766,16.93Z" transform="translate(-172.034 -130.288)" fill="#ffba00"/>
    <path id="Path_1000" data-name="Path 1000" d="M880.755,689.948c6.09,3.809,30.662,3.817,30.662,3.817s-10.774-22.062-16.863-25.888a13.013,13.013,0,1,0-13.791,22.071Z" transform="translate(-167.107 -142.823)" fill="#ffba00"/>
    <path id="Path_1001" data-name="Path 1001" d="M867.954,763.071c5.362,4.782,29.574,8.951,29.574,8.951s-6.891-23.583-12.261-28.365a13.013,13.013,0,1,0-17.313,19.414Z" transform="translate(-165.03 -156.363)" fill="#ffba00"/>
    <path id="Path_1002" data-name="Path 1002" d="M574.87,167.874a11.877,11.877,0,0,0-11.828-11.444H349.163a12.065,12.065,0,0,0-12.081,10.406,11.885,11.885,0,0,0,11.763,13.3H563.753a9.506,9.506,0,0,1,9.253,5.109,15.066,15.066,0,0,1,1.382,4.087l.482.237V167.906Z" transform="translate(-68.946 -49.806)" fill="#ffba00"/>
    <path id="Path_1003" data-name="Path 1003" d="M602.074,261.874a11.877,11.877,0,0,0-11.828-11.444H498.163a12.065,12.065,0,0,0-12.081,10.406,11.885,11.885,0,0,0,11.763,13.3h93.113a9.506,9.506,0,0,1,9.253,5.109,15.065,15.065,0,0,1,1.382,4.087l.482.237V261.906Z" transform="translate(-96.149 -66.968)" fill="#ffba00"/>
    <path id="Path_1004" data-name="Path 1004" d="M288,120.874c.139-6.327,3.556-11.444,7.725-11.444H435.57c4.259,0,7.741,5.33,7.741,11.853s-3.482,11.853-7.741,11.853H295.7a6.343,6.343,0,0,0-6.131,4.087,22.068,22.068,0,0,0-1.259,5.1l-.311.237V120.9Z" transform="translate(-60 -41.225)" fill="#ffba00"/>
    <path id="Path_1005" data-name="Path 1005" d="M288,214.874c.172-6.327,4.324-11.444,9.392-11.444H467.417c5.174,0,9.409,5.33,9.409,11.853s-4.234,11.853-9.409,11.853H297.392c-3.27,0-6.311,1.5-7.455,4.087a18.93,18.93,0,0,0-1.529,5.1l-.384.237V214.9Z" transform="translate(-60 -58.387)" fill="#ffba00"/>
    <circle id="Ellipse_180" data-name="Ellipse 180" cx="4.087" cy="4.087" r="4.087" transform="translate(402.929 190.818)" fill="#fff" opacity="0.2"/>
    <circle id="Ellipse_181" data-name="Ellipse 181" cx="4.087" cy="4.087" r="4.087" transform="translate(416.825 190.818)" fill="#fff" opacity="0.2"/>
    <circle id="Ellipse_182" data-name="Ellipse 182" cx="4.087" cy="4.087" r="4.087" transform="translate(430.721 190.818)" fill="#fff" opacity="0.2"/>
  </g>
</svg>
