<svg xmlns="http://www.w3.org/2000/svg" xmlns:xlink="http://www.w3.org/1999/xlink" width="682" height="522.507" viewBox="0 0 682 522.507">
  <defs>
    <linearGradient id="linear-gradient" x1="0.5" y1="1" x2="0.5" gradientUnits="objectBoundingBox">
      <stop offset="0" stop-color="gray" stop-opacity="0.251"/>
      <stop offset="0.54" stop-color="gray" stop-opacity="0.122"/>
      <stop offset="1" stop-color="gray" stop-opacity="0.102"/>
    </linearGradient>
    <linearGradient id="linear-gradient-2" x1="3.193" x2="3.193" y2="0" xlink:href="#linear-gradient"/>
  </defs>
  <g id="Group_63" data-name="Group 63" transform="translate(-960 -316.278)">
    <g id="Group_58" data-name="Group 58" transform="translate(0 96)">
      <g id="undraw_onboarding_o8mv" transform="translate(960.003 220.281)">
        <ellipse id="Ellipse_85" data-name="Ellipse 85" cx="69.088" cy="17.272" rx="69.088" ry="17.272" transform="translate(437.837 477.434)" fill="#6c63ff" opacity="0.1"/>
        <path id="Path_694" data-name="Path 694" d="M49.479,372.858c-7.816,2.679-17.3,8.144-15.7,16.831.8,4.4,4.367,7.666,7.756,10.423A219.732,219.732,0,0,0,88.88,429.435c8.1,3.675,16.705,7.046,22.821,13.824s8.949,16.252,10.936,25.386a206.345,206.345,0,0,1,3.413,65.872c24.408.465,51.434-.084,68.706-17.666,10.339-10.53,15.882-26.15,28.041-34.3,8.108-5.435,18.1-6.784,27.755-7.917q68.533-8.013,137.776-9.7c19.342-.471,39.108-.638,57.168-7.38s34.455-21.478,38.124-41.459c.567-3.079.937-6.473,3.043-8.621,1.879-1.927,4.7-2.386,7.326-2.727l158.634-21.478c8.687-1.193,17.678-2.464,24.992-7.374,7.076-4.773,11.849-12.4,16.413-19.831,10.459-17.016,21.311-37.587,14.068-57.042-5.793-15.548-21.365-24.5-36.244-30.064s-30.9-9.468-42.992-20.368c-18.4-16.586-22.48-44.12-27.665-68.826A402.964,402.964,0,0,0,581.505,114.2c-7.422-18.7-16.461-37.127-29.932-51.679S519.565,37.656,500.7,38.4c-24.64.978-46.315,20.184-71,17.8-20.846-2-37.807-18.7-56.577-29.1C339.8,8.63,300.475,10.253,264.016,16.01c-38.661,6.091-77.56,16.753-108.882,40.731-7.159,5.489-14.009,11.825-18.215,20.082-6.443,12.666-5.889,28.1-9.116,42.175C114.8,175.677,45.064,199.321,30.728,255.587c-5.1,19.975-1.324,41.638,8.024,60.1,10.053,19.873,30.248,28.345,40.6,45.4C72.431,367.405,58.643,369.714,49.479,372.858Z" transform="translate(-28.45 -12.11)" fill="#6c63ff" opacity="0.1"/>
        <path id="Path_695" data-name="Path 695" d="M897.925,759.969s-6.253-43.076,12.529-71.427a65.925,65.925,0,0,0,11.145-40.2,110.619,110.619,0,0,0-3.043-20.052" transform="translate(-378.781 -260.669)" fill="none" stroke="#535461" stroke-miterlimit="10" stroke-width="2"/>
        <path id="Path_696" data-name="Path 696" d="M940.487,591.045c-.722,5.065-12,18.441-12,18.441s-7.046-16.007-6.342-21.072a9.265,9.265,0,1,1,18.341,2.631Z" transform="translate(-388.935 -241.376)" fill="#6c63ff"/>
        <path id="Path_697" data-name="Path 697" d="M958.01,638.484c-3.365,3.854-20.1,8.949-20.1,8.949s2.768-17.3,6.127-21.132a9.267,9.267,0,0,1,13.973,12.177Z" transform="translate(-395.313 -258.584)" fill="#6c63ff"/>
        <path id="Path_698" data-name="Path 698" d="M944.212,716.983c-4.851,1.635-21.872-2.386-21.872-2.386s11.109-13.519,15.959-15.148a9.265,9.265,0,0,1,5.912,17.535Z" transform="translate(-389.033 -289.235)" fill="#6c63ff"/>
        <path id="Path_699" data-name="Path 699" d="M920.911,775.83c-4.5,2.428-21.961,1.313-21.961,1.313s8.663-15.2,13.167-17.624a9.266,9.266,0,0,1,8.794,16.311Z" transform="translate(-379.598 -313.156)" fill="#6c63ff"/>
        <path id="Path_700" data-name="Path 700" d="M904.091,650.8c3.126,4.051,19.533,10.142,19.533,10.142s-1.742-17.409-4.868-21.478A9.268,9.268,0,1,0,904.091,650.8Z" transform="translate(-380.891 -263.725)" fill="#6c63ff"/>
        <path id="Path_701" data-name="Path 701" d="M876.439,718.3c4.176,2.929,21.663,3.824,21.663,3.824s-6.861-16.109-11.061-19.02a9.265,9.265,0,1,0-10.6,15.2Z" transform="translate(-368.917 -290.174)" fill="#6c63ff"/>
        <path id="Path_702" data-name="Path 702" d="M860.886,789.366c3.639,3.58,20.708,7.428,20.708,7.428s-4.045-17.021-7.69-20.6a9.265,9.265,0,1,0-13.019,13.186Z" transform="translate(-363.131 -319.252)" fill="#6c63ff"/>
        <path id="Path_703" data-name="Path 703" d="M940.487,591.045c-.722,5.065-12,18.441-12,18.441s-7.046-16.007-6.342-21.072a9.265,9.265,0,1,1,18.341,2.631Z" transform="translate(-388.935 -241.376)" opacity="0.25"/>
        <path id="Path_704" data-name="Path 704" d="M958.01,638.484c-3.365,3.854-20.1,8.949-20.1,8.949s2.768-17.3,6.127-21.132a9.267,9.267,0,0,1,13.973,12.177Z" transform="translate(-395.313 -258.584)" opacity="0.25"/>
        <path id="Path_705" data-name="Path 705" d="M944.212,716.983c-4.851,1.635-21.872-2.386-21.872-2.386s11.109-13.519,15.959-15.148a9.265,9.265,0,0,1,5.912,17.535Z" transform="translate(-389.033 -289.235)" opacity="0.25"/>
        <path id="Path_706" data-name="Path 706" d="M920.911,775.83c-4.5,2.428-21.961,1.313-21.961,1.313s8.663-15.2,13.167-17.624a9.266,9.266,0,0,1,8.794,16.311Z" transform="translate(-379.598 -313.156)" opacity="0.25"/>
        <path id="Path_707" data-name="Path 707" d="M904.091,650.8c3.126,4.051,19.533,10.142,19.533,10.142s-1.742-17.409-4.868-21.478A9.268,9.268,0,1,0,904.091,650.8Z" transform="translate(-380.891 -263.725)" opacity="0.25"/>
        <path id="Path_708" data-name="Path 708" d="M876.439,718.3c4.176,2.929,21.663,3.824,21.663,3.824s-6.861-16.109-11.061-19.02a9.265,9.265,0,1,0-10.6,15.2Z" transform="translate(-368.917 -290.174)" opacity="0.25"/>
        <path id="Path_709" data-name="Path 709" d="M860.886,789.366c3.639,3.58,20.708,7.428,20.708,7.428s-4.045-17.021-7.69-20.6a9.265,9.265,0,1,0-13.019,13.186Z" transform="translate(-363.131 -319.252)" opacity="0.25"/>
        <path id="Path_710" data-name="Path 710" d="M876.165,759.656s-23.173-36.847-17.463-70.4A65.926,65.926,0,0,0,852.622,648a110.67,110.67,0,0,0-10.912-17.1" transform="translate(-356.508 -261.722)" fill="none" stroke="#535461" stroke-miterlimit="10" stroke-width="2"/>
        <path id="Path_711" data-name="Path 711" d="M835.224,590.852c1.384,4.928-3.5,21.723-3.5,21.723S818.775,600.81,817.4,595.87a9.268,9.268,0,1,1,17.839-5.035Z" transform="translate(-346.561 -242.836)" fill="#6c63ff"/>
        <path id="Path_712" data-name="Path 712" d="M872.92,626.073c-1.509,4.886-14.742,16.329-14.742,16.329s-4.475-16.908-2.983-21.8a9.267,9.267,0,0,1,17.708,5.471Z" transform="translate(-361.824 -254.932)" fill="#6c63ff"/>
        <path id="Path_713" data-name="Path 713" d="M891.891,701.765c-3.771,3.454-20.971,6.652-20.971,6.652s4.677-16.854,8.448-20.285A9.269,9.269,0,1,1,891.9,701.794Z" transform="translate(-368.291 -283.825)" fill="#6c63ff"/>
        <path id="Path_714" data-name="Path 714" d="M895.355,765.309c-3.132,4.045-19.545,10.1-19.545,10.1s1.79-17.4,4.892-21.478a9.265,9.265,0,1,1,14.653,11.336Z" transform="translate(-370.263 -309.83)" fill="#6c63ff"/>
        <path id="Path_715" data-name="Path 715" d="M826.189,660.226c4.5,2.44,21.955,1.348,21.955,1.348s-8.639-15.208-13.125-17.642a9.266,9.266,0,1,0-8.83,16.293Z" transform="translate(-348.289 -266.526)" fill="#6c63ff"/>
        <path id="Path_716" data-name="Path 716" d="M828.108,733.12c5.023.978,21.359-5.28,21.359-5.28s-12.8-11.932-17.821-12.9a9.265,9.265,0,1,0-3.538,18.185Z" transform="translate(-347.911 -295.533)" fill="#6c63ff"/>
        <path id="Path_717" data-name="Path 717" d="M843.134,804.523c4.773,1.79,21.943-1.6,21.943-1.6S854.482,789,849.7,787.191a9.265,9.265,0,0,0-6.563,17.3Z" transform="translate(-354.853 -324.589)" fill="#6c63ff"/>
        <path id="Path_718" data-name="Path 718" d="M285.63,57.83V478.718H588.353V57.83Z" transform="translate(-115.22 -23.329)" fill="url(#linear-gradient)"/>
        <rect id="Rectangle_97" data-name="Rectangle 97" width="297.413" height="16.043" transform="translate(173.065 38.194)" fill="#f6f7f9"/>
        <g id="Group_52" data-name="Group 52" transform="translate(173.065 38.194)" opacity="0.2">
          <rect id="Rectangle_98" data-name="Rectangle 98" width="297.413" height="16.043" fill="#6c63ff"/>
        </g>
        <rect id="Rectangle_99" data-name="Rectangle 99" width="297.413" height="397.459" transform="translate(173.065 54.237)" fill="#f6f7f9"/>
        <circle id="Ellipse_86" data-name="Ellipse 86" cx="2.721" cy="2.721" r="2.721" transform="translate(178.166 43.498)" fill="#f6f7f9"/>
        <circle id="Ellipse_87" data-name="Ellipse 87" cx="2.721" cy="2.721" r="2.721" transform="translate(185.54 43.498)" fill="#f6f7f9"/>
        <circle id="Ellipse_88" data-name="Ellipse 88" cx="2.721" cy="2.721" r="2.721" transform="translate(192.914 43.498)" fill="#f6f7f9"/>
        <g id="Group_53" data-name="Group 53" transform="translate(226.146 78.74)" opacity="0.2">
          <rect id="Rectangle_100" data-name="Rectangle 100" width="191.245" height="7.488" fill="#6c63ff"/>
        </g>
        <rect id="Rectangle_101" data-name="Rectangle 101" width="25.41" height="7.488" transform="translate(391.981 78.74)" fill="#6c63ff"/>
        <g id="Group_54" data-name="Group 54" transform="translate(201.422 121.392)" opacity="0.2">
          <rect id="Rectangle_102" data-name="Rectangle 102" width="240.699" height="86.205" fill="#6c63ff"/>
        </g>
        <rect id="Rectangle_103" data-name="Rectangle 103" width="138.838" height="7.488" transform="translate(268.971 152.81)" fill="#f6f7f9"/>
        <rect id="Rectangle_104" data-name="Rectangle 104" width="72.029" height="7.488" transform="translate(268.971 168.692)" fill="#f6f7f9"/>
        <rect id="Rectangle_105" data-name="Rectangle 105" width="25.41" height="7.488" transform="translate(391.981 191.375)" fill="#6c63ff"/>
        <circle id="Ellipse_89" data-name="Ellipse 89" cx="13.609" cy="13.609" r="13.609" transform="translate(216.85 179.883)" fill="#f6f7f9"/>
        <g id="Group_55" data-name="Group 55" transform="translate(201.422 231.76)" opacity="0.2">
          <rect id="Rectangle_106" data-name="Rectangle 106" width="240.699" height="86.205" fill="#6c63ff"/>
        </g>
        <rect id="Rectangle_107" data-name="Rectangle 107" width="138.838" height="7.488" transform="translate(268.971 263.178)" fill="#f6f7f9"/>
        <rect id="Rectangle_108" data-name="Rectangle 108" width="72.029" height="7.488" transform="translate(268.971 279.06)" fill="#f6f7f9"/>
        <rect id="Rectangle_109" data-name="Rectangle 109" width="25.41" height="7.488" transform="translate(391.981 301.743)" fill="#6c63ff"/>
        <circle id="Ellipse_90" data-name="Ellipse 90" cx="13.609" cy="13.609" r="13.609" transform="translate(216.85 261.251)" fill="#f6f7f9"/>
        <g id="Group_56" data-name="Group 56" transform="translate(201.422 342.128)" opacity="0.2">
          <rect id="Rectangle_110" data-name="Rectangle 110" width="240.699" height="86.205" fill="#6c63ff"/>
        </g>
        <rect id="Rectangle_111" data-name="Rectangle 111" width="138.838" height="7.488" transform="translate(268.971 373.546)" fill="#f6f7f9"/>
        <rect id="Rectangle_112" data-name="Rectangle 112" width="72.029" height="7.488" transform="translate(268.971 389.427)" fill="#f6f7f9"/>
        <rect id="Rectangle_113" data-name="Rectangle 113" width="25.41" height="7.488" transform="translate(391.981 412.111)" fill="#6c63ff"/>
        <circle id="Ellipse_91" data-name="Ellipse 91" cx="13.609" cy="13.609" r="13.609" transform="translate(216.85 371.618)" fill="#f6f7f9"/>
        <path id="Path_719" data-name="Path 719" d="M186.577,358.116c-2.309,10.506-6.473,23.453-6.473,23.453,4.117,4.8,22.075,5.662,22.075,5.662l.03-.036h.28c.125.662.268,1.3.441,1.909q-.048.9-.089,1.826a4.982,4.982,0,0,0-.257,2.243,5.078,5.078,0,0,0,.131.5c-.43,9.51-.734,19.653-.471,25.511a24.55,24.55,0,0,0,.507,4.94,17.784,17.784,0,0,1,.525,3.788c.292,8.573-1.79,22.976-1.79,22.976s.054.2.084.3c-.036.245-.06.388-.06.388a6.8,6.8,0,0,1,.3,1.79c.155,7.231-3.991,22.964-3.991,22.964s-3.353,24.193-2.876,33.41a21.252,21.252,0,0,0,.161,2.2c1.026,7.666,2.386,29.073,2.386,29.073a9.608,9.608,0,0,0,.782,1.008c-.119.477-.262.96-.418,1.438a40.331,40.331,0,0,0-2,14.987c.042.6.089,1.247.149,1.9.686,7.9,19.8,2.983,21.055,2.064.43-.316.125-3.18-.465-6.813l19.688,4.862s13.961,2.064,20.6,0,6.408-7.756-3.09-8.693c-6.652-.644-11.932-6.837-14.54-10.494,1.008-2.75,8.567-23.626,9.958-36.549a182.957,182.957,0,0,1,4.409-24.772l1.486-19.229,2.637-11.336,3.144-14.987c3.55-10.99,4.636-29.359,4.636-29.359l2.744-18.024a34.892,34.892,0,0,0,.638-5.942,66.629,66.629,0,0,1,7.607,2.034c4.3-3.341-1.79-35.534-1.79-35.534s-2.929-20.333-5.411-38.87a37.987,37.987,0,0,1,11.849.483l36.053.794a18.327,18.327,0,0,0,1.933-3.15H320.7a3.311,3.311,0,0,0,.447-.871l.638.119a53.309,53.309,0,0,1,6.9,2.094s11.371,1.372,9.653-10.554c-1.277-8.89-11.4-5.662-16.455-3.454l-.638.292c-.048-.334-.078-.525-.078-.525l-1.629.3a7.88,7.88,0,0,0-.34-.728s-17.684-.686-32.02-2.834c-10.2-1.527-17.9-7.356-21.52-10.59-2.512-12.75-9.808-16.622-9.808-16.622A21.834,21.834,0,0,1,245.9,260.1a21.021,21.021,0,0,1-2.327-1.611l-.394.227-.048-.042c2.428-2.255,4.946-4.325,7.159-6.062l1-.77a22.116,22.116,0,0,0,18.065-30.97c-.1-.215-.209-.43-.31-.638a4.964,4.964,0,0,0,4.379-4.314c.221-2.5-1.5-5.161-.376-7.4a7.2,7.2,0,0,0,.537-1.044,2.823,2.823,0,0,0,.083-1.05,7.392,7.392,0,0,0-2.983-5.37c-2.559-1.855-4.833-.913-7.631-1.074a92.128,92.128,0,0,1-9.623-1.492,33.278,33.278,0,0,0-11.055-.364,14.246,14.246,0,0,0-9.343,5.471c-.907,1.3-1.521,2.786-2.386,4.129-.972,1.551-2.231,2.894-3.347,4.337-1.879,2.428-3.4,5.34-3.252,8.406.084,1.736.7,3.407.817,5.143a31.319,31.319,0,0,1-.358,4.833,21.156,21.156,0,0,0,.352,6.163,3.819,3.819,0,0,0,.7,1.754,3.741,3.741,0,0,0,1.551,1,13.866,13.866,0,0,0,1.9.6,27.257,27.257,0,0,1-2.667,4.8l-.967-1-2.613,4.081-.1-.274c-.125.257-.268.5-.418.746l-.268-.746a15.688,15.688,0,0,1-5.853,5.859c-6.837,4.3-16.377,6.074-16.377,6.074-15.369,2.231-12.529,18.107-12.529,18.107s-6.521,28.327-8.353,45.838,4.976,28.667,4.976,28.667Zm73.294-51.774c.6,1.951,1.122,3.8,1.569,5.417l-.286.113c-.328-1.5-.776-3.419-1.265-5.531Zm-16.908-47.532-.084.054.078-.078Zm-26.508,296c-.752-4.492-1.873-9.916-2.565-13.155.489-1.593,1.14-4.027,1.9-7.648,1.718-8.12,2.744-36.853,2.744-36.853l4.009-24.139c3.663-9.271,4.463-20.285,4.463-20.285,1.474-3.89,4.88-27.7,5.423-31.525-.155,2.643-.525,9.337-.722,16.771v.2c-.149,5.614-.191,11.634,0,16.628h0c.054,1.4.125,2.733.221,3.962.03.316.048.644.06.966.43,12.947-5.37,29.234-5.37,29.234s-2.583,12.075-2.2,18.823a12.422,12.422,0,0,0,.513,3.58,6.331,6.331,0,0,1,.292,1.659c.107,6.455-3.705,20-4.677,23.328C218.424,540.734,216.843,551.9,216.455,554.808Z" transform="translate(-89.002 -87.015)" fill="url(#linear-gradient-2)"/>
        <path id="Path_720" data-name="Path 720" d="M263.543,764.034s6.694,12.135,16.109,13.042,9.641,6.563,3.061,8.621-20.416,0-20.416,0l-19.736-4.874s2.386-19.509,5.555-20.529S263.543,764.034,263.543,764.034Z" transform="translate(-114.82 -313.859)" fill="#4c4c78"/>
        <path id="Path_721" data-name="Path 721" d="M225.694,766.053s4.994,22.457,3.747,23.369-20.189,5.781-20.882-2.046c-.06-.65-.107-1.283-.143-1.885a39.758,39.758,0,0,1,1.981-14.856,12.308,12.308,0,0,0,.77-4.582C210.839,762.9,225.694,766.053,225.694,766.053Z" transform="translate(-101.021 -315.676)" fill="#4c4c78"/>
        <path id="Path_722" data-name="Path 722" d="M247.79,272.043s15.309,37.587,12.589,25.535c-1.79-8.007,9.85-18.632,17.9-24.879,4.1-3.186,7.273-5.232,7.273-5.232s-28.757-33.518-26.716-19.056a21.777,21.777,0,0,1-1.569,11.67A30.6,30.6,0,0,1,247.79,272.043Z" transform="translate(-116.93 -105.971)" fill="#ffb9b9"/>
        <path id="Path_723" data-name="Path 723" d="M411.77,370.531a8.8,8.8,0,0,1,3.5.221,51.676,51.676,0,0,1,6.831,2.076s11.276,1.36,9.546-10.459c-1.265-8.818-11.288-5.62-16.306-3.425-1.706.746-2.84,1.378-2.84,1.378Z" transform="translate(-183.077 -151.044)" fill="#ffb9b9"/>
        <path id="Path_724" data-name="Path 724" d="M411.77,372.166a8.8,8.8,0,0,1,3.5.221c1.223-3.1.292-10.429.1-11.807-1.706.746-2.84,1.378-2.84,1.378Z" transform="translate(-183.077 -152.679)" opacity="0.1"/>
        <path id="Path_725" data-name="Path 725" d="M411.057,360.763,414,360.22s1.515,10.142-.459,12.791H410.15Z" transform="translate(-182.423 -152.534)" fill="#cbcdda"/>
        <path id="Path_726" data-name="Path 726" d="M310.89,390.756s9.021-5.37,10.095,1.414,2.5,18.435,2.5,18.435l2.494,14.8,3.234,29.664-.453,5.047s-9.588-3.21-11.855-2.1-4.087-12.445-4.087-12.445l-3.741-14.068-.6-29.831Z" transform="translate(-141.411 -164.038)" fill="#4c4c78"/>
        <path id="Path_727" data-name="Path 727" d="M310.89,390.756s9.021-5.37,10.095,1.414,2.5,18.435,2.5,18.435l2.494,14.8,3.234,29.664-.453,5.047s-9.588-3.21-11.855-2.1-4.087-12.445-4.087-12.445l-3.741-14.068-.6-29.831Z" transform="translate(-141.411 -164.038)" opacity="0.1"/>
        <path id="Path_728" data-name="Path 728" d="M320.65,333.56s9.361,10.548,23.566,12.678,31.734,2.8,31.734,2.8a15.383,15.383,0,0,1-1.957,16.335l-35.731-.788s-7.911-1.718-14.038,0Z" transform="translate(-146.32 -141.779)" fill="#4c4c78"/>
        <path id="Path_729" data-name="Path 729" d="M320.65,333.56s9.361,10.548,23.566,12.678,31.734,2.8,31.734,2.8a15.383,15.383,0,0,1-1.957,16.335l-35.731-.788s-7.911-1.718-14.038,0Z" transform="translate(-146.32 -141.779)" opacity="0.05"/>
        <path id="Path_730" data-name="Path 730" d="M450.84,406.14" transform="translate(-198.837 -171.057)" fill="none" stroke="blue" stroke-miterlimit="10" stroke-width="1"/>
        <path id="Path_731" data-name="Path 731" d="M266.2,259.769c3.49,7.464,9.546,12.97,18.352,12.97h1.146c4.1-3.186,7.273-5.232,7.273-5.232s-28.757-33.518-26.716-19.056C266.876,252.848,267.6,256.446,266.2,259.769Z" transform="translate(-124.334 -105.987)" opacity="0.1"/>
        <path id="Path_732" data-name="Path 732" d="M260.25,238.914a21.872,21.872,0,1,0,6.41-15.512A21.92,21.92,0,0,0,260.25,238.914Z" transform="translate(-121.956 -94.761)" fill="#ffb9b9"/>
        <path id="Path_733" data-name="Path 733" d="M237.8,402.517s48.887,4.314,50.712-1.927-4.988-23.137-4.988-23.137l2.184-23.6.084-.907s-6.109-25.523-5.906-27.54c.209-1.832-9.862-23.268-11.932-27.629l-.376-.788-.388.227-.167.1-2.386,1.4-9.468-2.231-11.4-5.966-1.08,65.27Z" transform="translate(-112.9 -124.418)" fill="#cbcdda"/>
        <path id="Path_734" data-name="Path 734" d="M278.974,302.584a3.9,3.9,0,0,1,4.654,2.44,34.4,34.4,0,0,0,1.79,4.176l1.307,7.756,2.386,12.249,1.754,54.292-.787,9.665-4.367-7.756-.793-50.712V328.37a45.767,45.767,0,0,0-3.639-15.846l-.6-1.426-3.8-4.874Z" transform="translate(-128.664 -129.239)" opacity="0.1"/>
        <path id="Path_735" data-name="Path 735" d="M280.106,301.444a3.9,3.9,0,0,1,4.654,2.44,34.405,34.405,0,0,0,1.79,4.176l1.307,7.756,2.386,12.249L292,382.357,291.2,392l-4.367-7.756-.793-50.712v-6.324a45.762,45.762,0,0,0-3.633-15.846l-.6-1.426L278,305.078Z" transform="translate(-129.116 -128.779)" fill="#4c4c78"/>
        <path id="Path_736" data-name="Path 736" d="M254.51,278s11.568,12.254,15.649,13.722c0,0-2.04,9.3-4.081,11.115,0,0-12.141-12.38-14.319-13.382l-1.79-4.409Z" transform="translate(-117.809 -119.367)" opacity="0.1"/>
        <path id="Path_737" data-name="Path 737" d="M254.51,276.9s11.568,12.255,15.649,13.722c0,0-2.04,9.3-4.081,11.115,0,0-12.141-12.38-14.319-13.382l-1.79-4.409Z" transform="translate(-117.809 -118.924)" fill="#cbcdda"/>
        <path id="Path_738" data-name="Path 738" d="M286.58,301.35l.119.316,3.711,9.94,6.622,18.769s.066.191.179.549c1.1,3.413,7,21.938,8.168,27.325l.084-.907s-6.1-25.547-5.9-27.564c.209-1.832-9.862-23.268-11.932-27.629-.328-.227-.6-.418-.764-.561Z" transform="translate(-132.577 -128.786)" opacity="0.1"/>
        <path id="Path_739" data-name="Path 739" d="M287.71,301.33l3.83,10.268,6.628,18.77s.066.191.179.549c1.163,3.639,7.792,24.4,8.353,28.2.6,4.176,8.949,26.716,8.949,26.716l4.773,39.048c4.254-3.317-1.79-35.2-1.79-35.2s-6.807-47.3-8.418-63.032-10.339-20.386-10.339-20.386a21.66,21.66,0,0,1-9.856-3.335,21.052,21.052,0,0,1-2.309-1.6Z" transform="translate(-133.033 -128.778)" fill="#4c4c78"/>
        <path id="Path_740" data-name="Path 740" d="M207.08,617.674c1.02,7.6,2.386,28.817,2.386,28.817,4.773,7.159,15.315,3.287,15.315,3.287s1.128-2.16,2.828-10.214,2.727-36.525,2.727-36.525l3.973-23.93c3.627-9.188,4.421-20.076,4.421-20.076,1.587-4.176,5.447-31.764,5.447-31.764s-1.593,24.73-.6,37.772-5.214,30.63-5.214,30.63-3.52,16.449-1.7,21.55-4.54,26.2-4.54,26.2c.567,6.127,18.6,3.627,18.6,3.627s8.508-22.8,9.981-36.525a181.276,181.276,0,0,1,4.373-24.557l1.468-19.056,2.613-11.228,3.12-14.856c3.514-10.894,4.594-29.1,4.594-29.1L279.6,493.87c1.79-8.836-.519-19.193-2.07-24.634-.668-2.345-1.193-3.782-1.193-3.782-1.563,1.11-10.512,2.386-15.142,3.466a26.348,26.348,0,0,1-7.756.6,172.325,172.325,0,0,1-34.544-6.318l-1.193-.358-.239,2.04-.561,4.868-.99,8.633s-3.067,46.053-1.253,52.293-1.247,27.2-1.247,27.2c1.7,4.976-3.627,25.2-3.627,25.2S206.06,610.079,207.08,617.674Z" transform="translate(-100.437 -193.929)" opacity="0.1"/>
        <path id="Path_741" data-name="Path 741" d="M207.081,616.534c1.02,7.6,2.386,28.817,2.386,28.817,4.773,7.159,15.315,3.287,15.315,3.287s1.128-2.16,2.828-10.214,2.727-36.525,2.727-36.525l3.973-23.93c3.627-9.188,4.421-20.076,4.421-20.076,1.587-4.176,5.447-31.764,5.447-31.764s-1.593,24.73-.6,37.772-5.214,30.63-5.214,30.63-3.52,16.449-1.7,21.55-4.54,26.2-4.54,26.2c.567,6.127,18.6,3.628,18.6,3.628s8.508-22.8,9.981-36.525a181.293,181.293,0,0,1,4.373-24.557l1.468-19.056,2.613-11.228,3.12-14.856c3.514-10.894,4.594-29.1,4.594-29.1l2.721-17.869c1.79-8.83-.519-19.187-2.07-24.628-.668-2.345-1.193-3.783-1.193-3.783-1.563,1.11-10.512,2.387-15.142,3.466a26.342,26.342,0,0,1-7.756.6,172.319,172.319,0,0,1-34.544-6.318L217.7,461.7l-.239,2.04-.561,4.868-.99,8.633s-3.067,46.053-1.253,52.293-1.229,27.206-1.229,27.206c1.7,4.976-3.627,25.2-3.627,25.2S206.061,608.939,207.081,616.534Z" transform="translate(-100.437 -193.469)" fill="#474463"/>
        <path id="Path_742" data-name="Path 742" d="M260.25,238.894a21.872,21.872,0,0,0,2.906,10.9,11.558,11.558,0,0,0,9.629-2.321c1.748-1.539,2.876-3.645,4.379-5.429a31.906,31.906,0,0,1,3.132-3.09,9.7,9.7,0,0,1,2.47-1.79,3.353,3.353,0,0,1,2.983-.036c1.193.674,1.623,2.172,2.3,3.371a4.5,4.5,0,0,0,2.512,2.19,2.661,2.661,0,0,0,2.983-1.02c.74-1.277.2-3.269,1.444-4.045a7.514,7.514,0,0,1,1.014-.412c1.6-.728,1.79-2.882,1.921-4.636a2.9,2.9,0,0,1,.984-2.309,4.436,4.436,0,0,1,2.542-.209,3.581,3.581,0,0,0,.764-.066,21.92,21.92,0,0,0-41.96,8.884Z" transform="translate(-121.956 -94.741)" opacity="0.1"/>
        <path id="Path_743" data-name="Path 743" d="M301.545,203.788a7.279,7.279,0,0,1,2.953,5.3,2.785,2.785,0,0,1-.078,1.044,7.753,7.753,0,0,1-.531,1.038c-1.122,2.219.6,4.856.37,7.338a4.88,4.88,0,0,1-4.773,4.284c-.865,0-1.79-.257-2.542.209a2.829,2.829,0,0,0-.984,2.309c-.137,1.76-.316,3.914-1.921,4.636a8.411,8.411,0,0,0-1.014.418c-1.247.776-.7,2.774-1.444,4.039a2.655,2.655,0,0,1-2.983,1.026,4.522,4.522,0,0,1-2.512-2.19c-.686-1.193-1.1-2.7-2.3-3.371a3.371,3.371,0,0,0-2.983.03,9.723,9.723,0,0,0-2.47,1.79,32.6,32.6,0,0,0-3.132,3.09c-1.5,1.79-2.631,3.89-4.385,5.429-3.293,2.894-8.353,3.18-12.41,1.533a3.794,3.794,0,0,1-1.539-.984,3.853,3.853,0,0,1-.716-1.766,21.2,21.2,0,0,1-.352-6.109,30.835,30.835,0,0,0,.358-4.773c-.113-1.718-.728-3.377-.811-5.1-.149-3.037,1.36-5.924,3.222-8.353,1.11-1.432,2.357-2.762,3.317-4.3.835-1.33,1.444-2.8,2.345-4.093a14.333,14.333,0,0,1,9.259-5.423,32.405,32.405,0,0,1,10.96.358,90.167,90.167,0,0,0,9.546,1.48C296.754,202.851,299.009,201.915,301.545,203.788Z" transform="translate(-119.972 -88.112)" fill="#472727"/>
        <path id="Path_744" data-name="Path 744" d="M287.71,301.33l3.83,10.268,6.628,18.77s.066.191.179.549h0L290,302.929A21.049,21.049,0,0,1,287.71,301.33Z" transform="translate(-133.033 -128.778)" opacity="0.1"/>
        <path id="Path_745" data-name="Path 745" d="M218.31,494.9s-.4,12.416,2.947,15.512l8.9-16.789L222.677,490Z" transform="translate(-105.032 -204.885)" fill="#ffb9b9"/>
        <path id="Path_746" data-name="Path 746" d="M183.48,416.033c4.087,4.773,21.86,5.614,21.86,5.614l17.618-27.731s4.176-2.894,11.986-15.912,7.571-23.053,7.159-30.541-5.37-29.013-5.37-29.013c-.758-4.845-11.729-35.2-11.729-35.2a15.552,15.552,0,0,1-5.805,5.805c-6.772,4.242-16.24,5.978-16.24,5.978-15.232,2.213-12.422,17.952-12.422,17.952s-.185,61.195.77,68.509S183.48,416.033,183.48,416.033Z" transform="translate(-90.988 -121.485)" opacity="0.1"/>
        <path id="Path_747" data-name="Path 747" d="M189.49,485.181l.507,4.534,6.187-2.267,4.534-6.861-3.4-2.667Z" transform="translate(-76.439 -192.787)" fill="#cbcdda"/>
        <path id="Path_748" data-name="Path 748" d="M218.3,468.523l3.234.328,31.191,3.114a50.527,50.527,0,0,0,14.987-.734l14.456-2.894c-.668-2.345-1.193-3.783-1.193-3.783-1.563,1.11-10.512,2.386-15.142,3.466a26.345,26.345,0,0,1-7.756.6,172.321,172.321,0,0,1-34.586-6.318l-1.408,1.682Z" transform="translate(-105.034 -193.711)" opacity="0.1"/>
        <g id="Group_57" data-name="Group 57" transform="translate(106.407 268.231)" opacity="0.1">
          <path id="Path_749" data-name="Path 749" d="M322.75,466.253a3.262,3.262,0,0,0,.3-.173l.03.084Z" transform="translate(-253.575 -463.467)"/>
          <path id="Path_750" data-name="Path 750" d="M209.731,581.936s5.334-20.225,3.627-25.2c0,0,3.067-20.959,1.247-27.2s1.253-52.293,1.253-52.293l1.008-8.633.6-4.868.239-2.04s.406.131,1.193.358l.722.215-.167.8-.567,4.868-1.008,8.633s-3.061,46.047-1.253,52.293-1.241,27.2-1.241,27.2c1.7,4.976-3.627,25.2-3.627,25.2s-3.747,27-2.727,34.6,2.386,28.81,2.386,28.81c3.478,5.226,10.047,4.57,13.328,3.836-.036.089-.06.137-.06.137s-10.548,3.854-15.315-3.287c0,0-1.36-21.216-2.386-28.817S209.731,581.936,209.731,581.936Z" transform="translate(-206.804 -461.7)"/>
          <path id="Path_751" data-name="Path 751" d="M253.688,659.182c-1.79-5.1,1.706-21.55,1.706-21.55S261.623,620.05,260.6,607c-.424-5.435-.394-12.893-.215-19.748,1.45-8.83,2.828-18.7,2.828-18.7s-1.593,24.724-.567,37.772-5.214,30.63-5.214,30.63-3.52,16.449-1.7,21.55-4.54,26.2-4.54,26.2c.453,4.91,12.111,4.284,16.705,3.836l-.173.471s-18.036,2.5-18.6-3.627C249.154,685.385,255.5,664.277,253.688,659.182Z" transform="translate(-223.877 -504.802)"/>
        </g>
        <path id="Path_752" data-name="Path 752" d="M182.34,416.033c4.087,4.773,21.86,5.614,21.86,5.614l17.612-27.731S225.988,391.023,233.8,378s7.571-23.053,7.159-30.541-5.37-29.013-5.37-29.013c-.758-4.845-11.729-35.2-11.729-35.2a15.552,15.552,0,0,1-5.805,5.805c-6.778,4.242-16.234,5.978-16.234,5.978-15.232,2.213-12.422,17.952-12.422,17.952s-.167,61.171.77,68.485S182.34,416.033,182.34,416.033Z" transform="translate(-90.528 -121.485)" fill="#4c4c78"/>
        <path id="Path_753" data-name="Path 753" d="M244.753,298.291l3.83,1.444-2.554,1.79,19.044,45.939c-.442-7.488-5.37-29.013-5.37-29.013-.758-4.844-11.729-35.2-11.729-35.2a15.552,15.552,0,0,1-5.805,5.805Z" transform="translate(-114.663 -121.485)" opacity="0.1"/>
        <path id="Path_754" data-name="Path 754" d="M195.459,430.128l-19.485-5.018-2.554,7.911,19.909,4.85Z" transform="translate(-69.956 -171.484)" opacity="0.1"/>
        <path id="Path_755" data-name="Path 755" d="M204.35,313.115S213.2,321.467,209.88,340s-8.675,38.708-8.675,38.708l14.408,39.9s-10.041,10.465-14.975,11.735l-14.378-31.9s-6.718-11.061-4.934-28.411,8.251-45.432,8.251-45.432S189.548,307.5,204.35,313.115Z" transform="translate(-89.998 -133.076)" opacity="0.1"/>
        <path id="Path_756" data-name="Path 756" d="M203.2,313.115s8.848,8.353,5.531,26.884-8.675,38.708-8.675,38.708l14.361,39.9s-10.023,10.465-14.969,11.735l-14.378-31.9s-6.718-11.061-4.934-28.411,8.251-45.432,8.251-45.432S188.387,307.5,203.2,313.115Z" transform="translate(-89.518 -133.076)" fill="#4c4c78"/>
        <path id="Path_757" data-name="Path 757" d="M229.954,492.077s-11.228,15.512-10.375,19.688,4.141,1.927,4.141,1.927l4.445-6.074,3.973-11.336S231.744,491.409,229.954,492.077Z" transform="translate(-105.531 -205.697)" opacity="0.1"/>
        <path id="Path_758" data-name="Path 758" d="M232.28,492.078s-11.234,15.512-10.381,19.688,4.141,1.927,4.141,1.927l4.421-6.068,3.973-11.336S234.046,491.409,232.28,492.078Z" transform="translate(-106.467 -205.698)" opacity="0.1"/>
        <path id="Path_759" data-name="Path 759" d="M231.134,492.078s-11.228,15.512-10.375,19.688,4.141,1.927,4.141,1.927l4.421-6.068,3.973-11.336S232.906,491.409,231.134,492.078Z" transform="translate(-106.007 -205.698)" fill="#474463"/>
      </g>
    </g>
  </g>
</svg>
