<svg id="undraw_inspiration_lecl_1_" data-name="undraw_inspiration_lecl (1)" xmlns="http://www.w3.org/2000/svg" width="690" height="518.077" viewBox="0 0 690 518.077">
  <path id="Path_1006" data-name="Path 1006" d="M562.977,728.1q28.116-3.667,54.066-6.235L610.388,710.7c2.313-.644,12.328,5.815,12.328,5.815l-8.459-32.266c11.56,1.3,16.936,34.207,16.936,34.207L644.3,707.5l-6.457,12.415c52.938-4.624,98.617-6.05,137.015-5.693l-5.7-9.55c2.313-.644,12.328,5.814,12.328,5.814l-8.459-32.266c11.56,1.3,16.936,34.207,16.936,34.207l13.109-10.961-6.839,13.149c32.18.9,58.4,3.027,78.629,5.349-5.68-14.841-25.539-29.116-25.539-29.116,15.274,3.988,23.218,10.475,27.328,16.486a220.417,220.417,0,0,0-16.493-89.711s30.794,58.089,26.146,96.8l-.591,6.876c26.819,3.519,40.276,7.02,40.276,7.02Z" transform="translate(-244.18 -239.948)" fill="#3f3d56"/>
  <ellipse id="Ellipse_183" data-name="Ellipse 183" cx="345" cy="26.833" rx="345" ry="26.833" transform="translate(0 464.41)" fill="#3f3d56"/>
  <path id="Path_1007" data-name="Path 1007" d="M607,171.473s7.667,18.208-9.583,26.833,46,24.917,52.708,3.833c0,0-17.25-6.708-9.583-26.833Z" transform="translate(-253.378 -109.564)" fill="#ffb9b9"/>
  <path id="Path_1008" data-name="Path 1008" d="M528.36,618.937l-.958,20.125,16.291,2.875V621.812Z" transform="translate(-154.131 -180.881)" fill="#ffb9b9"/>
  <path id="Path_1009" data-name="Path 1009" d="M435.766,618.937l.958,20.125-16.292,2.875V621.812Z" transform="translate(-122.869 -180.881)" fill="#ffb9b9"/>
  <circle id="Ellipse_184" data-name="Ellipse 184" cx="26.833" cy="26.833" r="26.833" transform="translate(345.48 19.264)" fill="#ffb9b9"/>
  <path id="Path_1010" data-name="Path 1010" d="M578.46,340l-.959,7.666,4.792,18.208L589,349.587Z" transform="translate(-168.772 -99.364)" fill="#ffb9b9"/>
  <path id="Path_1011" data-name="Path 1011" d="M535.6,426.878l-5.75,68.042s-6.708,12.458-2.875,23c0,0-5.75,14.375-3.833,19.167s2.875,9.583.958,11.5-2.875,55.583,0,60.375,4.792,16.292,4.792,16.292,16.292,3.833,20.125-6.708,1.917-11.5,5.75-14.375,3.833-43.125,3.833-43.125-4.792-4.792-1.917-6.708,4.792,0,1.917-4.792-7.667-4.792-2.875-6.708A45.7,45.7,0,0,0,563.393,539l27.792-72.834s10.542,81.458,12.458,85.291,4.792-.958,1.917,3.833-3.833,1.917-2.875,4.792-5.75,44.083-1.917,52.708a129.869,129.869,0,0,1,5.75,15.333s15.333,6.708,17.25,1.917.958-13.417,3.833-14.375,5.75-2.875,5.75-10.542,5.75-45.042,5.75-45.042-6.708-2.875-4.792-7.667,1.917-3.833.958-7.667-2.875-4.792-.958-7.667,1.917-11.5,1.917-11.5l11.5-75.709L638.846,424Z" transform="translate(-232.288 -183.364)" fill="#2f2e41"/>
  <path id="Path_1012" data-name="Path 1012" d="M640.674,723.374s-2.875-2.875-3.833,0-.958,29.708-.958,29.708,7.667,5.75,7.667,8.625,5.75,12.458,19.167,10.542q.2-.029.4-.06a12.688,12.688,0,0,0,9.434-17.96l-13.666-28.939S649.3,715.707,640.674,723.374Z" transform="translate(-265.486 -269.985)" fill="#2f2e41"/>
  <path id="Path_1013" data-name="Path 1013" d="M539.619,723.374s2.875-2.875,3.833,0,.958,29.708.958,29.708-7.667,5.75-7.667,8.625-5.75,12.458-19.167,10.542q-.2-.029-.4-.06a12.688,12.688,0,0,1-9.434-17.96l13.666-28.939S530.994,715.707,539.619,723.374Z" transform="translate(-227.681 -269.985)" fill="#2f2e41"/>
  <path id="Path_1014" data-name="Path 1014" d="M605.857,101.032l-4.794-1.919s10.025-11.036,23.972-10.076l-3.923-4.319s9.588-3.839,18.305,6.238c4.582,5.3,9.884,11.523,13.189,18.537h5.134l-2.143,4.718,7.5,4.718-7.7-.848a26.108,26.108,0,0,1-.728,12.22l.206,3.729s-8.923-13.806-8.923-15.725v4.8s-4.794-4.318-4.794-7.2l-2.615,3.359-1.307-5.278-16.126,5.278,2.615-4.318-10.024,1.44,3.923-5.278s-11.332,6.238-11.768,11.516-6.1,12-6.1,12l-2.615-4.8S593.218,108.23,605.857,101.032Z" transform="translate(-253.996 -84)" fill="#2f2e41"/>
  <path id="Path_1015" data-name="Path 1015" d="M693.871,233.082h10.677a3.455,3.455,0,0,1,3.372,2.7c1.648,7.3,5.893,27.976,5.118,44.263-.958,20.125.958,34.5,0,37.375s0,3.833,0,6.708,2.875.958,0,4.792-2.875,2.875-2.875,5.75-9.583,46.958-9.583,46.958-6.588-10.828-13.836-8.768l1.378-39.148,1.917-16.292-2.875-28.75Z" transform="translate(-280.35 -127.569)" fill="#3f3d56"/>
  <path id="Path_1016" data-name="Path 1016" d="M604.2,215.775s-16.292-.592-21.563-7.484c0,0-34.021,11.317-37.854,20.9S558.2,281.9,558.2,281.9s-29.708,88.167-15.333,88.167,46.958,11.5,66.125,4.792a246.341,246.341,0,0,1,36.417-9.583s1.917-25.875,0-30.667-6.708-1.917-3.833-8.625,1.917-7.667.958-10.542,1.917-6.708,1.917-10.542-.958-12.458-.958-12.458,25.875-60.375,20.125-66.125-35.019-16.829-35.019-16.829S620.487,219.608,604.2,215.775Z" transform="translate(-237.154 -120.324)" fill="#3f3d56"/>
  <circle id="Ellipse_185" data-name="Ellipse 185" cx="21.083" cy="21.083" r="21.083" transform="translate(561.583 345.576)" fill="#ffba00"/>
  <ellipse id="Ellipse_186" data-name="Ellipse 186" cx="4.792" cy="10.542" rx="4.792" ry="10.542" transform="translate(563.5 356.118)" fill="#fff"/>
  <circle id="Ellipse_187" data-name="Ellipse 187" cx="21.083" cy="21.083" r="21.083" transform="translate(493.542 210.452)" fill="#3f3d56"/>
  <ellipse id="Ellipse_188" data-name="Ellipse 188" cx="10.542" cy="4.792" rx="10.542" ry="4.792" transform="matrix(0.81, -0.587, 0.587, 0.81, 494.842, 222.198)" fill="#fff"/>
  <circle id="Ellipse_189" data-name="Ellipse 189" cx="13.139" cy="13.139" r="13.139" transform="translate(555.153 102.437)" fill="#3f3d56"/>
  <ellipse id="Ellipse_190" data-name="Ellipse 190" cx="6.57" cy="2.986" rx="6.57" ry="2.986" transform="matrix(0.81, -0.587, 0.587, 0.81, 555.963, 109.759)" fill="#fff"/>
  <circle id="Ellipse_191" data-name="Ellipse 191" cx="13.139" cy="13.139" r="13.139" transform="translate(456.445 440.729)" fill="#3f3d56"/>
  <ellipse id="Ellipse_192" data-name="Ellipse 192" cx="6.57" cy="2.986" rx="6.57" ry="2.986" transform="matrix(0.81, -0.587, 0.587, 0.81, 457.253, 448.05)" fill="#fff"/>
  <circle id="Ellipse_193" data-name="Ellipse 193" cx="21.083" cy="21.083" r="21.083" transform="translate(559.667 249.743)" fill="#3f3d56"/>
  <ellipse id="Ellipse_194" data-name="Ellipse 194" cx="4.792" cy="10.542" rx="4.792" ry="10.542" transform="translate(561.583 260.285)" fill="#fff"/>
  <circle id="Ellipse_195" data-name="Ellipse 195" cx="21.083" cy="21.083" r="21.083" transform="translate(491.625 114.618)" fill="#ffba00"/>
  <ellipse id="Ellipse_196" data-name="Ellipse 196" cx="10.542" cy="4.792" rx="10.542" ry="4.792" transform="matrix(0.81, -0.587, 0.587, 0.81, 492.925, 126.365)" fill="#fff"/>
  <circle id="Ellipse_197" data-name="Ellipse 197" cx="13.139" cy="13.139" r="13.139" transform="translate(553.236 6.604)" fill="#ffba00"/>
  <ellipse id="Ellipse_198" data-name="Ellipse 198" cx="6.57" cy="2.986" rx="6.57" ry="2.986" transform="matrix(0.81, -0.587, 0.587, 0.81, 554.046, 13.926)" fill="#fff"/>
  <circle id="Ellipse_199" data-name="Ellipse 199" cx="13.139" cy="13.139" r="13.139" transform="translate(454.528 344.896)" fill="#3f3d56"/>
  <ellipse id="Ellipse_200" data-name="Ellipse 200" cx="6.57" cy="2.986" rx="6.57" ry="2.986" transform="matrix(0.81, -0.587, 0.587, 0.81, 455.337, 352.217)" fill="#fff"/>
  <rect id="Rectangle_142" data-name="Rectangle 142" width="265.458" height="161.124" transform="translate(47.917 271.723)" fill="#f2f2f2"/>
  <path id="Path_1017" data-name="Path 1017" d="M523.79,437.544s-8.625,45.042,5.75,41.208,7.667-41.208,7.667-41.208Z" transform="translate(-231.978 -187.322)" fill="#ffb9b9"/>
  <path id="Path_1018" data-name="Path 1018" d="M543.861,233.082l-3.4,1.7a9.6,9.6,0,0,0-5.142,6.816l-13.5,71.982s-3.833,8.625-3.833,9.583,1.917.958,0,3.833-4.792,1.917-2.875,3.833a5.936,5.936,0,0,1,1.917,3.833l1.917,46.958s16.292-4.792,21.083,0c0,0-4.792-14.375-1.917-19.167s2.875-11.5,2.875-11.5-1.917,0,2.875-4.792,5.75-6.708,4.792-7.667-1.917-9.583-1.917-10.542,9.583-65.167,9.583-65.167Z" transform="translate(-230.007 -127.569)" fill="#3f3d56"/>
  <circle id="Ellipse_201" data-name="Ellipse 201" cx="58.11" cy="58.11" r="58.11" transform="translate(125.837 290.213)" fill="#ffba00"/>
  <path id="Path_1019" data-name="Path 1019" d="M399.666,597.552c-11.157,0-35.8-11.459-57.707-24.88-27.191-16.654-53.6-38.423-48.982-45.961,1.3-2.13,4.539-2.687,9.89-1.705l-.384,2.089c-4.143-.762-6.947-.5-7.7.725-1.091,1.782,1.315,6.955,11.341,16.128,9.137,8.361,22.255,17.919,36.94,26.913s29.159,16.338,40.758,20.678c12.728,4.763,18.429,4.555,19.52,2.775.749-1.223-.292-3.845-2.856-7.194l1.686-1.291c3.312,4.325,4.287,7.463,2.981,9.593C404.261,596.887,402.355,597.552,399.666,597.552Z" transform="translate(-165.119 -212.745)" fill="#3f3d56"/>
  <circle id="Ellipse_202" data-name="Ellipse 202" cx="11.886" cy="11.886" r="11.886" transform="translate(164.889 306.567)" fill="#fff"/>
  <circle id="Ellipse_203" data-name="Ellipse 203" cx="7.924" cy="7.924" r="7.924" transform="translate(172.294 375.689)" fill="#fff"/>
  <circle id="Ellipse_204" data-name="Ellipse 204" cx="7.924" cy="7.924" r="7.924" transform="translate(199.58 348.523)" fill="#fff"/>
  <path id="Path_1020" data-name="Path 1020" d="M178.925,452.4A18.665,18.665,0,0,0,154.7,480.8l28.4,24.224,24.224-28.4a18.665,18.665,0,1,0-28.4-24.224Z" transform="translate(-122.948 -189.749)" fill="#ff6584"/>
</svg>
