<svg xmlns="http://www.w3.org/2000/svg" width="617.268" height="444.309" viewBox="0 0 617.268 444.309">
  <g id="Group_62" data-name="Group 62" transform="translate(-302 -355.55)">
    <g id="undraw_reading_0re1" transform="translate(302 355.55)">
      <ellipse id="Ellipse_92" data-name="Ellipse 92" cx="156.738" cy="19.668" rx="156.738" ry="19.668" transform="translate(147.055 404.974)" fill="#3f3d56"/>
      <path id="Path_760" data-name="Path 760" d="M663.279,440.517l-60.6,28.677,53.627-40.1a302.619,302.619,0,0,0-29.28-38.53L364.249,455.88l237.366-90.547a302.559,302.559,0,0,0-34.469-26.273l-400.417,64.5a300.089,300.089,0,0,0-65.723,187.275H703.742A299.926,299.926,0,0,0,663.279,440.517Z" transform="translate(-94.346 -184.042)" fill="#f2f2f2"/>
      <path id="Path_761" data-name="Path 761" d="M579.893,288.474a301.578,301.578,0,0,0-363.6,78.159C310.953,345.891,475.771,309.986,579.893,288.474Z" transform="translate(-139.864 -152.075)" fill="#f2f2f2"/>
      <circle id="Ellipse_93" data-name="Ellipse 93" cx="9.029" cy="9.029" r="9.029" transform="translate(490.28 147.321)" fill="#6c63ff" opacity="0.4"/>
      <circle id="Ellipse_94" data-name="Ellipse 94" cx="6.334" cy="6.334" r="6.334" transform="translate(476.264 154.329)" fill="#6c63ff" opacity="0.4"/>
      <circle id="Ellipse_95" data-name="Ellipse 95" cx="18.91" cy="18.91" r="18.91" transform="translate(52.954 161.367)" fill="#6c63ff" opacity="0.4"/>
      <circle id="Ellipse_96" data-name="Ellipse 96" cx="13.265" cy="13.265" r="13.265" transform="translate(23.601 176.044)" fill="#6c63ff" opacity="0.4"/>
      <rect id="Rectangle_114" data-name="Rectangle 114" width="617.268" height="1.21" transform="translate(0 406.184)" fill="#2f2e41"/>
      <path id="Path_762" data-name="Path 762" d="M963.075,707.507,915,636.1s72.806,25.417,64.543,71.409Z" transform="translate(-415.739 -301.323)" fill="#3f3d56"/>
      <path id="Path_763" data-name="Path 763" d="M986.388,707.507l48.075-71.409s-72.806,25.417-64.543,71.409Z" transform="translate(-437.165 -301.323)" fill="#6c63ff"/>
      <path id="Path_764" data-name="Path 764" d="M241.539,203.7c0-3.932-5.606-7.119-12.522-7.119-.137,0-.272,0-.408.006-2.086-6.395-11.948-11.238-23.8-11.238-10.084,0-18.727,3.506-22.367,8.491a31.714,31.714,0,0,0-8.242-1.055c-10.6,0-19.2,4.887-19.2,10.916,0,5.476,7.094,10.01,16.342,10.795,6.72,1.229,17.217,2.019,29.015,2.019,20.029,0,34.684-3.821,35.052-6.693C239.078,208.58,241.539,206.3,241.539,203.7Z" transform="translate(-115.664 -123.352)" fill="#f2f2f2"/>
      <path id="Path_765" data-name="Path 765" d="M741.539,208.7c0-3.932-5.606-7.119-12.522-7.119-.137,0-.272,0-.408.006-2.086-6.395-11.948-11.238-23.8-11.238-10.084,0-18.727,3.506-22.367,8.491a31.712,31.712,0,0,0-8.242-1.055c-10.6,0-19.2,4.887-19.2,10.916,0,5.476,7.094,10.01,16.342,10.795,6.72,1.229,17.217,2.019,29.015,2.019,20.029,0,34.684-3.821,35.052-6.693C739.078,213.58,741.539,211.3,741.539,208.7Z" transform="translate(-313.082 -125.326)" fill="#f2f2f2"/>
      <path id="Path_766" data-name="Path 766" d="M977.9,115.113c0-6.9-9.84-12.5-21.979-12.5-.24,0-.478.006-.716.01C951.54,91.4,934.23,82.9,913.426,82.9c-17.7,0-32.871,6.154-39.259,14.9A55.668,55.668,0,0,0,859.7,95.953c-18.612,0-33.7,8.578-33.7,19.16,0,9.612,12.451,17.57,28.683,18.947,11.8,2.157,30.22,3.545,50.928,3.545,35.156,0,60.88-6.706,61.525-11.747C973.575,123.679,977.9,119.683,977.9,115.113Z" transform="translate(-380.599 -82.902)" fill="#f2f2f2"/>
      <path id="Path_767" data-name="Path 767" d="M597.15,358.314c-12.518-21.151-37.283-22.137-37.283-22.137s-24.132-3.086-39.613,29.127c-14.429,30.025-34.343,59.015-3.206,66.043l5.624-17.505,3.483,18.808a121.829,121.829,0,0,0,13.322.228c33.345-1.077,65.1.315,64.08-11.651C602.2,405.322,609.195,378.666,597.15,358.314Z" transform="translate(-252.103 -182.872)" fill="#2f2e41"/>
      <path id="Path_768" data-name="Path 768" d="M521.568,671.638a49.379,49.379,0,0,1-1.6,6.874c-.783,2.2-1.993,4.24-2.709,6.465-2.283,7.093.882,15,5.937,20.477a33.416,33.416,0,0,0,16.292,9.674,66.466,66.466,0,0,0,14,1.471c13.013.441,26.36.836,38.69-3.346a67.222,67.222,0,0,0,11.241-5.107,8.418,8.418,0,0,0,2.917-2.3,8.025,8.025,0,0,0,1.053-4.711c-.028-5.516-1.146-11-.88-16.515.147-3.052.718-6.1.437-9.144a16.869,16.869,0,0,0-12.892-14.531c-3.5-.751-7.126-.342-10.687,0a272.466,272.466,0,0,1-27.813,1.244c-9.488-.06-18.918-1.509-28.359-1.66-2.792-.045-2.736.816-3.624,3.518a65.831,65.831,0,0,0-2.005,7.587Z" transform="translate(-258.4 -310.968)" fill="#2f2e41"/>
      <path id="Path_769" data-name="Path 769" d="M561.966,446.384c-.456,2.387-.949,4.862-2.383,6.824-1.651,2.257-4.342,3.547-6.118,5.707-2.673,3.252-2.826,7.827-2.837,12.037-.01,3.878.069,8.014,2.231,11.232a19.628,19.628,0,0,0,5.626,4.96c8.109,5.465,16.872,11.028,26.65,11.208,4.051.075,8.395-.972,11.06-4.023a16.608,16.608,0,0,0,2.678-4.778,63.442,63.442,0,0,0,4.491-19.314,22.679,22.679,0,0,0-.855-9.278c-1.188-3.312-3.589-6.036-5.177-9.176a20.428,20.428,0,0,1-1.966-12.089,1.3,1.3,0,0,0-.069-.876,1.276,1.276,0,0,0-1.052-.426L574.857,437a42.194,42.194,0,0,1-5.383-.616c-1.045-.213-3.805-1.7-4.8-1.3C562.827,435.811,562.343,444.4,561.966,446.384Z" transform="translate(-271.871 -221.928)" fill="#ffb8b8"/>
      <path id="Path_770" data-name="Path 770" d="M561.966,446.384c-.456,2.387-.949,4.862-2.383,6.824-1.651,2.257-4.342,3.547-6.118,5.707-2.673,3.252-2.826,7.827-2.837,12.037-.01,3.878.069,8.014,2.231,11.232a19.628,19.628,0,0,0,5.626,4.96c8.109,5.465,16.872,11.028,26.65,11.208,4.051.075,8.395-.972,11.06-4.023a16.608,16.608,0,0,0,2.678-4.778,63.442,63.442,0,0,0,4.491-19.314,22.679,22.679,0,0,0-.855-9.278c-1.188-3.312-3.589-6.036-5.177-9.176a20.428,20.428,0,0,1-1.966-12.089,1.3,1.3,0,0,0-.069-.876,1.276,1.276,0,0,0-1.052-.426L574.857,437a42.194,42.194,0,0,1-5.383-.616c-1.045-.213-3.805-1.7-4.8-1.3C562.827,435.811,562.343,444.4,561.966,446.384Z" transform="translate(-271.871 -221.928)" opacity="0.1"/>
      <circle id="Ellipse_97" data-name="Ellipse 97" cx="28.443" cy="28.443" r="28.443" transform="translate(280.191 170.17)" fill="#ffb8b8"/>
      <path id="Path_771" data-name="Path 771" d="M569.251,503.979a17.442,17.442,0,0,0,5,3.992,15.7,15.7,0,0,0,6.241,1.188c5.127.144,10.685-.8,14.252-4.481,4.6-4.751,4.446-12.415,8.05-17.958a4,4,0,0,1,1.161-1.27,3.764,3.764,0,0,1,1.975-.454c4.551-.043,8.516,2.909,12.094,5.723a15.932,15.932,0,0,1,4.257,4.336,14.7,14.7,0,0,1,1.435,4.4c1.776,8.668,2.351,17.53,2.921,26.36.315,4.877.63,9.758.607,14.646-.077,16.1-3.819,31.932-7.541,47.6-.479,2.018-1.136,4.274-2.971,5.241a7.328,7.328,0,0,1-2.593.633c-10.659,1.252-21.34,2.505-32.071,2.67q-6.282.1-12.558-.3a6.765,6.765,0,0,1-2.115-.369,5.966,5.966,0,0,1-2.306-1.958c-5.8-7.315-6.147-17.427-6.11-26.765q.136-34.245,2.447-68.435c.127-1.881.155-4.166-1.2-5.646A70.686,70.686,0,0,0,569.251,503.979Z" transform="translate(-275.167 -241.661)" fill="#d0cde1"/>
      <path id="Path_772" data-name="Path 772" d="M537.358,460.44c-.961,1.739-8.043,6.057-9.41,7.5-7.639,8.053-21.582,7.75-28.569,16.375-2.458,3.034-3.735,6.847-4.675,10.638-1.329,5.361-2.038,11.208.188,16.263,2.141,4.864,6.649,8.227,9.71,12.572,3.36,4.771,4.871,10.563,6.319,16.216,1.069,4.174,2.147,8.451,1.731,12.74-.473,4.876-2.833,9.34-4.226,14.037s-1.634,10.29,1.587,13.981c2.366,2.712,6.078,3.787,9.626,4.391a110.58,110.58,0,0,0,13.72,1.194c4.056.179,8.526.214,11.644-2.386,2.46-2.052,3.529-5.381,3.668-8.581s-.527-6.372-.945-9.548c-.432-3.292-.6-6.613-.737-9.931q-.936-22.329-.255-44.687a38.027,38.027,0,0,0-.452-9.273c-.87-3.987-3.025-7.551-4.823-11.214a42.436,42.436,0,0,1-4.705-22.418C537.3,460.329,540.776,454.252,537.358,460.44Z" transform="translate(-249.299 -230.963)" fill="#6c63ff"/>
      <path id="Path_773" data-name="Path 773" d="M625.586,459.234c1.463,1.5,6.435,2,8.3,2.968a29.069,29.069,0,0,0,5.454,1.888,70.806,70.806,0,0,1,19.159,8.793,11.626,11.626,0,0,1,3.2,2.767,12.686,12.686,0,0,1,1.772,5c.911,4.515,1.827,9.084,1.622,13.685-.217,4.884-1.689,9.614-3.148,14.28l-5.453,17.434c-4.071,13.014-8.167,26.155-9.312,39.742a93.488,93.488,0,0,0,.839,22.572,2.676,2.676,0,0,1-.275,2.186,2.153,2.153,0,0,1-1.335.614c-2.632.412-5.179-.93-7.564-2.118a83.762,83.762,0,0,0-23.09-7.555,53.681,53.681,0,0,0,7.172-14.784,89.455,89.455,0,0,0,2.167-10.167l2.537-14.672a144.185,144.185,0,0,0,2.176-16.225,20.313,20.313,0,0,0-.353-6.112,29.647,29.647,0,0,0-2.317-5.512c-4.181-8.7-6.143-18.621-4.5-28.129.72-4.161,2.119-8.328,1.536-12.51-.561-4.021.022-7.146-1.01-11.126C618.929,445.921,622.833,456.405,625.586,459.234Z" transform="translate(-297.587 -229.153)" fill="#6c63ff"/>
      <path id="Path_774" data-name="Path 774" d="M498.731,516.7c-1.906,3.955-5.092,7.325-6.177,11.579a25.3,25.3,0,0,0-.539,6.052,28.751,28.751,0,0,0,.9,9.1c.605,1.876,1.59,3.606,2.3,5.446a19.746,19.746,0,0,1,1.293,8.068c-.191,3.81-1.486,7.508-1.587,11.321-.159,6,2.615,11.634,5.321,16.988a12.488,12.488,0,0,1,18.152-5.943,3.723,3.723,0,0,0,.818-2.714q.3-10.436.579-20.872c.293-10.76.572-21.664-1.9-32.14-1.118-4.73-2.857-9.441-6.044-13.11-1.679-1.932-7.377-7.02-10.132-4.856-1.239.973-.95,3.622-1.146,4.964a21.058,21.058,0,0,1-1.833,6.117Z" transform="translate(-248.725 -249.596)" fill="#6c63ff"/>
      <path id="Path_775" data-name="Path 775" d="M676.6,498.831a29.106,29.106,0,0,1,.973,8.755q.055,9.021-.239,18.04a33.632,33.632,0,0,1-1.172,9.134c-.615,1.936-1.565,3.751-2.2,5.68-1.905,5.781-.864,12.051-.7,18.136a20.615,20.615,0,0,1-.5,5.867c-1.005,3.772-3.707,6.82-5.593,10.238-1.791,3.246-2.872,6.885-5.011,9.913s-5.842,5.428-9.431,4.5c-2.719-.7-4.652-3.111-5.988-5.582a27.38,27.38,0,0,1-2.831-17.761c1.342-7.385,5.68-13.937,7.244-21.278,2.148-10.081-1.117-20.484-1.02-30.791a14.885,14.885,0,0,1,.649-4.773c.821-2.354,2.583-4.234,4.211-6.123a77.292,77.292,0,0,0,5.66-7.428c1.166-1.738,2.749-6.209,4.815-6.581C670.08,487.945,675.454,495.266,676.6,498.831Z" transform="translate(-308.533 -243.129)" fill="#6c63ff"/>
      <path id="Path_776" data-name="Path 776" d="M446.45,670.926a28.078,28.078,0,0,0-7.809-.83,19.491,19.491,0,0,0-18.1,22.977,32.738,32.738,0,0,0,3.095,8.456c2.071,4.2,4.555,8.4,8.389,11.09a32.676,32.676,0,0,0,7.4,3.524l20.194,7.607c2.971,1.119,5.942,2.238,8.942,3.276a174.9,174.9,0,0,0,46.7,9.285,50.575,50.575,0,0,0,14.5-.735,4.721,4.721,0,0,0,2.97-1.6,5.086,5.086,0,0,0,.664-2.192l1.243-8.7a7.286,7.286,0,0,0-.106-3.667c-.569-1.462-2-2.382-3.357-3.163-13.276-7.625-28.777-11.832-39.951-22.3-2.631-2.464-4.832-6.369-8.028-8.042-3.624-1.9-7.893-2.981-11.639-4.73C463.379,677.36,455.326,672.967,446.45,670.926Z" transform="translate(-220.384 -314.74)" fill="#2f2e41"/>
      <path id="Path_777" data-name="Path 777" d="M490.974,689.554c7.138,2.237,37.273,17.731,42.438,23.141-.692.25-24.183-12.915-24.888-13.127A141.933,141.933,0,0,1,489.59,692.9c-1.224-.566-7.952-3.227-7.647-4.771C482.286,686.381,489.707,689.157,490.974,689.554Z" transform="translate(-244.749 -321.64)" opacity="0.1"/>
      <path id="Path_778" data-name="Path 778" d="M624.921,774.933a1.677,1.677,0,0,0,1.131-.333,1.748,1.748,0,0,0,.354-1.3q-.016-5.925-.033-11.851c-3.408-1.624-7.22-2.144-10.962-2.644l-17.458-2.333c.4.054-2.73,7.519-2.25,8.516.846,1.757,7.312,3.314,9.137,4.143C611.185,772.012,617.777,775.182,624.921,774.933Z" transform="translate(-289.65 -348.85)" fill="#ffb8b8"/>
      <path id="Path_779" data-name="Path 779" d="M546.485,759.073c-3.3.525-6.975.989-9.11,3.555-2.707,3.254-1.555,8.1-.263,12.136a3.935,3.935,0,0,0,4.59,3.283c3.006.19,6.205.339,8.832-1.135a38.714,38.714,0,0,0,3.431-2.55,22,22,0,0,1,6.308-2.884,63.779,63.779,0,0,1,12.662-2.609,19.694,19.694,0,0,0,4.988-.879,5.527,5.527,0,0,0,3.513-3.41c.608-2.154-.643-4.35-1.844-6.238a24.886,24.886,0,0,0-5.31-6.562c-3.253-2.527-4.862-.587-8.139,1.03A69.055,69.055,0,0,1,546.485,759.073Z" transform="translate(-265.988 -346.517)" fill="#ffb8b8"/>
      <path id="Path_780" data-name="Path 780" d="M513.259,764.513l-20.93-6.186a27.7,27.7,0,0,0-7.789-1.509,9.35,9.35,0,0,0-7.153,2.893c-1.623,1.9-2.088,4.508-2.492,6.978l-.865,5.283a26.533,26.533,0,0,0-.485,8.112,8.97,8.97,0,0,0,4.158,6.683c2.9,1.58,6.446.808,9.679.147a105.376,105.376,0,0,1,19.834-2.127c2.505-.03,5.133,0,7.347-1.172a9.172,9.172,0,0,0,4.476-7.309C519.451,771.793,517.947,765.9,513.259,764.513Z" transform="translate(-241.376 -348.987)" fill="#2f2e41"/>
      <path id="Path_781" data-name="Path 781" d="M651.824,757.886c2.713-.475,5.108-2.018,7.708-2.928,3.66-1.281,7.625-1.281,11.5-1.267a7.385,7.385,0,0,1,4.124.826c1.708,1.137,2.146,3.412,2.436,5.443l1.752,12.254a19.229,19.229,0,0,1,.143,6.942c-.514,2.271-2.062,4.46-4.315,5.046-2.737.712-5.42-1.037-8-2.185-6.459-2.871-13.967-2.137-20.7-4.282a4.64,4.64,0,0,1-3.1-2.216,5.04,5.04,0,0,1-.241-2.118c.115-3.939-.715-9.318.47-13.082C644.666,756.936,648.8,757.886,651.824,757.886Z" transform="translate(-308.325 -347.752)" fill="#2f2e41"/>
      <path id="Path_782" data-name="Path 782" d="M673.884,662.617a36.344,36.344,0,0,1,12.8-.875c3.423.377,6.949,1.33,9.449,3.7,3.042,2.884,4.019,7.343,4.1,11.534a36.033,36.033,0,0,1-7.832,23.012,20.876,20.876,0,0,1-4.478,4.311A29.466,29.466,0,0,1,682.1,707.1l-45.223,17.837c-11.9,4.693-23.836,9.4-36.245,12.492a2.825,2.825,0,0,1-3.8-1.378,93.692,93.692,0,0,1-9.912-18.131,1.222,1.222,0,0,1,.54-1.926l31.986-18.378a32.338,32.338,0,0,0,6.51-4.486,16.164,16.164,0,0,0,3.342-4.653c.663-1.385.725-4.653,1.572-5.677.829-1,3.666-1.082,4.976-1.476a45.173,45.173,0,0,0,5.417-2.048c7.155-3.2,13.527-7.852,20.386-11.6A52.3,52.3,0,0,1,673.884,662.617Z" transform="translate(-286.093 -311.363)" fill="#2f2e41"/>
      <path id="Path_783" data-name="Path 783" d="M667.342,683.723c-5.5,4.128-12.611,7.922-18.058,12.158-1.859,1.446-32.846,18.867-33.284,21.181,5.081.856,37.449-21.788,42.081-24.047s8.736-5.446,12.8-8.609c1.037-.806,5.43-3.229,2.454-4.13C671.662,679.769,668.579,682.9,667.342,683.723Z" transform="translate(-297.683 -318.744)" opacity="0.1"/>
      <path id="Path_784" data-name="Path 784" d="M518.457,278.177,493.99,265.361,460.2,270.6l-6.991,30.875,17.4-.669,4.861-11.343v11.156l8.029-.309,4.66-18.058,2.913,19.224,28.544-.583Z" transform="translate(-178.944 -104.774)" fill="#2f2e41"/>
      <rect id="Rectangle_115" data-name="Rectangle 115" width="52.649" height="63.542" transform="translate(281.402 236.738)" fill="#3f3d56"/>
      <path id="Path_785" data-name="Path 785" d="M510.531,605.352A12.713,12.713,0,0,0,515.1,609.9a8.932,8.932,0,0,0,7.851-.21,13.819,13.819,0,0,0,5.666-5.68c2.659-4.7,3.21-10.314,2.878-15.7s-1.482-10.689-1.991-16.061c-.37-3.905-.4-7.834-.43-11.756a3.91,3.91,0,0,1,.494-2.377,4.667,4.667,0,0,1,2.623-1.31c5.367-1.594,8.929-6.625,11.483-11.607,1.705-3.327,3.188-6.963,2.859-10.687s-3.005-7.475-6.724-7.855c-3.066-.313-5.9,1.634-8.109,3.781a34.77,34.77,0,0,0-10.181,20.346c-.485,3.786-.346,7.675-1.376,11.351-2.2,7.848-9.079,12.66-12.507,19.722C503.856,589.632,505.941,598.466,510.531,605.352Z" transform="translate(-254.124 -258.097)" fill="#ffb8b8"/>
      <path id="Path_786" data-name="Path 786" d="M660.106,560.1a14.831,14.831,0,0,1-8.318,7.992,11.487,11.487,0,0,1-7.231.443,8.018,8.018,0,0,1-5.3-4.738,12.765,12.765,0,0,1-.6-3.559c-.344-5.293-.211-10.746,1.711-15.689.742-1.906,1.741-3.715,2.326-5.675a28.458,28.458,0,0,0,.876-6.926l.632-14.441a9.4,9.4,0,0,0-.214-3.131c-.63-2.089-2.583-3.447-4.375-4.693-4.327-3.009-8.6-6.521-10.7-11.357a7.965,7.965,0,0,1-.739-4.7c.591-2.867,3.485-4.724,6.345-5.349a14.193,14.193,0,0,1,17.016,11.438c.283,1.63.279,3.294.445,4.94.351,3.491,1.46,6.856,2.153,10.3,1.708,8.472.823,17.23,2.512,25.7C658.063,547.728,663.387,552.349,660.106,560.1Z" transform="translate(-302.458 -242.827)" fill="#ffb8b8"/>
      <path id="Path_787" data-name="Path 787" d="M141.841,690.8l-1.21-.024a280.7,280.7,0,0,1,4.3-40.115c5.234-28.371,13.937-47,25.867-55.38l.695.99C143.62,615.838,141.855,690.05,141.841,690.8Z" transform="translate(-109.991 -285.207)" fill="#2f2e41"/>
      <path id="Path_788" data-name="Path 788" d="M166.841,725.442l-1.21-.024c.026-1.34.783-32.929,13.219-41.661l.695.99C167.61,693.128,166.847,725.12,166.841,725.442Z" transform="translate(-119.862 -320.141)" fill="#2f2e41"/>
      <circle id="Ellipse_98" data-name="Ellipse 98" cx="6.052" cy="6.052" r="6.052" transform="translate(62.332 299.07)" fill="#6c63ff"/>
      <circle id="Ellipse_99" data-name="Ellipse 99" cx="6.052" cy="6.052" r="6.052" transform="translate(59.335 351.114)" fill="#6c63ff"/>
      <path id="Path_789" data-name="Path 789" d="M157.729,594.908A26.881,26.881,0,0,1,155.9,608.67a24.5,24.5,0,0,1-4.119-26.307A26.885,26.885,0,0,1,157.729,594.908Z" transform="translate(-113.57 -280.107)" fill="#2f2e41"/>
      <path id="Path_790" data-name="Path 790" d="M186.608,626.581a26.881,26.881,0,0,1-13.87.6,24.5,24.5,0,0,1,25.187-8.639A26.879,26.879,0,0,1,186.608,626.581Z" transform="translate(-122.668 -294.137)" fill="#2f2e41"/>
      <path id="Path_791" data-name="Path 791" d="M189.683,704.4a18.84,18.84,0,0,1-9.721.42,17.171,17.171,0,0,1,17.654-6.055A18.842,18.842,0,0,1,189.683,704.4Z" transform="translate(-125.52 -325.864)" fill="#2f2e41"/>
    </g>
  </g>
</svg>
